<?xml version="1.0" standalone="no"?>
<!DOCTYPE svg PUBLIC "-//W3C//DTD SVG 1.1//EN" "http://www.w3.org/Graphics/SVG/1.1/DTD/svg11.dtd" >
<svg xmlns="http://www.w3.org/2000/svg">
<metadata>Generated by IcoMoon</metadata>
<defs>
<font id="icomoon" horiz-adv-x="1024">
<font-face units-per-em="1024" ascent="960" descent="-64" />
<missing-glyph horiz-adv-x="1024" />
<glyph unicode="&#x20;" horiz-adv-x="512" d="" />
<glyph unicode="&#xe900;" glyph-name="place" d="M510.771 919.040c171.696-0.233 310.814-139.386 310.989-311.074v-0.017c0-155.341-233.779-524.698-310.989-617.062-77.312 92.365-311.091 461.722-311.091 617.062 0.233 171.717 139.374 310.858 311.069 311.091h0.022zM510.771 960c-194.433 0-352.051-157.619-352.051-352.051v0c0-194.355 320-671.949 352.051-671.949s351.949 477.594 351.949 671.949c0 0.030 0 0.066 0 0.102 0 194.376-157.573 351.949-351.949 351.949v0zM670.822 640c0-88.394-71.657-160.051-160.051-160.051s-160.051 71.657-160.051 160.051c0 88.394 71.657 160.051 160.051 160.051s160.051-71.657 160.051-160.051z" />
<glyph unicode="&#xe901;" glyph-name="plant" d="M849.92 440.32h-674.816c-11.876 0-21.504-9.628-21.504-21.504v-109.773c0-11.876 9.628-21.504 21.504-21.504v0h674.816c11.876 0 21.504 9.628 21.504 21.504v109.773c0 11.876-9.628 21.504-21.504 21.504v0zM830.464 328.499h-635.904v70.861h636.314zM215.859 328.499l9.421-40.96 75.059-325.427c3.563-15.052 16.873-26.084 32.765-26.112h389.123c0.003 0 0.006 0 0.009 0 16.324 0 29.936 11.61 33.030 27.023l0.036 0.215 70.246 365.261zM715.776-23.040h-376.832l-71.68 310.579-1.024 4.915h510.157l-0.922-4.915zM508.928 960s-65.024-65.024-65.024-145.203c0-60.006 36.454-111.514 54.784-133.632 6.144-7.475 10.24-11.571 10.24-11.571s4.096 4.096 10.24 11.571c18.33 22.118 54.272 74.035 54.272 133.632 0 80.179-64.512 145.203-64.512 145.203zM474.624 814.797c0 38.093 18.534 73.216 34.202 96.154 15.77-22.63 33.894-58.163 33.894-96.154-1.857-36.368-14.407-69.479-34.54-96.631l0.338 0.477c-15.36 23.040-33.894 58.163-33.894 96.154zM569.958 662.016c-25.413-27.091-43.517-61.326-50.99-99.374l-0.21-1.285c-3.322-14.21-5.461-30.684-5.932-47.575l-0.008-0.348h5.939c21.094 1.126 94.515 8.499 142.643 56.525 56.73 56.73 56.73 148.582 56.73 148.582s-91.443 0.205-148.173-56.525zM640.102 591.36c-24.821-22.544-56.307-38.168-91.167-43.597l-0.993-0.127c5.12 27.341 16.896 65.331 43.725 92.16 24.838 22.536 56.309 38.183 91.153 43.696l1.007 0.131c-5.637-35.87-21.245-67.37-43.864-92.419l0.139 0.156zM519.168 434.79c0 1.741 0 3.584-0.512 5.53-2.999 28.425-10.058 54.455-20.63 78.597l0.662-1.695c-8.972 20.58-20.936 38.188-35.567 53.181l0.034-0.035c-56.73 56.73-148.582 56.73-148.582 56.73s0-92.16 56.73-148.582c16.536-16.157 36.29-29.104 58.2-37.779l1.192-0.416c19.812-8.153 42.807-14.141 66.788-16.886l1.205-0.112c10.24-1.229 18.227-1.536 20.48-1.536h0.717s0 4.813-0.717 13.005zM393.011 500.224c-27.034 26.931-38.707 64.819-43.827 92.16 35.833-5.651 67.297-21.257 92.315-43.863l-0.155 0.138c22.523-24.832 38.143-56.312 43.596-91.162l0.129-0.998c-27.238 5.12-65.229 16.896-92.058 43.725zM498.688 700.211h20.48v-300.851h-20.48v300.851z" />
<glyph unicode="&#xe902;" glyph-name="gift" d="M994.935 685.175h-964.422c0 0-0.001 0-0.001 0-13.923 0-25.223-11.228-25.34-25.123v-142.854c0-13.996 11.346-25.341 25.341-25.341v0h964.422c13.996 0 25.341 11.346 25.341 25.341v0 142.843c-0.117 13.906-11.418 25.135-25.341 25.135 0 0-0.001 0-0.001 0v0zM978.903 533.23h-932.357v110.571h932.357zM615.434 685.175h-28.755c1.241 2.482 2.482 4.965 3.827 7.447l-5.689-0.621c2.896 5.585 5.896 11.378 9.102 17.377h-41.374l-5.379-10.343-6.93-13.86h-44.166l-7.034 13.86-5.379 10.343h-41.374c3.206-5.999 6.206-11.792 9.102-17.377l-5.689 0.517 3.827-7.344h-28.651c-9.309 1.345-19.032 2.896-28.962 4.861v-754.036h241.623v751.968zM592.162-22.626h-158.875v690.631h158.875zM965.042 533.23h-330.99v6.93h-41.374v-6.93h-159.392v6.93h-41.374v-6.93h-330.99c-4.281-4.27-6.93-10.175-6.93-16.699 0-0.020 0-0.041 0-0.061v0.003-556.787c0.058-13.022 10.569-23.57 23.572-23.686h870.928c0 0 0 0 0 0 13.102 0 23.731 10.592 23.79 23.681v556.793c-0.071 6.586-2.832 12.514-7.233 16.749l-0.008 0.007zM930.599-22.626h-835.749v521.413h835.749zM518.206 639.354v-0.517zM504.553 668.212l-2.896 6.62-5.172 10.343-7.034 13.86-5.379 10.343c-38.374 72.714-101.469 180.803-158.979 219.591-26.751 18.753-59.797 30.25-95.485 31.027l-0.192 0.003c-87.195 0-143.67-83.472-49.338-200.559 25.745-30.951 57.462-55.985 93.495-73.534l1.665-0.732c7.551-3.724 15.205-7.137 22.962-10.343 26.78-11.232 58.222-20.591 90.849-26.561l2.863-0.435c8.688-1.655 17.067-3 25.238-4.034 5.585-0.827 10.964-1.448 16.136-1.965v1.965h82.747c-1.448 3.206-3.724 7.964-6.516 13.86-1.552 3.103-3.206 6.62-4.965 10.343zM420.874 685.382c-9.309 1.345-19.032 2.896-28.962 4.861-62.061 12.412-134.465 38.891-179.665 95.366-34.030 42.305-47.269 82.23-35.375 107.055 7.861 15.619 27.514 25.962 52.545 25.962 27.237-1.041 52.186-10.028 72.819-24.69l-0.415 0.28c45.925-31.030 101.676-122.259 140.36-195.181l3.413-6.516 3.827-7.344 1.862-3.517c-9.206 0.827-19.549 1.965-30.41 3.517zM518.206 639.354v-0.517zM806.891 960c-35.846-0.769-68.861-12.269-96.13-31.4l0.557 0.37c-57.509-38.788-120.708-146.877-158.668-219.591l-5.379-10.343-6.93-13.86c-1.862-3.62-3.62-7.034-5.172-10.343s-2.276-4.655-3.413-6.827-3.413-7.24-4.965-10.343c-2.793-5.896-5.068-10.343-6.516-13.86h72.404v-3.103q12.826 1.138 27.307 3.103l14.067 2.069c39.293 6.275 74.46 16.361 107.725 30.116l-3.153-1.155c7.758 3.206 15.412 6.62 22.962 10.343 37.734 18.278 69.484 43.312 94.896 73.813l0.367 0.453c93.712 117.088 37.236 200.559-49.959 200.559zM824.061 785.403c-48.2-59.785-125.88-86.057-190.526-97.435l-18.101-2.793c-10.343-1.552-20.687-2.689-31.030-3.517l1.862 3.517c1.241 2.482 2.482 4.965 3.827 7.447l3.413 6.413c38.684 72.404 94.436 164.564 140.36 195.181 20.218 14.383 45.167 23.37 72.154 24.403l0.25 0.008c25.031 0 44.684-10.343 52.545-26.169 12.516-24.824-0.724-64.75-34.754-107.055z" />
<glyph unicode="&#xe903;" glyph-name="heart" d="M935.117 822.784c-53.086 53.154-126.46 86.036-207.514 86.036s-154.428-32.881-207.511-86.033l-0.003-0.003-38.81-38.502 29.286-29.082 28.979 28.877 9.523 9.626c45.396 44.025 107.387 71.164 175.716 71.164 139.462 0 252.518-113.056 252.518-252.518 0-68.278-27.099-130.228-71.128-175.679l0.064 0.067-9.626-9.523-28.877-28.979-386.458-386.048 28.979-28.979 424.55 424.55c53.246 53.101 86.19 126.537 86.19 207.667 0 80.978-32.819 154.29-85.883 207.361v0zM95.437 398.234l28.979-28.979 29.184 28.979-29.082 29.286zM153.6 398.234l-29.082 29.286-9.626 9.523c-43.188 45.23-69.766 106.642-69.766 174.262 0 139.462 113.056 252.518 252.518 252.518 67.697 0 129.171-26.639 174.514-70.006l-0.094 0.090 9.523-9.626 28.979-29.082 28.979 28.877-38.502 38.707c-53.272 54.128-127.327 87.665-209.214 87.665-162.084 0-293.478-131.395-293.478-293.478 0-81.887 33.538-155.942 87.627-209.176l424.588-424.588 28.979 28.979-28.979 28.979zM896.614 427.52l-28.877-28.979 28.877-28.979 28.979 28.979z" />
<glyph unicode="&#xe904;" glyph-name="leftarrow" d="M381.235 483.43c-7.441-11.403-11.868-25.362-11.868-40.355 0-16.026 5.057-30.871 13.662-43.026l-0.156 0.233c3.317-4.861 6.854-9.113 10.751-13.004l0.001-0.001q207.053-209.203 415.949-416.461c37.683-37.478 71.68-39.526 103.117-10.24s29.082 66.253-10.24 106.189c-114.074 114.995-227.738 229.99-343.245 342.733-27.238 26.624-26.522 41.984 0 68.198 116.941 113.664 231.834 229.478 346.317 345.6 44.749 45.363 32.666 107.827-24.781 117.862-22.528 3.891-55.603-11.571-73.523-28.979-115.098-111.002-227.328-225.28-340.48-337.92-24.576-24.576-50.586-47.821-73.318-74.035-4.198-4.957-8.214-10.439-11.834-16.195l-0.352-0.599zM232.038-64h-144.998v1024h144.998v-1024z" />
<glyph unicode="&#xe905;" glyph-name="menu" d="M0 791.040h1024v-113.766h-1024v113.766zM0 506.573h1024v-113.766h-1024v113.766zM0 222.106h1024v-113.766h-1024v113.766z" />
<glyph unicode="&#xe906;" glyph-name="phone" d="M949.563-64c-524.181 0.616-948.946 425.381-949.563 949.503v0.060c0.056 41.088 33.349 74.381 74.431 74.437h191.414c41.088-0.056 74.381-33.349 74.437-74.431v-0.005c0-0.25-0.001-0.545-0.001-0.84 0-67.297 11.027-132.019 31.372-192.458l-1.242 4.252c2.296-6.86 3.621-14.758 3.621-22.966 0-20.549-8.305-39.159-21.741-52.655l-110.176-110.668c76.907-141.997 190.549-255.576 328.337-330.29l4.266-2.116 110.178 110.375c13.449 13.524 32.070 21.894 52.645 21.894 8.139 0 15.973-1.31 23.301-3.73l-0.524 0.15c56.244-19.165 121.035-30.228 188.411-30.228 0.293 0 0.585 0 0.878 0.001h-0.046c41.088-0.056 74.381-33.349 74.437-74.431v-191.414c-0.056-41.088-33.349-74.381-74.431-74.437h-0.005zM74.437 920.615c-19.359 0-35.052-15.693-35.052-35.052v0c0.616-502.43 407.749-909.563 910.12-910.178h0.058c0.118-0.001 0.257-0.002 0.396-0.002 19.141 0 34.658 15.517 34.658 34.658 0 0.139-0.001 0.278-0.002 0.417v-0.021 191.409c0.001 0.118 0.002 0.257 0.002 0.396 0 19.141-15.517 34.658-34.658 34.658-0.139 0-0.278-0.001-0.417-0.002h0.021c-0.153 0-0.335 0-0.516 0-71.776 0-140.808 11.747-205.279 33.423l4.54-1.324c-3.188 1.061-6.858 1.673-10.671 1.673-9.64 0-18.367-3.914-24.676-10.239l-130.659-130.758-12.8 6.498c-159.458 82.675-286.28 209.434-366.808 364.139l-2.226 4.698-6.498 12.702 130.363 130.954c6.391 6.366 10.345 15.174 10.345 24.905 0 3.837-0.615 7.53-1.751 10.987l0.071-0.248c-20.352 59.824-32.099 128.737-32.099 200.394 0 0.303 0 0.605 0.001 0.908v-0.046c0.001 0.118 0.002 0.257 0.002 0.396 0 19.141-15.517 34.658-34.658 34.658-0.139 0-0.278-0.001-0.417-0.002h0.021z" />
<glyph unicode="&#xe907;" glyph-name="map" d="M510.771 919.040c171.696-0.233 310.814-139.386 310.989-311.074v-0.017c0-155.341-233.779-524.698-310.989-617.062-77.312 92.365-311.091 461.722-311.091 617.062 0.233 171.717 139.374 310.858 311.069 311.091h0.022zM510.771 960c-194.433 0-352.051-157.619-352.051-352.051v0c0-194.355 320-671.949 352.051-671.949s351.949 477.594 351.949 671.949c0 0.030 0 0.066 0 0.102 0 194.376-157.573 351.949-351.949 351.949v0zM510.771 759.091c65.772 0 119.091-53.319 119.091-119.091s-53.319-119.091-119.091-119.091c-65.772 0-119.091 53.319-119.091 119.091v0c0.058 65.749 53.342 119.033 119.086 119.091h0.006zM510.771 800.051c-0.030 0-0.066 0-0.102 0-88.394 0-160.051-71.657-160.051-160.051s71.657-160.051 160.051-160.051c88.394 0 160.051 71.657 160.051 160.051v0c0 88.358-71.599 159.993-159.943 160.051h-0.005z" />
<glyph unicode="&#xe908;" glyph-name="desert" d="M716.8 422.81h-412.16c-0.025-0.444-0.040-0.963-0.040-1.485s0.014-1.041 0.043-1.556l-0.003 0.072c0-0.054 0-0.119 0-0.184 0-9.721 0.67-19.286 1.966-28.65l-0.123 1.084h408.576c1.11 8.052 1.743 17.357 1.743 26.809 0 0.331-0.001 0.662-0.002 0.992v-0.051c0.025 0.444 0.040 0.963 0.040 1.485s-0.014 1.041-0.043 1.556l0.003-0.072zM716.8 422.81h-412.16c-0.025-0.444-0.040-0.963-0.040-1.485s0.014-1.041 0.043-1.556l-0.003 0.072c0-0.054 0-0.119 0-0.184 0-9.721 0.67-19.286 1.966-28.65l-0.123 1.084h408.576c1.11 8.052 1.743 17.357 1.743 26.809 0 0.331-0.001 0.662-0.002 0.992v-0.051c0.025 0.444 0.040 0.963 0.040 1.485s-0.014 1.041-0.043 1.556l0.003-0.072zM716.8 422.81h-412.16c-0.025-0.444-0.040-0.963-0.040-1.485s0.014-1.041 0.043-1.556l-0.003 0.072c0-0.054 0-0.119 0-0.184 0-9.721 0.67-19.286 1.966-28.65l-0.123 1.084h408.576c1.11 8.052 1.743 17.357 1.743 26.809 0 0.331-0.001 0.662-0.002 0.992v-0.051c0.025 0.444 0.040 0.963 0.040 1.485s-0.014 1.041-0.043 1.556l0.003-0.072zM716.8 422.81h-412.16c-0.025-0.444-0.040-0.963-0.040-1.485s0.014-1.041 0.043-1.556l-0.003 0.072c0-0.054 0-0.119 0-0.184 0-9.721 0.67-19.286 1.966-28.65l-0.123 1.084h408.576c1.11 8.052 1.743 17.357 1.743 26.809 0 0.331-0.001 0.662-0.002 0.992v-0.051c0.025 0.444 0.040 0.963 0.040 1.485s-0.014 1.041-0.043 1.556l0.003-0.072zM847.77 422.81h-670.003c-13.347 0-24.166-10.82-24.166-24.166v0-89.293c0-13.347 10.82-24.166 24.166-24.166v0h670.003c13.347 0 24.166 10.82 24.166 24.166v0 89.293c0 13.347-10.82 24.166-24.166 24.166v0zM841.216 315.904h-656.896v76.186h656.896zM716.8 422.81h-412.16c-0.025-0.444-0.040-0.963-0.040-1.485s0.014-1.041 0.043-1.556l-0.003 0.072c0-0.054 0-0.119 0-0.184 0-9.721 0.67-19.286 1.966-28.65l-0.123 1.084h408.576c1.11 8.052 1.743 17.357 1.743 26.809 0 0.331-0.001 0.662-0.002 0.992v-0.051c0.025 0.444 0.040 0.963 0.040 1.485s-0.014 1.041-0.043 1.556l0.003-0.072zM716.8 422.81h-412.16c-0.025-0.444-0.040-0.963-0.040-1.485s0.014-1.041 0.043-1.556l-0.003 0.072c0-0.054 0-0.119 0-0.184 0-9.721 0.67-19.286 1.966-28.65l-0.123 1.084h408.576c1.11 8.052 1.743 17.357 1.743 26.809 0 0.331-0.001 0.662-0.002 0.992v-0.051c0.025 0.444 0.040 0.963 0.040 1.485s-0.014 1.041-0.043 1.556l0.003-0.072zM716.8 422.81h-412.16c-0.025-0.444-0.040-0.963-0.040-1.485s0.014-1.041 0.043-1.556l-0.003 0.072c0-0.054 0-0.119 0-0.184 0-9.721 0.67-19.286 1.966-28.65l-0.123 1.084h408.576c1.11 8.052 1.743 17.357 1.743 26.809 0 0.331-0.001 0.662-0.002 0.992v-0.051c0.025 0.444 0.040 0.963 0.040 1.485s-0.014 1.041-0.043 1.556l0.003-0.072zM199.475 315.802l7.373-30.72 78.541-327.68c3.231-13.772 15.409-23.869 29.946-23.869 0.272 0 0.543 0.004 0.814 0.011l-0.040-0.001h406.938c0.099-0.001 0.215-0.002 0.332-0.002 15.377 0 28.115 11.298 30.367 26.045l0.021 0.171 57.037 356.147zM723.558-35.123h-407.757s-0.512 0-0.512 0l-76.902 320.205h536.371zM688.64 315.904v0c-6.81-11.62-14.052-21.667-22.127-30.971l0.213 0.251h38.81c6.246 8.812 12.242 18.876 17.436 29.406l0.586 1.314h-34.918zM354.816 285.184v0c-7.862 9.053-15.104 19.1-21.397 29.773l-0.517 0.947h-35.021c5.78-11.844 11.776-21.908 18.495-31.426l-0.472 0.706h38.912zM747.52 422.81c-0.227 26.2-4.746 51.271-12.886 74.645l0.495-1.634c-19.023 54.932-55.993 99.564-103.762 127.91l-1.096 0.602c-6.28 3.812-13.84 7.78-21.64 11.311l-1.4 0.567c-11.291 5.265-24.602 9.935-38.421 13.307l-1.515 0.312c-16.891 4.359-36.283 6.861-56.259 6.861-0.094 0-0.187 0-0.281 0h-4.491c-13.514-0.181-26.588-1.552-39.273-4.013l1.385 0.224c-23.917-4.337-45.277-11.701-65.001-21.806l1.309 0.609c-29.015-14.843-53.556-34.282-73.669-57.645l-0.264-0.314c-34.706-40.373-56.059-93.098-56.728-150.796l-0.001-0.142c-0.024-0.443-0.038-0.963-0.038-1.485s0.014-1.041 0.041-1.557l-0.003 0.072c-0.001-0.185-0.001-0.404-0.001-0.623 0-9.561 0.596-18.983 1.752-28.231l-0.113 1.104h30.72c-1.173 8.281-1.843 17.845-1.843 27.567 0 0.065 0 0.129 0 0.194v-0.010c-0.025 0.444-0.040 0.963-0.040 1.485s0.014 1.041 0.043 1.556l-0.003-0.072c0.336 30.399 7.324 59.085 19.571 84.781l-0.525-1.223c6.19 13.15 13.017 24.439 20.854 34.93l-0.374-0.523c37.772 51.929 98.333 85.3 166.688 85.3 28.771 0 56.162-5.912 81.023-16.588l-1.337 0.511c11.069-4.619 20.425-9.489 29.316-15.034l-0.849 0.494c29.961-18.877 54.185-44.28 71.141-74.329l0.539-1.038c16.088-27.989 25.757-61.457 26.213-97.146l0.001-0.134c0.025-0.444 0.040-0.963 0.040-1.485s-0.014-1.041-0.043-1.556l0.003 0.072c0-0.054 0-0.119 0-0.184 0-9.721-0.67-19.286-1.966-28.65l0.123 1.084h30.72c1.129 8.294 1.797 17.921 1.843 27.694v0.056c0.024 0.443 0.038 0.963 0.038 1.485s-0.014 1.041-0.041 1.557l0.003-0.072zM783.974 843.469c-4.789 4.081-10.298 7.52-16.272 10.080l-0.419 0.16c-8.932 3.758-19.315 5.941-30.208 5.941-0.18 0-0.36-0.001-0.54-0.002h0.028c-10.122-0.083-19.879-1.498-29.151-4.078l0.786 0.187c-39.459-12.137-72.544-35.286-96.659-65.841l-0.313-0.412c-37.478-45.773-52.838-99.43-43.725-139.264 3.369-15.991 11.564-29.691 22.968-39.873l0.072-0.063c11.069-4.619 20.425-9.489 29.316-15.034l-0.849 0.494c6.078-1.562 13.056-2.458 20.242-2.458 0.084 0 0.167 0 0.251 0h-0.013c10.23 0.066 20.093 1.52 29.447 4.182l-0.775-0.189c39.203 12.029 72.078 35.001 96.049 65.334l0.31 0.406c53.146 64.922 61.85 145.613 19.456 180.429zM779.571 767.795c-5.028-32.921-18.863-61.956-39-85.424l0.19 0.227c-29.286-35.738-69.222-58.88-101.478-58.88-0.061 0-0.133 0-0.205 0-3.106 0-6.161 0.223-9.147 0.655l0.341-0.040c-7.358 0.97-13.912 3.823-19.34 8.054l0.089-0.066c-1.37 1.144-2.607 2.316-3.766 3.56l-0.022 0.024c-25.702 27.853-7.066 91.034 27.546 133.12 21.111 27.561 50.374 47.93 84.16 57.578l1.14 0.278c4.845 1.063 10.425 1.695 16.145 1.741h0.034c0.41 0.013 0.891 0.021 1.375 0.021 7.692 0 14.94-1.902 21.299-5.261l-0.249 0.12c2.181-1.124 4.062-2.383 5.782-3.827l-0.047 0.039c16.589-13.312 16.589-38.298 15.155-51.917zM443.904 842.957c-3.174 2.97-6.349 5.939-9.626 8.704-17.047 14.992-36.542 27.802-57.688 37.669l-1.5 0.628c-21.232 10.143-46.088 16.281-72.322 16.791l-0.177 0.003c-1.174 0.049-2.551 0.078-3.934 0.078-27.324 0-52.085-10.977-70.112-28.761l0.011 0.011c-47.206-49.357-27.238-144.998 44.544-213.606 25.69-25.118 57.114-44.484 92.117-55.946l1.681-0.476c13.343-4.349 28.722-7.019 44.673-7.37l0.178-0.003c20.71 11.614 44.902 19.909 70.615 23.433l1.065 0.119c1.975 1.615 3.747 3.29 5.393 5.083l0.034 0.037c7.352 7.683 13.333 16.752 17.502 26.764l0.213 0.577c21.197 52.224-2.56 128.717-62.669 186.266zM466.227 650.547c-12.646-11.967-29.76-19.325-48.593-19.325-1.133 0-2.26 0.027-3.379 0.079l0.158-0.006c-3.277 0-6.554 0-10.24 0-43.376 6.189-81.243 26.163-109.848 55.269l-0.027 0.027c-27.926 25.63-48.303 59.072-57.677 96.859l-0.282 1.343c-3.686 17.408-6.656 49.971 14.438 71.68 12.682 12.143 29.919 19.618 48.902 19.618 1.024 0 2.043-0.022 3.057-0.065l-0.145 0.005c29.298-1.025 56.346-9.811 79.403-24.349l-0.658 0.387c13.497-8.054 25.188-16.714 35.941-26.395l-0.204 0.18 5.53-5.12c57.242-55.296 77.619-130.56 45.67-167.936-0.655-0.822-1.325-1.558-2.041-2.246l-0.007-0.007zM790.221 933.888l-22.938-80.486-8.602-29.901c-6.111 3.239-13.358 5.141-21.051 5.141-0.483 0-0.965-0.008-1.445-0.022l0.070 0.002c-5.754-0.046-11.334-0.677-16.718-1.838l0.539 0.097-12.186 28.57-32.051 75.981c-1.304 2.618-2.067 5.703-2.067 8.966 0 11.311 9.169 20.48 20.48 20.48 8.719 0 16.165-5.448 19.12-13.126l0.047-0.14 23.142-54.067 14.746 51.2c2.531 8.654 10.396 14.869 19.712 14.869 11.322 0 20.501-9.179 20.501-20.501 0-2.006-0.288-3.945-0.825-5.777l0.036 0.145zM481.894 922.931l-47.616-71.68-17.203-25.395c-10.55 9.5-22.241 18.16-34.716 25.646l-1.021 0.568-6.246 37.888-6.861 40.96c-0.178 1.016-0.28 2.186-0.28 3.379 0 11.324 9.18 20.504 20.504 20.504 10.131 0 18.545-7.347 20.207-17.003l0.017-0.122 6.758-40.96 32.358 48.947c3.727 5.533 9.969 9.125 17.050 9.125 11.317 0 20.491-9.174 20.491-20.491 0-4.236-1.286-8.172-3.488-11.439l0.046 0.073zM789.811 506.778l-85.402-17.101c-4.272 11.937-8.967 22.072-14.442 31.706l0.516-0.986 14.131 35.328 16.077 40.141c2.821 8.161 10.438 13.917 19.4 13.917 11.311 0 20.48-9.169 20.48-20.48 0-3.117-0.697-6.072-1.942-8.717l0.053 0.125-16.589-40.96 39.424 7.885c0.961 0.16 2.068 0.251 3.196 0.251 11.311 0 20.48-9.169 20.48-20.48 0-9.611-6.62-17.675-15.549-19.882l-0.141-0.029zM343.859 540.774c-7.463-9.967-14.29-21.256-19.964-33.199l-0.516-1.207h-72.499c-11.311 0-20.48 9.169-20.48 20.48s9.169 20.48 20.48 20.48v0h46.080l-19.354 48.333c-0.931 2.258-1.471 4.881-1.471 7.629 0 11.331 9.186 20.517 20.517 20.517 8.583 0 15.935-5.27 18.997-12.752l0.050-0.137 14.848-37.171z" />
<glyph unicode="&#xe909;" glyph-name="profile" d="M512 960c-282.603-0.221-511.613-229.366-511.613-512 0-142.994 58.62-272.298 153.139-365.189l0.073-0.072c10.24-10.24 20.48-19.354 31.334-28.467 88.037-73.575 202.436-118.251 327.27-118.251s239.234 44.676 328.082 118.911l-0.812-0.66c10.445 9.114 20.685 18.534 30.925 28.467 94.593 92.964 153.213 222.267 153.213 365.261 0 282.634-229.010 511.779-511.592 512h-0.021zM848.282 118.579c-9.626-10.24-19.763-19.354-30.72-28.467-81.705-70.335-188.836-113.164-305.971-113.164s-224.266 42.83-306.588 113.683l0.616-0.518c-10.24 9.114-20.48 18.534-30.72 28.467-83.326 84.907-134.758 201.366-134.758 329.838 0 260.148 210.892 471.040 471.040 471.040s471.040-210.892 471.040-471.040c0-128.472-51.432-244.932-134.83-329.911l0.071 0.073zM537.6 755.2c-98.969 0-179.2-80.231-179.2-179.2s80.231-179.2 179.2-179.2c98.969 0 179.2 80.231 179.2 179.2v0c0 98.969-80.231 179.2-179.2 179.2v0zM537.6 437.76c-76.348 0-138.24 61.892-138.24 138.24s61.892 138.24 138.24 138.24c76.348 0 138.24-61.892 138.24-138.24v0c-0.116-76.301-61.939-138.124-138.229-138.24h-0.011zM848.282 118.579c-74.969 106.8-197.574 175.748-336.282 175.748s-261.312-68.948-335.411-174.441l-0.87-1.307c-7.080-10.026-14.405-21.736-21.104-33.842l-1.014-1.998c10.24-10.24 20.48-19.354 31.334-28.467 7.284 13.899 14.282 25.452 21.888 36.555l-0.794-1.227c67.14 98.901 179.067 163.026 305.971 163.026s238.832-64.125 305.147-161.74l0.824-1.286c7.045-9.947 14.238-21.493 20.77-33.452l0.938-1.876c10.24 9.114 20.48 18.534 30.72 28.467-7.713 14.103-15.038 25.814-22.947 37.086l0.828-1.246z" />
<glyph unicode="&#xe90a;" glyph-name="qoute" d="M959.181 840.499c2.262 1.090 4.918 1.728 7.723 1.728 9.573 0 17.413-7.422 18.079-16.825l0.003-0.058c1.434-24.781-9.626-39.629-37.581-52.634-131.379-61.44-211.046-163.226-225.28-310.374-1.741-18.022 3.584-36.762 6.246-60.723 15.462 7.168 24.474 10.854 32.563 15.053 110.592 58.368 247.808-8.294 261.939-132.506 1.235-8.403 1.94-18.103 1.94-27.968 0-81.064-47.622-151.005-116.415-183.374l-1.237-0.523c-71.68-35.533-169.165-20.48-232.243 35.021-90.726 80.589-110.182 185.856-98.202 298.906 18.33 173.261 115.917 293.888 263.885 376.934 37.478 21.094 77.21 38.605 118.579 57.344zM376.934 835.789c2.738 1.168 5.924 1.848 9.268 1.848 13.347 0 24.166-10.82 24.166-24.166 0-2.149-0.28-4.232-0.807-6.215l0.038 0.169c-4.198-14.848-16.179-25.395-36.762-35.021-131.379-61.44-210.33-163.84-225.28-310.784-0.416-3.747-0.654-8.092-0.654-12.493 0-7.675 0.722-15.182 2.103-22.455l-0.118 0.746c3.379-18.022 12.493-26.214 31.437-14.95 66.867 39.629 133.632 40.96 196.403-7.373s87.142-116.634 69.222-193.229c-19.046-81.92-73.114-134.861-155.75-153.6-119.91-27.341-244.531 58.573-276.48 187.904-48.128 199.373 29.901 390.758 209.715 510.362 25.873 17.144 56.283 34.651 87.764 50.329l5.113 2.305c19.456 9.728 39.629 18.022 60.621 26.624z" />
<glyph unicode="&#xe90b;" glyph-name="recycle" d="M131.789 614.195c61.645 146.125 226.611 264.397 415.13 246.784 108.276-9.361 203.193-59.982 270.161-135.856l0.38-0.439c72.294-79.667 107.418-174.080 108.237-284.774 4.608 4.608 7.578 7.27 10.24 10.24 18.33 19.763 36.557 39.731 54.886 59.392 10.24 10.854 19.354 12.186 27.75 4.506s6.963-17.818-2.56-28.16l-92.774-100.659c-10.24-11.162-20.48-11.264-30.72 0q-46.080 49.766-92.16 99.635c-1.331 1.434-2.765 2.867-3.994 4.403-2.953 3.113-4.769 7.33-4.769 11.971 0 5.334 2.399 10.108 6.177 13.301l0.026 0.021c2.96 2.783 6.956 4.493 11.353 4.493 5.321 0 10.058-2.506 13.093-6.402l0.028-0.037c15.053-15.667 29.696-31.949 44.442-47.923 7.074-7.876 14.395-15.1 22.129-21.864l0.297-0.254c0.241 4.842 0.379 10.514 0.379 16.219 0 43.991-8.178 86.072-23.097 124.806l0.804-2.375c-32.207 88.218-94.474 158.985-174.137 201.376l-1.991 0.967c-51.384 28.027-112.546 44.508-177.558 44.508-8.54 0-17.014-0.284-25.412-0.844l1.139 0.061c-73.528-3.68-140.672-28.211-196.429-67.745l1.153 0.776c-57.174-40.097-102.071-94.069-130.311-157.127l-0.965-2.412-5.222 2.048zM857.19 290.509l29.696-13.517c-51.2-124.621-204.8-256-404.275-242.278-72.969 4.927-139.537 28.625-196.032 66.253l1.472-0.922c-59.189 38.299-107.005 89.359-140.427 149.517l-1.090 2.138c-32.219 57.173-51.201 125.519-51.201 198.298 0 0.27 0 0.54 0.001 0.81v-0.042l-3.174 2.355c-1.856-3.912-3.903-7.271-6.253-10.391l0.109 0.151c-17.92-19.661-35.84-39.219-54.067-58.573-3.147-4.679-8.422-7.716-14.406-7.716-4.669 0-8.905 1.849-12.018 4.854l0.005-0.005c-3.396 3.217-5.508 7.759-5.508 12.794 0 5.421 2.449 10.269 6.3 13.5l0.027 0.022q47.821 52.634 96.051 104.55c3.092 4.408 8.151 7.255 13.875 7.255s10.783-2.846 13.839-7.201l0.036-0.054q48.23-51.917 95.949-104.038c3.905-3.217 6.376-8.053 6.376-13.466 0-9.614-7.794-17.408-17.408-17.408-5.876 0-11.072 2.911-14.224 7.37l-0.037 0.055c-19.251 20.48-38.298 40.96-57.344 61.44-3.277 3.482-6.554 6.758-12.083 12.698-0.179-4.306-0.281-9.36-0.281-14.437 0-53.674 11.411-104.684 31.939-150.734l-0.938 2.355c36.392-85.329 101.483-152.576 182.891-190.845l2.248-0.95c47.681-23.003 103.683-36.445 162.825-36.445 153.154 0 285.255 90.142 346.142 220.265l0.985 2.344z" />
<glyph unicode="&#xe90c;" glyph-name="rightarrow" d="M640 483.43c7.441-11.403 11.868-25.362 11.868-40.355 0-16.026-5.057-30.871-13.662-43.026l0.156 0.233c-3.175-4.879-6.547-9.13-10.274-13.041l0.034 0.036q-207.36-209.203-416.256-416.461c-37.683-37.478-71.68-39.526-103.117-10.24s-29.082 66.253 10.24 106.189c114.074 114.995 227.738 229.99 343.245 342.733 27.238 26.624 26.522 41.984 0 68.198-116.941 113.664-231.834 229.478-346.317 345.6-44.749 45.363-32.666 107.827 24.781 117.862 22.528 3.891 55.603-11.571 73.523-28.979 115.098-111.002 227.328-225.28 340.48-337.92 24.576-24.576 50.586-47.821 73.318-74.035 4.116-4.942 8.067-10.424 11.624-16.175l0.356-0.619zM789.402 960h144.998v-1024h-144.998v1024z" />
<glyph unicode="&#xe90d;" glyph-name="search" d="M373.994 919.003c0.067 0 0.148 0 0.228 0 183.909 0 332.997-149.088 332.997-332.997 0-91.935-37.256-175.168-97.494-235.426l0.001 0.001c-60.278-60.316-143.571-97.625-235.578-97.625-183.938 0-333.050 149.111-333.050 333.050 0 91.931 37.247 175.162 97.473 235.426l-0.002-0.002c59.874 60.269 142.802 97.574 234.442 97.574 0.345 0 0.691-0.001 1.036-0.002h-0.053zM373.994 960c-0.014 0-0.031 0-0.048 0-206.551 0-373.994-167.443-373.994-373.994s167.443-373.994 373.994-373.994c206.551 0 373.994 167.443 373.994 373.994 0 103.264-41.851 196.753-109.517 264.43v0c-67.448 67.685-160.754 109.565-263.84 109.565-0.207 0-0.414 0-0.621-0.001h0.032zM603.53 327.466l28.989 28.989 391.499-391.499-28.989-28.989-391.499 391.499z" />
<glyph unicode="&#xe90e;" glyph-name="van" d="M594.637 821.76h-567.501c-14.987 0-27.136-12.149-27.136-27.136v0-578.867c0.058-15.586 12.677-28.204 28.257-28.262h171.936c-0.427 3.382-0.686 7.327-0.717 11.326v0.040c0 0.077 0 0.168 0 0.26 0 10.539 1.953 20.621 5.518 29.905l-0.193-0.571h-163.84v552.346h540.979v-552.346h-220.672c3.435-8.785 5.426-18.957 5.427-29.593v-0.001c-0.031-4.040-0.29-7.984-0.766-11.862l0.050 0.496h221.798c14.971 0.015 27.748 9.393 32.79 22.594l0.081 0.241c1.426 3.64 2.253 7.856 2.253 12.264 0 0.008 0 0.017 0 0.025v-0.001 570.88c0 0.030 0 0.067 0 0.103 0 15.552-12.608 28.16-28.16 28.16-0.036 0-0.072 0-0.108 0h0.006zM1017.754 457.114c-1.324 4.563-3.432 8.528-6.194 11.942l0.050-0.064-165.069 206.234c-5.221 6.276-13.034 10.242-21.772 10.242-0.122 0-0.243-0.001-0.364-0.002h-235.502v-440.32c0-0.015 0-0.033 0-0.051 0-18.188 13.864-33.137 31.601-34.856l0.143-0.011h100.557c2.242 15.725 8.559 29.67 17.838 41.116l-0.123-0.156h-119.603v393.728h199.066l150.221-187.802 10.24-12.186v-193.843h-109.466c9.084-11.314 15.36-25.251 17.559-40.506l0.054-0.454h97.178c19.398 0 35.123 15.725 35.123 35.123v0 201.728c0 0.019 0 0.042 0 0.065 0 3.596-0.562 7.061-1.602 10.312l0.066-0.239zM1019.29 446.976v-30.72h-243.61c-0.030 0-0.066 0-0.102 0-26.807 0-48.538 21.731-48.538 48.538 0 0 0 0 0 0v0 102.4c0.058 26.896 21.846 48.684 48.737 48.742h118.38l32.768-40.96h-151.245c-0.031 0-0.067 0.001-0.103 0.001-4.185 0-7.578-3.393-7.578-7.578 0-0.036 0-0.072 0.001-0.109v0.005-102.4c0-4.298 3.484-7.782 7.782-7.782h241.971c0.974-3.011 1.536-6.476 1.536-10.072 0-0.023 0-0.046 0-0.069v0.004zM928.154 210.125c-5.687 64.008-59.056 113.816-124.058 113.816s-118.371-49.808-124.023-113.34l-0.034-0.476c0-3.686 0-7.475 0-11.264-0.033-1.064-0.051-2.316-0.051-3.572 0-68.826 55.795-124.621 124.621-124.621s124.621 55.795 124.621 124.621c0 1.256-0.019 2.508-0.055 3.755l0.004-0.183c-0.512 3.789-0.717 7.578-1.024 11.264zM804.147 115.2c-46.205 0-83.661 37.456-83.661 83.661v0c0.035 4.008 0.294 7.917 0.766 11.76l-0.050-0.496c5.764 41.083 40.677 72.351 82.893 72.351s77.129-31.268 82.842-71.909l0.051-0.442c0.423-3.347 0.682-7.256 0.716-11.218v-0.046c0-46.169-37.398-83.603-83.553-83.661h-0.006zM404.070 228.454c-13.717 54.98-62.67 95.068-120.986 95.068s-107.269-40.088-120.804-94.21l-0.182-0.858c-2.277-8.812-3.584-18.928-3.584-29.35 0-0.086 0-0.171 0-0.257v0.013c0-3.891 0-7.68 0-11.366 6.241-63.544 59.399-112.786 124.058-112.786s117.817 49.243 124.017 112.272l0.041 0.514c0 3.686 0.512 7.475 0.512 11.366 0.014 0.684 0.022 1.49 0.022 2.298 0 9.679-1.127 19.094-3.258 28.122l0.165-0.827zM283.136 115.2c-42.203 0.016-77.109 31.241-82.892 71.848l-0.052 0.446c-0.427 3.382-0.686 7.327-0.717 11.326v0.040c1.622 44.928 38.434 80.734 83.61 80.734s81.988-35.806 83.605-80.587l0.004-0.148c-0.031-4.040-0.29-7.984-0.766-11.862l0.050 0.496c-5.83-41.019-40.681-72.225-82.834-72.294h-0.007z" />
<glyph unicode="&#xe90f;" glyph-name="ic-plant" d="M847.77 430.182h-670.003c-13.347 0-24.166-10.82-24.166-24.166v0-89.293c0-13.347 10.82-24.166 24.166-24.166v0h670.003c13.347 0 24.166 10.82 24.166 24.166v0 89.293c0 13.347-10.82 24.166-24.166 24.166v0zM841.216 323.277h-656.896v76.186h656.896zM199.475 323.174l7.373-30.72 78.541-327.68c3.231-13.772 15.409-23.869 29.946-23.869 0.272 0 0.543 0.004 0.814 0.011l-0.040-0.001h406.938c0.099-0.001 0.215-0.002 0.332-0.002 15.377 0 28.115 11.298 30.367 26.045l0.021 0.171 57.037 356.147zM723.558-27.75h-407.757s-0.512 0-0.512 0l-76.902 320.205h536.371zM703.693 898.56c-52.634 0-52.634-44.442-52.634-76.493v-56.627c-0.041-6.704-4.232-12.419-10.132-14.709l-0.108-0.037-5.837-2.048v100.454c-0.069 61.252-49.74 110.88-111.002 110.88-3.678 0-7.314-0.179-10.9-0.528l0.455 0.036c-56.606-6.494-100.16-54.134-100.16-111.947 0-0.604 0.005-1.207 0.014-1.808l-0.001 0.091v-256c0.001-0.033 0.001-0.072 0.001-0.112 0-3.11-2.522-5.632-5.632-5.632-1.017 0-1.97 0.269-2.793 0.74l0.028-0.015c-13.272 8.181-21.992 22.628-22.016 39.113v121.962c-0.234 33.754-27.652 61.027-61.439 61.027-2.78 0-5.518-0.185-8.2-0.542l0.314 0.034c-30.284-4.827-53.151-30.758-53.151-62.030 0-0.297 0.002-0.593 0.006-0.889v0.045-119.91c0.108-87.466 66.862-159.307 152.202-167.474l0.681-0.053v-56.627h30.72v71.68c0 8.483-6.877 15.36-15.36 15.36v0c-0.031 0-0.067 0-0.103 0-75.787 0-137.246 61.351-137.42 137.097v122.283c0.215 16.801 13.885 30.339 30.718 30.339 2.029 0 4.012-0.197 5.931-0.572l-0.194 0.032c14.105-3.206 24.474-15.638 24.474-30.492 0-0.080 0-0.16-0.001-0.24v0.012-121.344c0-42.246 34.247-76.493 76.493-76.493v0 0c8.427 0 15.258 6.831 15.258 15.258v0 286.72c0 0.026 0 0.057 0 0.088 0 44.338 35.943 80.282 80.282 80.282 1.946 0 3.875-0.069 5.786-0.205l-0.257 0.015c41.917-3.948 74.458-38.964 74.458-81.579 0-0.516-0.005-1.031-0.014-1.544l0.001 0.077v-115.61c0-8.483 6.877-15.36 15.36-15.36v0c12.595 0 62.054 10.24 62.054 38.298v68.813c0 40.038 2.662 45.568 22.016 45.773 25.28 0 45.773-20.493 45.773-45.773v0-68.813c0 0 0 0 0 0 0-71.638-58.016-129.726-129.627-129.843h-5.336c-5.655 0-10.24-4.585-10.24-10.24v0-214.016h30.72v194.56c81.763 8.079 145.144 76.366 145.408 159.512v68.84c-0.29 42.103-34.459 76.128-76.59 76.186h-0.006z" />
<glyph unicode="&#xe910;" glyph-name="arrow" horiz-adv-x="1232" d="M442.271 499.372v-563.372l281.625 281.625-281.625 281.748zM442.271 151.838h-442.271v131.573h442.271v-131.573zM789.682 960v-563.372l-281.625 281.748 281.625 281.625zM1231.954 612.466h-442.271v131.573h442.271v-131.573z" />
<glyph unicode="&#xe911;" glyph-name="dropdown" horiz-adv-x="2048" d="M2048 960l-1024-1024-1024 1024h2048z" />
<glyph unicode="&#xe912;" glyph-name="email" horiz-adv-x="1408" d="M1401.841 909.18c-8.637 21.047-25.211 37.346-45.902 45.421l-0.554 0.19c-8.355 3.261-18.027 5.168-28.138 5.209h-1246.301c-0.15 0.001-0.328 0.002-0.506 0.002-5.15 0-10.18-0.513-15.042-1.491l0.485 0.081c-23.455-4.611-42.909-18.848-54.415-38.337l-0.206-0.377c-7.075-11.652-11.262-25.738-11.262-40.801 0-0.058 0-0.116 0-0.174v0.009-862.108c0.080-44.673 36.273-80.866 80.938-80.946h1245.87c44.673 0.080 80.866 36.273 80.946 80.938v862.116c0 0.027 0 0.059 0 0.091 0 10.879-2.173 21.251-6.108 30.705l0.195-0.529zM1342.575 16.805c0-8.708-7.059-15.767-15.767-15.767v0h-1245.862c-8.708 0-15.767 7.059-15.767 15.767v0 862.108c0 0 0 0 0 0.001 0 8.736 7.042 15.827 15.759 15.907h1245.87c8.725-0.080 15.767-7.171 15.767-15.907 0 0 0 0 0-0.001v0zM1401.841 909.18l-59.266-59.407-574.363-574.223c-4.090-4.163-9.779-6.743-16.071-6.743-5.79 0-11.070 2.185-15.061 5.775l0.020-0.018-725.838 645.314c11.712 19.865 31.166 34.102 54.108 38.629l0.513 0.084 684.591-608.713 605.334 605.334c21.145-8.452 37.582-24.888 45.84-45.486l0.194-0.548z" />
<glyph unicode="&#xe913;" glyph-name="eye" horiz-adv-x="1463" d="M731.429 901.486c213.87 0 391.022-124.928 477.623-199.534 135.899-116.882 195.291-229.083 195.291-253.952s-59.392-137.070-195.291-253.952c-86.601-74.606-263.753-199.534-477.623-199.534s-391.022 124.928-477.623 199.534c-135.899 116.882-195.291 229.083-195.291 253.952s59.392 137.070 195.291 253.952c86.601 74.606 263.753 199.534 477.623 199.534zM731.429 960c-403.895 0-731.429-402.286-731.429-512s327.534-512 731.429-512 731.429 402.286 731.429 512-327.534 512-731.429 512zM731.429 645.486c109.068 0 197.486-88.417 197.486-197.486s-88.417-197.486-197.486-197.486c-109.068 0-197.486 88.417-197.486 197.486v0c0.166 109.001 88.484 197.319 197.47 197.486h0.016zM731.429 704c-141.385 0-256-114.615-256-256s114.615-256 256-256c141.385 0 256 114.615 256 256v0c0 141.385-114.615 256-256 256v0z" />
<glyph unicode="&#xe914;" glyph-name="leftside" horiz-adv-x="598" d="M494.080 448l-40.96 37.478-423.731 389.222c-6.274 5.3-11.953 10.687-17.31 16.381l-0.098 0.105c-7.047 7.089-11.403 16.86-11.403 27.648s4.356 20.559 11.405 27.65l-0.002-0.002c7.008 8.129 17.319 13.244 28.825 13.244 9.901 0 18.917-3.788 25.679-9.993l-0.028 0.025c30.72-26.522 60.928-54.477 91.136-81.92l413.798-376.832c35.021-31.846 35.021-54.272 0-86.016l-488.755-444.928c-6.734-6.696-14.137-12.733-22.096-17.998l-0.534-0.332c-5.578-3.589-12.388-5.722-19.697-5.722-11.542 0-21.842 5.319-28.582 13.641l-0.054 0.069c-7.196 6.761-11.678 16.339-11.678 26.963 0 8.233 2.692 15.838 7.243 21.982l-0.071-0.1c5.377 7.318 11.41 13.676 18.147 19.208l0.183 0.145q218.829 200.806 437.965 401.715c9.626 8.806 19.149 18.125 30.618 28.365z" />
<glyph unicode="&#xe915;" glyph-name="call" d="M812.032-64c-167.936 33.178-295.731 135.27-418.406 245.043-93.528 83.128-176.99 173.639-250.867 271.775l-3.392 4.705c-65.024 87.654-118.886 180.941-139.366 290.509v39.936c43.343 74.561 106.279 133.548 181.817 170.912l2.503 1.12h20.48c26.522-5.632 43.11-22.63 57.446-45.056 36.352-57.344 73.318-114.278 112.64-169.779 22.733-32.154 21.504-63.078 4.71-95.437q-20.48-39.834-44.032-78.234c-3.263-3.908-5.245-8.984-5.245-14.524 0-6.338 2.594-12.070 6.778-16.193l0.003-0.003c79.961-100.384 167.949-188.566 264.794-266.151l3.289-2.547c4.084-3.949 9.655-6.383 15.794-6.383 5.489 0 10.524 1.946 14.453 5.185l-0.039-0.031c24.986 15.258 50.586 29.389 76.493 43.008 32.973 17.408 64.41 19.251 97.28-3.891 55.398-39.117 112.64-76.186 169.677-112.64 22.426-14.234 39.629-30.72 45.158-57.344v-15.974c-4.24-14.444-9.748-27.011-16.612-38.684l0.433 0.796c-43.827-57.958-89.805-114.79-155.853-150.118zM40.141 776.602c1.024-9.728 1.434-14.438 1.946-19.046 7.782-73.421 39.834-137.728 77.517-199.27 70.554-114.381 160.87-212.685 256.819-304.845 84.48-81.92 174.080-157.798 276.48-215.654 53.658-30.106 108.851-54.886 170.598-59.187 13.414-0.922 31.846 1.946 40.346 10.24 39.424 40.243 77.21 81.92 113.459 125.645 13.926 16.486 9.626 27.341-8.602 39.424-61.44 40.96-123.699 81.203-184.32 122.88-7.186 5.786-16.425 9.288-26.481 9.288-8.71 0-16.807-2.627-23.542-7.132l0.154 0.097c-33.28-18.227-66.867-35.84-99.635-55.603-4.332-3.621-9.961-5.82-16.105-5.82-6.894 0-13.142 2.77-17.69 7.257l0.003-0.003c-46.797 40.141-97.28 77.005-140.288 120.73-60.109 61.44-114.893 127.59-171.93 191.693-10.24 10.957-9.114 21.094-1.434 33.894 19.968 33.075 38.093 67.174 56.934 100.864 4.114 6.096 6.566 13.608 6.566 21.693 0 9.304-3.248 17.849-8.672 24.564l0.058-0.074c-41.779 61.44-81.92 122.88-122.88 184.32-13.312 20.48-24.576 24.269-42.496 9.216-42.291-35.43-82.842-72.909-122.88-110.592-5.847-6.975-10.573-15.131-13.754-24.023l-0.173-0.553z" />
<glyph unicode="&#xe916;" glyph-name="cart" horiz-adv-x="1136" d="M1094.174 770.938h-7.381q-413.665 0-827.671 0c-17.714 0-25.776 4.542-30.772 22.71q-19.417 69.493-43.263 138.191c-3.407 10.674-14.762 26.23-23.732 26.684-53.937 2.385-107.873 1.476-161.356 1.476v-50.076c39.743 0 77.555-1.249 115.254 0 19.417 0.908 26.571-6.245 32.021-24.073 38.267-125.814 79.485-250.947 116.389-376.988 23.505-79.485 58.024-155.224 51.666-241.636-4.769-63.929 26.457-91.976 90.841-91.976q275.587 0 550.948 0c8.63 0 17.373 0.908 26.003 1.476v49.962h-187.472q-197.578 0-395.27 0c-27.82 0-35.541 7.608-35.882 34.065 0 20.553 0 40.992 0 65.178h24.754c168.736 0 337.586 0 506.436 0 78.464 0 62.566-11.355 93.566 62.112 46.783 111.62 92.884 222.446 139.327 333.498 15.216 36.109 6.132 49.167-34.406 49.395zM1053.977 674.647v0l-37.812-90.841-1.022-2.612c-25.662-61.431-52.12-122.635-76.76-184.406-3.308-11.867-14.021-20.429-26.734-20.429-1.506 0-2.984 0.12-4.424 0.351l0.158-0.021q-261.961 0.795-523.809 0c-18.509 0-27.82 4.428-33.157 22.71-14.080 48.6-29.41 96.859-44.512 145.345l-5.791 18.736-32.703 104.467c-1.949 3.723-3.315 8.064-3.845 12.659l-0.016 0.173c-3.187 14.609-6.862 26.994-11.318 38.999l0.644-1.981h818.927c-6.359-14.989-10.787-30.318-17.827-43.149zM884.673 112.571c-49.277-0.125-89.242-39.812-89.818-88.969l-0.001-0.054c1.757-47.594 40.764-85.51 88.626-85.51s86.869 37.916 88.622 85.351l0.005 0.16c-0.425 48.44-39.13 87.702-87.311 89.021l-0.123 0.003zM883.651-13.924c-20.751 0.417-37.518 16.907-38.378 37.506l-0.003 0.079c0 21.009 17.031 38.039 38.039 38.039s38.039-17.031 38.039-38.039v0c-0.729-20.497-17.191-36.919-37.636-37.584l-0.062-0.002zM441.599 112.571c-0.305 0.004-0.664 0.006-1.025 0.006-48.916 0-88.57-39.654-88.57-88.57 0-0.242 0.001-0.483 0.003-0.724v0.037c0.708-48.059 39.833-86.745 87.993-86.745 48.602 0 88.002 39.4 88.002 88.002 0 48.2-38.75 87.349-86.796 87.994l-0.061 0.001zM439.782-13.924c-20.236 0.431-36.475 16.938-36.475 37.237 0 0.482 0.009 0.962 0.027 1.439l-0.002-0.069c-0.001 0.115-0.002 0.251-0.002 0.386 0 20.005 16.217 36.223 36.223 36.223 0.64 0 1.276-0.017 1.907-0.049l-0.088 0.004c20.342-0.053 36.812-16.555 36.812-36.904 0-0.439-0.008-0.877-0.023-1.312l0.002 0.063c-0.631-20.577-17.464-37.018-38.136-37.018-0.086 0-0.172 0-0.257 0.001h0.013z" />
</font>
</defs>
</svg>
