<svg xmlns="http://www.w3.org/2000/svg" width="29.333" height="26.207" viewBox="0 0 29.333 26.207">
  <path id="_001-heart" data-name="001-heart" d="M14.166,25.207a1.661,1.661,0,0,0,1.1-.412c1.145-1,2.248-1.941,3.222-2.771l0,0a59.919,59.919,0,0,0,7.034-6.6,10.546,10.546,0,0,0,2.81-6.9,8.855,8.855,0,0,0-2.248-6.048A7.619,7.619,0,0,0,20.418,0a7.127,7.127,0,0,0-4.452,1.537,9.108,9.108,0,0,0-1.8,1.879,9.109,9.109,0,0,0-1.8-1.879A7.127,7.127,0,0,0,7.915,0,7.619,7.619,0,0,0,2.247,2.467,8.855,8.855,0,0,0,0,8.515a10.544,10.544,0,0,0,2.81,6.9,59.905,59.905,0,0,0,7.034,6.6c.975.831,2.081,1.773,3.228,2.776A1.663,1.663,0,0,0,14.166,25.207ZM20.418,1.66a5.977,5.977,0,0,1,4.447,1.932,7.2,7.2,0,0,1,1.808,4.923,8.873,8.873,0,0,1-2.428,5.844,58.963,58.963,0,0,1-6.833,6.4l-.005,0c-.977.833-2.085,1.777-3.238,2.785-1.16-1.01-2.269-1.956-3.249-2.79a58.973,58.973,0,0,1-6.832-6.4A8.874,8.874,0,0,1,1.659,8.515,7.2,7.2,0,0,1,3.468,3.592,5.977,5.977,0,0,1,7.915,1.66a5.5,5.5,0,0,1,3.437,1.19,8.053,8.053,0,0,1,1.915,2.216,1.048,1.048,0,0,0,1.8,0,8.046,8.046,0,0,1,1.915-2.216A5.5,5.5,0,0,1,20.418,1.66Zm0,0" transform="translate(0.5 0.5)" stroke="#000" stroke-width="1"/>
</svg>
