<svg id="_002-instagram" data-name="002-instagram" xmlns="http://www.w3.org/2000/svg" xmlns:xlink="http://www.w3.org/1999/xlink" width="22.831" height="22.831" viewBox="0 0 22.831 22.831">
  <defs>
    <linearGradient id="linear-gradient" x1="0.5" x2="0.5" y2="1" gradientUnits="objectBoundingBox">
      <stop offset="0" stop-color="#efc64c"/>
      <stop offset="0.586" stop-color="#7c4707"/>
      <stop offset="0.772" stop-color="#e9bb42"/>
      <stop offset="1" stop-color="#efc64c"/>
    </linearGradient>
  </defs>
  <g id="Group_4" data-name="Group 4" transform="translate(0 0)">
    <g id="Group_3" data-name="Group 3">
      <path id="Path_7" data-name="Path 7" d="M15.7,0H7.135A7.135,7.135,0,0,0,0,7.135V15.7a7.135,7.135,0,0,0,7.135,7.135H15.7A7.135,7.135,0,0,0,22.831,15.7V7.135A7.135,7.135,0,0,0,15.7,0Zm4.994,15.7A5,5,0,0,1,15.7,20.69H7.135A5,5,0,0,1,2.14,15.7V7.135A5,5,0,0,1,7.135,2.14H15.7a5,5,0,0,1,4.994,4.994Z" transform="translate(0 0)" fill="url(#linear-gradient)"/>
    </g>
  </g>
  <g id="Group_6" data-name="Group 6" transform="translate(5.708 5.708)">
    <g id="Group_5" data-name="Group 5">
      <path id="Path_8" data-name="Path 8" d="M133.708,128a5.708,5.708,0,1,0,5.708,5.708A5.708,5.708,0,0,0,133.708,128Zm0,9.275a3.567,3.567,0,1,1,3.567-3.567A3.572,3.572,0,0,1,133.708,137.275Z" transform="translate(-128 -128)" fill="url(#linear-gradient)"/>
    </g>
  </g>
  <g id="Group_8" data-name="Group 8" transform="translate(16.791 4.519)">
    <g id="Group_7" data-name="Group 7">
      <ellipse id="Ellipse_1" data-name="Ellipse 1" cx="0.761" cy="0.761" rx="0.761" ry="0.761" fill="url(#linear-gradient)"/>
    </g>
  </g>
</svg>
