<svg xmlns="http://www.w3.org/2000/svg" width="35.945" height="35.945" viewBox="0 0 35.945 35.945">
  <g id="svgexport-6_14_" data-name="svgexport-6 (14)" transform="translate(0.25 0.25)">
    <g id="Group_57515" data-name="Group 57515" transform="translate(18 24.369)">
      <g id="Group_57514" data-name="Group 57514">
        <path id="Path_204819" data-name="Path 204819" d="M260.692,352a.692.692,0,1,0,.692.692A.693.693,0,0,0,260.692,352Z" transform="translate(-260 -352)" fill="#c99820" stroke="#c99820" stroke-width="0.5"/>
      </g>
    </g>
    <g id="Group_57517" data-name="Group 57517">
      <g id="Group_57516" data-name="Group 57516">
        <path id="Path_204820" data-name="Path 204820" d="M19.928,19.757c-.151-.18-.316-.361-.49-.539A13.908,13.908,0,0,1,15.23,9.558V4.036A2.077,2.077,0,0,0,14.538,0H7.615a2.077,2.077,0,0,0-.692,4.035V9.558a13.908,13.908,0,0,1-4.208,9.661c-.174.178-.339.36-.489.538a9.2,9.2,0,0,0-2.226,6c0,3.315,1.82,7.811,4.866,9.6a.693.693,0,0,0,.35.1h11.72a.693.693,0,0,0,.35-.1c3.046-1.786,4.866-6.282,4.866-9.6A9.194,9.194,0,0,0,19.928,19.757ZM7.615,1.385h6.923a.692.692,0,0,1,0,1.385H7.615a.692.692,0,0,1,0-1.385Zm.692,8.173v-5.4h5.538v5.4a15.231,15.231,0,0,0,4.441,10.459,2.741,2.741,0,0,1-.979.2,3.206,3.206,0,0,1-1.663-.555,4.6,4.6,0,0,0-2.49-.829,4.6,4.6,0,0,0-2.49.829A3.2,3.2,0,0,1,9,20.215a3.206,3.206,0,0,1-1.663-.555A4.617,4.617,0,0,0,4.9,18.831,14.9,14.9,0,0,0,8.307,9.558Zm8.435,24.5H5.411c-2.491-1.582-4.026-5.5-4.026-8.307a7.813,7.813,0,0,1,1.806-4.989,3.187,3.187,0,0,1,1.655-.549,3.206,3.206,0,0,1,1.663.555A4.6,4.6,0,0,0,9,21.6a4.6,4.6,0,0,0,2.49-.829,3.2,3.2,0,0,1,1.663-.555,3.206,3.206,0,0,1,1.663.555,4.6,4.6,0,0,0,2.49.829,4.353,4.353,0,0,0,1.922-.49,7.775,7.775,0,0,1,1.539,4.644C20.769,28.557,19.234,32.478,16.743,34.061Z" fill="#c99820" stroke="#c99820" stroke-width="0.5"/>
      </g>
    </g>
    <g id="Group_57519" data-name="Group 57519" transform="translate(15.365 27.122)">
      <g id="Group_57518" data-name="Group 57518">
        <path id="Path_204821" data-name="Path 204821" d="M225.155,391.8a.692.692,0,0,0-.847.492,8.169,8.169,0,0,1-2.131,3.825.692.692,0,1,0,.91,1.043,9.481,9.481,0,0,0,2.559-4.513A.692.692,0,0,0,225.155,391.8Z" transform="translate(-221.941 -391.777)" fill="#c99820" stroke="#c99820" stroke-width="0.5"/>
      </g>
    </g>
    <g id="Group_57521" data-name="Group 57521" transform="translate(22.984)">
      <g id="Group_57520" data-name="Group 57520">
        <path id="Path_204822" data-name="Path 204822" d="M343.63,8.657,338.83.346a.692.692,0,0,0-1.2,0l-4.8,8.311a6.231,6.231,0,1,0,10.8,0Zm-5.4,7.958a4.848,4.848,0,0,1-4.2-7.266l4.2-7.273,4.2,7.273a4.848,4.848,0,0,1-4.2,7.266Z" transform="translate(-332 0)" fill="#c99820" stroke="#c99820" stroke-width="0.5"/>
      </g>
    </g>
    <g id="Group_57523" data-name="Group 57523" transform="translate(25.753 9.696)">
      <g id="Group_57522" data-name="Group 57522">
        <path id="Path_204823" data-name="Path 204823" d="M375.461,144.208a2.078,2.078,0,0,1-1.8-3.111.692.692,0,0,0-1.2-.692,3.463,3.463,0,0,0,3,5.188.692.692,0,0,0,0-1.385Z" transform="translate(-372 -140.058)" fill="#c99820" stroke="#c99820" stroke-width="0.5"/>
      </g>
    </g>
  </g>
</svg>
