<svg xmlns="http://www.w3.org/2000/svg" width="36.187" height="36.278" viewBox="0 0 36.187 36.278">
  <g id="svgexport-6_19_" data-name="svgexport-6 (19)" transform="translate(0.25 0.329)">
    <g id="Page-1" transform="translate(0 0.029)">
      <g id="_018---Shoes" data-name="018---Shoes">
        <path id="Shape" d="M35.092,40.276V28.216a1.784,1.784,0,0,0-1.784-1.784h-.755a1.784,1.784,0,0,0-1.731,1.363A8,8,0,0,1,28.5,31.821a15.368,15.368,0,0,1-5.092-.42L24.52,28.81a1.784,1.784,0,0,0-.72-2.237l-1.2-.716a1.765,1.765,0,0,0-2.277.372c-.251.293-.564.646-.926,1.036l-1.249-.748a.595.595,0,1,0-.613,1.019l1.015.61q-.435.439-.931.909L16.365,28.3a.595.595,0,1,0-.613,1.019l.952.57q-.485.427-1.011.859l-1.107-.664a.595.595,0,1,0-.613,1.019l.718.431c-.447.336-.915.665-1.4.986l-1.087-.654a.595.595,0,1,0-.613,1.019l.571.343A20.761,20.761,0,0,1,7.35,35.374a14.9,14.9,0,0,1-3.187.573c-1.235,0-3.68.6-4.1,2.862A3.73,3.73,0,0,0,0,39.516a6.06,6.06,0,0,0,5.948,6.543h26.17a3.572,3.572,0,0,0,3.569-3.569V41.3A1.185,1.185,0,0,0,35.092,40.276Zm-3.116-12.2a.6.6,0,0,1,.576-.458h.755a.6.6,0,0,1,.595.595v7.137l-.952-.714a.6.6,0,0,1-.238-.476V33.52a1.784,1.784,0,0,0-1.661-1.78c-.267-.017-.548-.017-.845-.01a9.378,9.378,0,0,0,1.769-3.653Zm-2.844,4.9a15.852,15.852,0,0,1,1.844-.048.6.6,0,0,1,.55.595v.642a1.794,1.794,0,0,0,.714,1.427L33.9,36.84v3.271H24.545c2.362-.973,4.18-1.824,5-2.216a1.4,1.4,0,0,0-.336-2.639,10.21,10.21,0,0,1-5.164-2.484,18.954,18.954,0,0,0,5.091.2Zm-13.956.678-.762-.457c.476-.328.927-.666,1.368-1.005l1.163.7a.595.595,0,0,0,.613-1.019l-.786-.472c.347-.29.685-.58,1-.865l.955.573a.595.595,0,0,0,.613-1.019l-.666-.395q.495-.476.922-.914l.911.546a.595.595,0,0,0,.613-1.019l-.685-.411c.3-.331.571-.634.792-.892a.585.585,0,0,1,.757-.119l1.2.718a.6.6,0,0,1,.243.744l-1.374,3.212a.6.6,0,0,0,.015.5c1.523,3.039,5.339,4.071,6.9,4.372a.212.212,0,0,1,.177.218.193.193,0,0,1-.115.178c-1.117.535-4.116,1.937-7.817,3.324-.086.031-.174.059-.254.093-.535.2-1.038.374-1.516.525-.429.136-.833.256-1.221.361a9.215,9.215,0,0,0-6.678-5.138,7.418,7.418,0,0,0-1.19-.128h-.8a24.118,24.118,0,0,0,3.764-1.934l1.249.749a.595.595,0,0,0,.613-1.019ZM1.233,39.03c.344-1.858,2.826-1.893,2.968-1.893.306-.019.614-.049.924-.088h5.229a6.364,6.364,0,0,1,.98.109,8.012,8.012,0,0,1,5.694,4.261,18.883,18.883,0,0,1-4.537.476H8.327c-2.359,0-6.051-2.073-7.119-2.7.007-.055.015-.109.025-.162ZM34.5,42.49a2.379,2.379,0,0,1-2.379,2.379H5.948A4.744,4.744,0,0,1,1.267,40.6c1.591.89,4.766,2.487,7.059,2.487H12.49A21.813,21.813,0,0,0,19.8,41.9c.5-.157,1.016-.338,1.573-.544l.007,0,.136-.048H34.5Z" transform="translate(0 -10.39)" fill="#c99820" stroke="#c99820" stroke-width="0.5"/>
        <path id="Shape-2" data-name="Shape" d="M44.595,55.19h5.948a.595.595,0,0,0,0-1.19H44.595a.595.595,0,0,0,0,1.19Z" transform="translate(-17.83 -21.9)" fill="#c99820" stroke="#c99820" stroke-width="0.5"/>
        <path id="Shape-3" data-name="Shape" d="M43.495,24.849a.591.591,0,0,0,.421-.174L47.2,21.394a.595.595,0,1,0-.841-.841l-3.281,3.281a.595.595,0,0,0,.421,1.015Z" transform="translate(-17.384 -8.273)" fill="#c99820" stroke="#c99820" stroke-width="0.5"/>
        <path id="Shape-4" data-name="Shape" d="M11.393,19.3a.595.595,0,0,0,.144,1.172.6.6,0,0,0,.145-.017l.629-.158a22.938,22.938,0,0,1-.773,2.531.595.595,0,1,0,1.112.423,24.439,24.439,0,0,0,.97-3.281l1.427-.357a.595.595,0,0,0-.288-1.154l-.874.218c.1-.545.187-1.1.259-1.677l1.324-.331a.595.595,0,0,0-.288-1.154l-.9.224c.039-.424.07-.865.1-1.321l1.09-.272a.595.595,0,0,0-.288-1.154l-.755.189q.015-.672.008-1.3l1.035-.259a.595.595,0,1,0-.288-1.154l-.773.194c-.018-.435-.042-.84-.072-1.19a.6.6,0,0,1,.45-.623l1.352-.338a.6.6,0,0,1,.7.357l1.3,3.242a.6.6,0,0,0,.365.343c3.23,1.071,6.655-.892,7.98-1.791a.2.2,0,0,1,.268.035.2.2,0,0,1,.044.209c-.166.476-.462,1.289-.863,2.347a.595.595,0,1,0,1.112.422c.407-1.071.706-1.9.871-2.368a1.4,1.4,0,0,0-2.1-1.631A10.211,10.211,0,0,1,20.4,11.572,19,19,0,0,0,24.15,8.113a15.569,15.569,0,0,1,1.267-1.336.6.6,0,0,1,.808.03l.455.455a1.791,1.791,0,0,0,1.513.5l2.061-.3,2.314,2.313-4.235,4.235a.595.595,0,0,0,.841.841L33.828,10.2l.845.845a2.379,2.379,0,0,1,0,3.364l-4.627,4.627a.595.595,0,1,0,.841.841l4.627-4.627a3.569,3.569,0,0,0,0-5.046l-.844-.844a1.207,1.207,0,0,0-1.138-.3l-.123-.123L24.993.533a1.832,1.832,0,0,0-2.523,0l-.535.535a1.784,1.784,0,0,0-.261,2.188,8,8,0,0,1,1.211,4.485,15.371,15.371,0,0,1-3.9,3.3l-1.05-2.612a1.784,1.784,0,0,0-2.091-1.077L14.488,7.7a1.78,1.78,0,0,0-1.345,1.877c.034.4.059.872.079,1.385l-1.412.354a.595.595,0,0,0,.144,1.172.576.576,0,0,0,.145-.018l1.142-.285q0,.63-.017,1.3l-1.413.353a.595.595,0,0,0,.144,1.172.576.576,0,0,0,.145-.018l1.065-.266q-.043.684-.111,1.325l-1.243.31a.595.595,0,0,0,.144,1.172.605.605,0,0,0,.145-.018l.8-.2c-.081.579-.178,1.141-.287,1.684ZM22.694,2.64a.6.6,0,0,1,.084-.731l.535-.535a.612.612,0,0,1,.841,0L29.2,6.42l-1.178.168a.6.6,0,0,1-.5-.168l-.455-.455a1.784,1.784,0,0,0-2.433-.083c-.2.178-.4.376-.6.591A9.364,9.364,0,0,0,22.694,2.64Z" transform="translate(-4.434 -0.029)" fill="#c99820" stroke="#c99820" stroke-width="0.5"/>
      </g>
    </g>
  </g>
</svg>
