<svg xmlns="http://www.w3.org/2000/svg" width="36.487" height="36.487" viewBox="0 0 36.487 36.487">
  <g id="svgexport-6_16_" data-name="svgexport-6 (16)" transform="translate(0.25 0.25)">
    <g id="Group_57512" data-name="Group 57512">
      <g id="Group_57511" data-name="Group 57511">
        <path id="Path_204814" data-name="Path 204814" d="M34.534,10.994a3.828,3.828,0,0,0-3.19-1.707h-.329l-5.476,9.126V12.77A12.77,12.77,0,1,0,0,12.77V27.281a1.743,1.743,0,0,0,1.741,1.741h9.183A16.412,16.412,0,0,1,6.88,30.51a2.1,2.1,0,0,0-1.656,2.064,2.126,2.126,0,0,0,.423,1.268,5.387,5.387,0,0,0,4.289,2.145h9.676a4.055,4.055,0,0,0,3.38-1.809,20.811,20.811,0,0,0,2.164-4.223L25.514,29a19.627,19.627,0,0,1,1.334-2.84l1.2-2.1a.522.522,0,0,1,.975.259V35.987H32.5V30.871a23.994,23.994,0,0,1,.466-4.7l.039-.2a23.957,23.957,0,0,1,2.064-6.015,8.69,8.69,0,0,0,.914-3.869v-.294A8.627,8.627,0,0,0,34.534,10.994ZM12.77,1.161A11.622,11.622,0,0,1,24.378,12.77H23.218a10.448,10.448,0,1,0-20.9,0H1.161A11.622,11.622,0,0,1,12.77,1.161ZM22.057,12.77H3.483a9.287,9.287,0,1,1,18.574,0Zm-20.9,1.161H24.378v4.191l-8.126,2.032v-2.74H9.287v2.74L1.161,18.121Zm9.287,5.8V18.574h4.644v1.161ZM15.091,20.9v1.741a.581.581,0,0,1-.58.58H11.028a.581.581,0,0,1-.58-.58V20.9ZM1.741,27.861a.581.581,0,0,1-.58-.58V19.317l8.126,2.032v1.289a1.743,1.743,0,0,0,1.741,1.741h3.483a1.743,1.743,0,0,0,1.741-1.741V21.349l8.126-2.032v1h.02l-.866,1.443a21.4,21.4,0,0,1-3.22,4.123,4.744,4.744,0,0,1-3.376,1.4,4.805,4.805,0,0,1-2.131-.5l-.371-.189-.612.508c-.338.282-.692.545-1.052.8v-.036Zm26.943-5.205a1.619,1.619,0,0,0-.184-.019,1.688,1.688,0,0,0-1.461.847l-1.2,2.1a20.743,20.743,0,0,0-1.413,3.008l-.357.953c-.167.446-.356.883-.555,1.315l-.006-.011a14.612,14.612,0,0,1-7.762,2.234h-5.3v1.161h5.3a15.536,15.536,0,0,0,6.813-1.561c-.171.287-.347.571-.532.849a2.9,2.9,0,0,1-2.415,1.293H9.937a4.207,4.207,0,0,1-2.113-.58H9.287V33.085H6.544a.938.938,0,0,1,.587-1.441,17.642,17.642,0,0,0,7.434-3.653l.034-.028a5.974,5.974,0,0,0,2.337.479,5.9,5.9,0,0,0,4.2-1.738,22.6,22.6,0,0,0,3.394-4.347l7.134-11.889a2.667,2.667,0,0,1,1.907,1.172,7.473,7.473,0,0,1,1.144,2.873A54.043,54.043,0,0,0,28.685,22.656Zm5.351-3.217a25.134,25.134,0,0,0-2.164,6.308l-.039.2a25.167,25.167,0,0,0-.488,4.926v3.956H30.183V24.319a1.671,1.671,0,0,0-.454-1.142,52.91,52.91,0,0,1,5.094-7.019A7.532,7.532,0,0,1,34.035,19.438Z" fill="#c99820" stroke="#c99820" stroke-width="0.5"/>
      </g>
    </g>
  </g>
</svg>
