<svg xmlns="http://www.w3.org/2000/svg" width="23.641" height="36.82" viewBox="0 0 23.641 36.82">
  <g id="svgexport-6_13_" data-name="svgexport-6 (13)" transform="translate(-93.539 0.25)">
    <g id="Group_57526" data-name="Group 57526" transform="translate(93.832 0)">
      <g id="Group_57525" data-name="Group 57525" transform="translate(0 0)">
        <g id="Group_57524" data-name="Group 57524">
          <path id="Path_204824" data-name="Path 204824" d="M115.3,16.438h0a7.549,7.549,0,0,0-4.726-1.9V11.5a1.2,1.2,0,0,0-.449-.933l3.125-4.826.835-1.117a.6.6,0,0,0,.114-.358c0-.011.006-.02.006-.031l0-.009c0-.015-.007-.029-.009-.044a.591.591,0,0,0-.243-.426L110.4.179A.6.6,0,0,0,109.967,0H102.7a.6.6,0,0,0-.429.179L98.719,3.758a.591.591,0,0,0-.243.426c0,.015-.008.029-.009.044l0,.009c0,.011.006.02.006.031a.6.6,0,0,0,.114.358L99.4,5.709l3.148,4.859a1.2,1.2,0,0,0-.449.933v3.04a7.549,7.549,0,0,0-6.848,10.021l3.083,8.907a4.239,4.239,0,0,0,4,2.851h8a4.239,4.239,0,0,0,4-2.851l3.083-8.907A7.539,7.539,0,0,0,115.3,16.438ZM112.255,5.051l-3.4,5.24h-1.586l2.477-5.448h2.659ZM109.361,11.5v3.027h-6.053V11.5Zm.353-10.291,2.407,2.421h-2.386l-1.211-2.421h1.19Zm-4.217,0h1.673l1.211,2.421h-4.094Zm2.923,3.632-2.087,4.59-2.087-4.59h4.173Zm-5.467-3.632h1.19l-1.211,2.421h-2.387ZM100.39,5.017l-.13-.174h2.658l2.477,5.448h-1.586Zm12.8,28.056a3.029,3.029,0,0,1-2.86,2.037h-8a3.029,3.029,0,0,1-2.86-2.036l-.94-2.717a8.756,8.756,0,0,1,8.158-.517,15.9,15.9,0,0,0,6.454,1.31c.249,0,.485-.008.716-.017Zm3.083-8.907-1.983,5.73a15.05,15.05,0,0,1-7.107-1.163,9.921,9.921,0,0,0-9.053.458l-1.739-5.024a6.351,6.351,0,0,1,6-8.428h7.879a6.351,6.351,0,0,1,6,8.428Z" transform="translate(-94.832 0)" fill="#c99820" stroke="#c99820" stroke-width="0.5"/>
          <path id="Path_204825" data-name="Path 204825" d="M345.081,286.7a.605.605,0,0,0-.746.738,3.925,3.925,0,0,1-.091,2.278l-1.541,4.453a.605.605,0,1,0,1.144.4l1.541-4.453a5.125,5.125,0,0,0,.118-2.981A.605.605,0,0,0,345.081,286.7Z" transform="translate(-325.088 -266.341)" fill="#c99820" stroke="#c99820" stroke-width="0.5"/>
          <path id="Path_204826" data-name="Path 204826" d="M307.8,241.26a.605.605,0,0,0,.211-1.028,5.137,5.137,0,0,0-3.415-1.3.605.605,0,1,0,0,1.211,3.924,3.924,0,0,1,2.61.993A.605.605,0,0,0,307.8,241.26Z" transform="translate(-289.153 -221.983)" fill="#c99820" stroke="#c99820" stroke-width="0.5"/>
        </g>
      </g>
    </g>
  </g>
</svg>
