<svg xmlns="http://www.w3.org/2000/svg" width="25.922" height="25.922" viewBox="0 0 25.922 25.922">
  <g id="discount_copy" data-name="discount copy" transform="translate(0 0)">
    <path id="Path_204805" data-name="Path 204805" d="M175.8,124.871l3.58-10.74a.759.759,0,0,0-1.441-.48l-3.58,10.74a.759.759,0,1,0,1.441.48Z" transform="translate(-165.496 -107.403)" fill="#fff"/>
    <path id="Path_204806" data-name="Path 204806" d="M266.811,193.76a2.278,2.278,0,1,0-2.278-2.278A2.281,2.281,0,0,0,266.811,193.76Zm0-3.038a.759.759,0,1,1-.759.759A.76.76,0,0,1,266.811,190.722Z" transform="translate(-251.14 -179.624)" fill="#fff"/>
    <path id="Path_204807" data-name="Path 204807" d="M97.105,189.2a2.278,2.278,0,1,0,2.278,2.278A2.281,2.281,0,0,0,97.105,189.2Zm0,3.038a.759.759,0,1,1,.759-.759A.76.76,0,0,1,97.105,192.241Z" transform="translate(-90.026 -179.624)" fill="#fff"/>
    <path id="Path_204808" data-name="Path 204808" d="M25.77,9.417,23.122,5.886l.1-.723a.759.759,0,0,0-.215-.644L21.4,2.908,23.011,1.3A.759.759,0,1,0,21.937.223L20.326,1.834,18.715.223A.76.76,0,0,0,18.07.008L10.552,1.082a.759.759,0,0,0-.43.215L.814,10.6a2.788,2.788,0,0,0,0,3.938l7.876,7.876a2.778,2.778,0,0,0,.524.411v.308A2.788,2.788,0,0,0,12,25.922H23.138a2.788,2.788,0,0,0,2.785-2.785V9.873a.76.76,0,0,0-.152-.456ZM1.888,13.469a1.267,1.267,0,0,1,0-1.79L11.018,2.55l6.892-.984,1.343,1.343L18.178,3.982l-.537-.537a.759.759,0,0,0-1.074,1.074l2.148,2.148a.759.759,0,1,0,1.074-1.074l-.537-.537,1.074-1.074,1.343,1.343-.985,6.892-9.129,9.129a1.266,1.266,0,0,1-1.79,0ZM24.4,23.138A1.267,1.267,0,0,1,23.138,24.4H12a1.267,1.267,0,0,1-1.262-1.172,2.774,2.774,0,0,0,1.891-.812l9.308-9.308a.759.759,0,0,0,.215-.43l.667-4.669L24.4,10.126Z" transform="translate(0)" fill="#fff"/>
  </g>
</svg>
