<svg xmlns="http://www.w3.org/2000/svg" width="9.858" height="9.809" viewBox="0 0 9.858 9.809">
  <g id="edit" transform="translate(0 -0.261)">
    <path id="Path_204319" data-name="Path 204319" d="M9.1,44.372a.246.246,0,0,0-.246.246V46.8a.737.737,0,0,1-.737.737H1.228A.737.737,0,0,1,.491,46.8V40.4a.737.737,0,0,1,.737-.737h2.18a.246.246,0,0,0,0-.491H1.228A1.229,1.229,0,0,0,0,40.4v6.4a1.229,1.229,0,0,0,1.228,1.228H8.117A1.229,1.229,0,0,0,9.344,46.8v-2.18A.246.246,0,0,0,9.1,44.372Zm0,0" transform="translate(0 -37.956)"/>
    <path id="Path_204320" data-name="Path 204320" d="M114.78.584a1.1,1.1,0,0,0-1.562,0l-4.38,4.38a.246.246,0,0,0-.063.108l-.576,2.08a.245.245,0,0,0,.3.3l2.08-.576a.245.245,0,0,0,.108-.063l4.38-4.38a1.106,1.106,0,0,0,0-1.562Zm-5.408,4.54,3.585-3.585L114.114,2.7,110.529,6.28Zm-.231.463.924.924-1.278.354Zm5.58-3.5-.26.26L113.3,1.192l.26-.26a.614.614,0,0,1,.868,0l.288.288A.615.615,0,0,1,114.721,2.088Zm0,0" transform="translate(-105.534)"/>
  </g>
</svg>
