<svg xmlns="http://www.w3.org/2000/svg" xmlns:xlink="http://www.w3.org/1999/xlink" width="87.618" height="88.851" viewBox="0 0 87.618 88.851">
  <defs>
    <linearGradient id="linear-gradient" x1="0.286" y1="0.946" x2="0.673" y2="0.001" gradientUnits="objectBoundingBox">
      <stop offset="0.168" stop-color="#a4b3bd"/>
      <stop offset="0.731" stop-color="#eef1f3"/>
      <stop offset="0.85" stop-color="#fff"/>
    </linearGradient>
    <linearGradient id="linear-gradient-2" x1="0.289" y1="0.953" x2="0.711" y2="0.047" gradientUnits="objectBoundingBox">
      <stop offset="0" stop-color="#fdfdfd"/>
      <stop offset="0.301" stop-color="#f4f4f4"/>
      <stop offset="0.786" stop-color="#dcdcdc"/>
      <stop offset="1" stop-color="#d0d0d0"/>
    </linearGradient>
    <radialGradient id="radial-gradient" cx="0.398" cy="0.702" r="0.62" gradientTransform="translate(-0.223) scale(1.446 1)" gradientUnits="objectBoundingBox">
      <stop offset="0" stop-color="#cb765c"/>
      <stop offset="0.246" stop-color="#c76b4f"/>
      <stop offset="0.606" stop-color="#c46244"/>
      <stop offset="1" stop-color="#c35f41"/>
    </radialGradient>
    <radialGradient id="radial-gradient-2" cx="0.398" cy="0.702" r="0.659" gradientTransform="translate(-0.16) scale(1.32 1)" xlink:href="#radial-gradient"/>
  </defs>
  <g id="Group_57574" data-name="Group 57574" transform="translate(-316.457 -81.481)">
    <g id="Group_4" data-name="Group 4" transform="translate(316.457 81.481)">
      <ellipse id="Ellipse_337" data-name="Ellipse 337" cx="43.168" cy="42.532" rx="43.168" ry="42.532" transform="translate(0 86.296) rotate(-88.279)" fill="url(#linear-gradient)"/>
      <circle id="Ellipse_338" data-name="Ellipse 338" cx="41.737" cy="41.737" r="41.737" transform="translate(2.029 2.753)" fill="url(#linear-gradient-2)"/>
    </g>
    <g id="Group_7" data-name="Group 7" transform="translate(339.183 105.515)">
      <path id="Path_4" data-name="Path 4" d="M420.7,182.562s-4.15-4.732-8.979-10.137a3.923,3.923,0,0,1-.027-5.172c5-5.718,9.006-10.335,9.006-10.335l.091-.1a5.253,5.253,0,0,0,.282-6.72,4.969,4.969,0,0,0-7.084-.865s-4.615,4.18-10.143,9.193a3.711,3.711,0,0,1-5.132-.124c-5.679-5.634-13.705-12.279-17.378-8.522-5.025,5.141,1.328,10.8,7.937,15.5,2.006,1.425,3.828,4.734,2,6.395-2.467,2.247-5,5.053-5.179,5.232-4.713,4.822-7.724,9.514-4.761,12.791,3.639,4.025,10.1-.558,13.219-3.936,1.276-1.383,3-3.3,5.223-5.813,1.523-1.723,4.576-1.276,6.05.491,3.958,4.744,8.161,9.807,8.161,9.807a4.969,4.969,0,0,0,7.084-.865,5.253,5.253,0,0,0-.282-6.72Z" transform="translate(-379.165 -147.762)" fill="#fff"/>
      <path id="Path_5" data-name="Path 5" d="M419.7,180.784s-4.15-4.625-8.979-9.908a3.77,3.77,0,0,1-.027-5.056c5-5.589,9.006-10.1,9.006-10.1l.091-.1a5.045,5.045,0,0,0-6.8-7.414s-4.615,4.086-10.144,8.986a3.774,3.774,0,0,1-5.131-.121c-5.679-5.507-13.705-12-17.378-8.329-5.025,5.025,1.328,10.558,7.937,15.148,2.006,1.393,3.828,4.627,2,6.251-2.467,2.2-5,4.938-5.179,5.114-4.713,4.713-7.724,9.3-4.761,12.5,3.639,3.934,10.1-.545,13.219-3.847,1.276-1.352,3-3.228,5.223-5.682,1.523-1.684,4.576-1.247,6.05.479,3.958,4.638,8.161,9.586,8.161,9.586a5.046,5.046,0,0,0,6.8-7.414Z" transform="translate(-378.531 -147.128)" fill="#e82629"/>
      <g id="Group_6" data-name="Group 6" transform="translate(0.001)">
        <path id="Path_6" data-name="Path 6" d="M386.566,215.157c.176-.176,2.712-2.918,5.179-5.114.969-.863.909-2.18.339-3.435a2.171,2.171,0,0,1-.7,1.238c-2.467,2.2-5,4.938-5.179,5.114-4.167,4.167-7,8.235-5.553,11.336C380.887,221.583,383.323,218.4,386.566,215.157Z" transform="translate(-379.63 -184.832)" fill="url(#radial-gradient)"/>
        <path id="Path_7" data-name="Path 7" d="M474.377,220.434s-4.15-4.625-8.979-9.908a3.762,3.762,0,0,1-.584-.848,3.761,3.761,0,0,0,.95,3.044c4.829,5.283,8.979,9.908,8.979,9.908l.091.1a5.011,5.011,0,0,1,.985,1.537,5.04,5.04,0,0,0-1.351-3.734Z" transform="translate(-433.204 -186.777)" fill="url(#radial-gradient-2)"/>
        <path id="Path_8" data-name="Path 8" d="M380.707,150.94c3.672-3.673,11.7,5.019,17.378,10.526a3.774,3.774,0,0,0,5.131.121A82.254,82.254,0,0,0,413.36,150.4a5.047,5.047,0,0,1,7.789,2.053,5.043,5.043,0,0,0-8.155-4.25s-4.615,4.086-10.143,8.986a3.774,3.774,0,0,1-5.131-.121c-5.678-5.507-13.705-12-17.378-8.329a5.109,5.109,0,0,0-1.43,5.814A5.5,5.5,0,0,1,380.707,150.94Z" transform="translate(-378.533 -147.128)" fill="#e0e0e0" style="mix-blend-mode: multiply;isolation: isolate"/>
      </g>
    </g>
  </g>
</svg>
