<svg xmlns="http://www.w3.org/2000/svg" width="100.492" height="138.068" viewBox="0 0 100.492 138.068">
  <g id="Group_57535" data-name="Group 57535" transform="translate(-97.427 -150.021)">
    <g id="Group_4" data-name="Group 4" transform="translate(97.427 150.021)">
      <g id="Group_3" data-name="Group 3" transform="translate(0 0)">
        <g id="Group_2" data-name="Group 2">
          <path id="Path_1" data-name="Path 1" d="M108.489,455.495H204.4V392.214a13,13,0,0,0-12.954-12.963H123.123a14.683,14.683,0,0,0-14.634,14.643Zm14.634-78.528h68.319a15.29,15.29,0,0,1,15.247,15.247v65.573H106.2V393.893a16.973,16.973,0,0,1,16.926-16.926Z" transform="translate(-106.197 -319.719)" fill="#fff" fill-rule="evenodd"/>
          <path id="Path_2" data-name="Path 2" d="M128.959,405.313l68.621-.071c8.014,0,13.212,6.042,13.212,13.417v1.022c0-7.384-5.2-13.426-13.212-13.417l-68.621.062c-8.885.009-14.127,6.637-14.127,14.829v-1.013c0-8.192,5.242-14.821,14.127-14.83Z" transform="translate(-112.566 -340.575)" fill="#fff" fill-rule="evenodd"/>
          <path id="Path_4" data-name="Path 4" d="M228.8,310.393H262.72a1.989,1.989,0,0,1,1.982,1.982h0a1.983,1.983,0,0,1-1.982,1.981H228.8a1.983,1.983,0,0,1-1.982-1.981h0a1.989,1.989,0,0,1,1.982-1.982Z" transform="translate(-195.166 -270.614)" fill="#fff" fill-rule="evenodd"/>
          <path id="Path_5" data-name="Path 5" d="M263.912,343.883h15.5a1.983,1.983,0,0,1,1.981,1.982h0a1.989,1.989,0,0,1-1.981,1.981h-15.5a1.989,1.989,0,0,1-1.981-1.981h0a1.983,1.983,0,0,1,1.981-1.982Z" transform="translate(-221.068 -295.316)" fill="#fff" fill-rule="evenodd"/>
          <path id="Path_6" data-name="Path 6" d="M251.921,158.79c-6.424,12.466-5.491,24.443,1.981,35.994-6.291-2.55-11.906-6.22-12.661-17.993.178-11.213,4.976-15.309,10.68-18Z" transform="translate(-205.807 -158.79)" fill="#fff" fill-rule="evenodd"/>
          <path id="Path_7" data-name="Path 7" d="M301.662,236.083c-1.235-4.638-2.781-9.241-1.635-14.118.844-2.621,2.684-3.7,5.589-3.1,2.577.9,3.11,3.3,2.239,6.717,2.781-1.084,5.34-9.267-3.7-10.68-4.389-.018-7.615,1.679-8.095,7.41a18.674,18.674,0,0,0,5.6,13.772Z" transform="translate(-246.244 -200.178)" fill="#fff" fill-rule="evenodd"/>
          <path id="Path_8" data-name="Path 8" d="M161.539,421.151h29.5l5.376,5.749H161.539v3.767h19.6v15.647H122.417V431.049h4.718v9.614h20.072V426.242H128.166v-5.66h24.7v20.081h23.279V436.14H156.163V421.053h5.376Z" transform="translate(-118.161 -351.89)" fill="#fff" fill-rule="evenodd"/>
          <path id="Path_9" data-name="Path 9" d="M360.945,468.283H368.2v-11.4h5.651v16.775h-12.91Z" transform="translate(-294.101 -378.666)" fill="#fff" fill-rule="evenodd"/>
          <path id="Path_10" data-name="Path 10" d="M207.378,481.566h5.4v20.445h13.061V495.7H215.757v-5.136h15.664v11.444h3.421V490.478h13.141v11.533h3.652V464.062l5.091,5.18,2.541,2.736,5.091,4.994v30.352h-5.091V478.11l-2.541-1.688v30.9H207.378V487.146H190.007v-5.58ZM239.613,495.7h3.243v4.86h-3.243Z" transform="translate(-168.016 -383.961)" fill="#fff" fill-rule="evenodd"/>
          <rect id="Rectangle_2" data-name="Rectangle 2" width="5.225" height="5.767" transform="translate(52.69 97.516)" fill="#fff"/>
          <rect id="Rectangle_3" data-name="Rectangle 3" width="5.225" height="5.767" transform="translate(16.775 78.675)" fill="#fff"/>
          <rect id="Rectangle_4" data-name="Rectangle 4" width="5.225" height="5.767" transform="translate(70.602 97.516)" fill="#fff"/>
          <rect id="Rectangle_5" data-name="Rectangle 5" width="14.128" height="5.402" transform="translate(4.256 97.694)" fill="#fff"/>
          <path id="Path_11" data-name="Path 11" d="M141.811,564.4h14.225v17.015H124.787V564.4h13.506v11.435h3.518Zm-11.888,5.4h2.968v6.122h-2.968Zm17.193,0h2.977v6.122h-2.977Z" transform="translate(-119.909 -457.969)" fill="#fff" fill-rule="evenodd"/>
          <g id="Group_1" data-name="Group 1" transform="translate(6.061 125.334)">
            <path id="Path_12" data-name="Path 12" d="M129.3,636.452h1.735a13.241,13.241,0,0,1,2.349.134,1.616,1.616,0,0,1,1,.684,3.106,3.106,0,0,1,.387,1.755,2.745,2.745,0,0,1-.274,1.479,1.437,1.437,0,0,1-1.077.454,1.842,1.842,0,0,1,.978.483,1.447,1.447,0,0,1,.312.556,8.76,8.76,0,0,1,.061,1.395v2.486h-2.277v-3.132a2.156,2.156,0,0,0-.119-.937q-.119-.181-.626-.18v4.25H129.3Zm2.451,1.613v2.1a1.078,1.078,0,0,0,.579-.114q.166-.113.166-.737v-.518a.785.785,0,0,0-.16-.588A.91.91,0,0,0,131.748,638.065Z" transform="translate(-129.297 -636.452)" fill="#fff"/>
            <path id="Path_13" data-name="Path 13" d="M159.245,636.452v6.3a10.94,10.94,0,0,1-.07,1.505,2.042,2.042,0,0,1-.414.891,2.141,2.141,0,0,1-.905.693,3.406,3.406,0,0,1-1.325.236,3.726,3.726,0,0,1-1.49-.28,2.238,2.238,0,0,1-.966-.728,2.016,2.016,0,0,1-.379-.946q-.058-.5-.058-2.093v-5.578h2.451v7.068a2.789,2.789,0,0,0,.067.789.262.262,0,0,0,.271.171.283.283,0,0,0,.3-.189,3.523,3.523,0,0,0,.067-.894v-6.946Z" transform="translate(-147.251 -636.452)" fill="#fff"/>
            <path id="Path_14" data-name="Path 14" d="M184.466,636.452l-1.406,4.256,1.54,5.17h-2.533l-.993-4.041v4.041h-2.451v-9.426h2.451v3.662l1.092-3.662Z" transform="translate(-165.681 -636.452)" fill="#fff"/>
            <path id="Path_15" data-name="Path 15" d="M208.482,636.452v9.426h-2.148l-1.275-4.285v4.285h-2.049v-9.426h2.049l1.374,4.244v-4.244Z" transform="translate(-183.668 -636.452)" fill="#fff"/>
            <path id="Path_16" data-name="Path 16" d="M238.3,636.452l1.4,9.426h-2.5l-.132-1.694h-.877l-.148,1.694h-2.534l1.251-9.426Zm-1.3,6.061q-.186-1.6-.373-3.959-.375,2.707-.47,3.959Z" transform="translate(-206.164 -636.452)" fill="#fff"/>
            <path id="Path_17" data-name="Path 17" d="M261.155,636.452v7.54h1.49v1.886H258.7v-9.426Z" transform="translate(-224.749 -636.452)" fill="#fff"/>
            <path id="Path_18" data-name="Path 18" d="M275.99,636.452h4.151v1.886h-1.7v1.788h1.514v1.793h-1.514v3.959H275.99Z" transform="translate(-237.499 -636.452)" fill="#fff"/>
            <path id="Path_19" data-name="Path 19" d="M295.837,636.452l1.4,9.426h-2.5l-.132-1.694h-.877l-.147,1.694h-2.534l1.251-9.426Zm-1.3,6.061q-.185-1.6-.373-3.959-.374,2.707-.47,3.959Z" transform="translate(-248.603 -636.452)" fill="#fff"/>
            <path id="Path_20" data-name="Path 20" d="M322.082,636.452l-1.406,4.256,1.54,5.17h-2.533l-.993-4.041v4.041H316.24v-9.426h2.451v3.662l1.092-3.662Z" transform="translate(-267.188 -636.452)" fill="#fff"/>
            <path id="Path_21" data-name="Path 21" d="M346.263,636.452v9.426h-2.451v-3.959h-.734v3.959h-2.451v-9.426h2.451v3.371h.734v-3.371Z" transform="translate(-285.176 -636.452)" fill="#fff"/>
            <path id="Path_22" data-name="Path 22" d="M368.528,636.452l1.4,9.426h-2.5l-.131-1.694h-.877l-.148,1.694h-2.534l1.251-9.426Zm-1.3,6.061q-.186-1.6-.373-3.959-.374,2.707-.471,3.959Z" transform="translate(-302.22 -636.452)" fill="#fff"/>
            <path id="Path_23" data-name="Path 23" d="M396.5,636.452v9.426h-2.142l0-6.364-.853,6.364h-1.52l-.9-6.218,0,6.218h-2.143v-9.426H392.1q.141.85.291,2l.348,2.4.563-4.4Z" transform="translate(-320.806 -636.452)" fill="#fff"/>
            <path id="Path_24" data-name="Path 24" d="M424.18,636.452l1.4,9.426h-2.5l-.132-1.694h-.877l-.148,1.694h-2.534l1.251-9.426Zm-1.3,6.061q-.186-1.6-.373-3.959-.375,2.707-.47,3.959Z" transform="translate(-343.27 -636.452)" fill="#fff"/>
            <path id="Path_25" data-name="Path 25" d="M450.219,636.452v9.426h-2.451v-3.959h-.734v3.959h-2.451v-9.426h2.451v3.371h.734v-3.371Z" transform="translate(-361.855 -636.452)" fill="#fff"/>
          </g>
        </g>
      </g>
    </g>
    <g id="Group_5" data-name="Group 5" transform="translate(179.838 218.199)">
      <path id="Path_26" data-name="Path 26" d="M423.193,427.626c-.619.008-1.246.023-1.865.03-.431.06-.536-.355-.151-.461a1.32,1.32,0,0,0,1.224-.921q.691-2.787,1.374-5.573c-.045-.159-.1-.325-.151-.483.31-.045.612-.083.921-.129.159.129.325.249.491.37-.227.823-.453,1.654-.68,2.477,1.586.008,2.771-.446,2.756-2.266-.211-1.948-2.265-1.661-3.919-1-2.077,1.072-3.172,2.983-1.745,4.531.861.446.151,1.208-.43.672-1.057-1.057-.838-2.3-.272-3.587a5.119,5.119,0,0,1,2.764-2.205,5,5,0,0,1,3-.363c1.072.2,1.8.717,1.865,1.865a1.983,1.983,0,0,1-1.042,2.024,3.661,3.661,0,0,0-2.454,1.1c-.06-.091-.121-.189-.181-.279-.242-.234-.385-.158-.461.159-.294,1.148-.589,2.3-.883,3.459.513.453.529.68-.159.581Zm1.775-.151a2.753,2.753,0,0,1,.491-3.066,3.382,3.382,0,0,1,2.054-1.012c.446-.1.536.045.43.34l-.7,2.877c.174.347.34.695.513,1.042.091.128.189.083.31-.181.06-.128.121-.249.181-.37.635.008.914.015,1.548.023.3.083.513.068.415.408.015.431.257.423.363.061.106-.393.211-.778.31-1.163-.045-.468-.159-.634-.4-.159-.06.1-.121.189-.181.279-.687-.045-1.306.076-1.994.038.279-1,.491-2.16.77-3.164h2.447c.574.121.438.529.43.891-.143.5.31.514.37.121.09-.544.181-1.08.272-1.624-1.661,0-3.179,0-4.841.121a3.909,3.909,0,0,0-3.7,3.217,3.119,3.119,0,0,0,.211,1.873c.37.581,1.14.295.7-.551Zm1.019-2.907a9.584,9.584,0,0,0,2.386,4.523c.717.4,1.374.461,1.8-.514.415-.823,1.276-.559.612.612a1.68,1.68,0,0,1-1.85.672,3.1,3.1,0,0,1-1.9-1.14,6.267,6.267,0,0,1-1.729-3.353c.226-.264.453-.536.68-.8Zm.544,4.554c.295.242.6.476.891.71-.121.43-.249.853-.37,1.284l1.284.091c.408-.015.43.476-.091.461a10.174,10.174,0,0,0-3,.06c-.612-.015-.589-.483-.242-.521a1.109,1.109,0,0,0,.944-.581c.2-.5.393-1,.581-1.5Z" transform="translate(-420.273 -418.625)" fill="#fff" fill-rule="evenodd"/>
    </g>
  </g>
</svg>
