<svg xmlns="http://www.w3.org/2000/svg" width="13.924" height="10.714" viewBox="0 0 13.924 10.714">
  <g id="logout" transform="translate(0.35 0.35)">
    <g id="Group_41319" data-name="Group 41319" transform="translate(0 0)">
      <path id="Path_203999" data-name="Path 203999" d="M0,60.62v6.674a1.673,1.673,0,0,0,1.67,1.67H7.064a1.673,1.673,0,0,0,1.67-1.67V66.213a.331.331,0,1,0-.661,0v1.081A1.013,1.013,0,0,1,7.061,68.3H1.67A1.013,1.013,0,0,1,.659,67.294V60.62A1.013,1.013,0,0,1,1.67,59.609H7.064A1.013,1.013,0,0,1,8.075,60.62V61.7a.331.331,0,1,0,.661,0V60.62a1.673,1.673,0,0,0-1.67-1.67H1.67A1.671,1.671,0,0,0,0,60.62Z" transform="translate(0 -58.95)" fill="#c99820" stroke="#c99820" stroke-width="0.7"/>
      <path id="Path_204000" data-name="Path 204000" d="M211.116,154.024a.331.331,0,0,0,.468,0l2.256-2.256a.328.328,0,0,0,0-.465l-2.256-2.256a.329.329,0,0,0-.465.465l1.694,1.694h-6.182a.331.331,0,0,0,0,.661h6.179l-1.694,1.694A.325.325,0,0,0,211.116,154.024Z" transform="translate(-200.753 -146.53)" fill="#c99820" stroke="#c99820" stroke-width="0.7"/>
    </g>
  </g>
</svg>
