<svg xmlns="http://www.w3.org/2000/svg" width="31.237" height="19.943" viewBox="0 0 31.237 19.943">
  <g id="_004-shipped" data-name="004-shipped" transform="translate(0.25 0.25)">
    <g id="Group_39396" data-name="Group 39396">
      <g id="Group_39395" data-name="Group 39395">
        <path id="Path_71144" data-name="Path 71144" d="M28.586,102.3l-.8-3.184a.481.481,0,0,0,.381-.471v-.513a2.024,2.024,0,0,0-2.021-2.021H22.524V95.057a1,1,0,0,0-.995-.995H3.048a1,1,0,0,0-.995.995v8.727a.481.481,0,0,0,.963,0V95.057a.032.032,0,0,1,.032-.032H21.529a.032.032,0,0,1,.032.032v8.727a.481.481,0,1,0,.963,0v-.546H28.2a1.575,1.575,0,0,1,1.5,1.091H28.2a.481.481,0,0,0-.481.481v1.027a1.51,1.51,0,0,0,1.508,1.508h.545v2.118H28.516a3.047,3.047,0,0,0-5.761,0h-.232v-3.626a.481.481,0,1,0-.963,0v3.626H11.576a3.047,3.047,0,0,0-5.761,0H3.048a.032.032,0,0,1-.032-.032v-1.059H5.1a.481.481,0,1,0,0-.963H.481a.481.481,0,1,0,0,.963H2.053v1.059a1,1,0,0,0,.995.995h2.6c0,.011,0,.021,0,.032a3.048,3.048,0,0,0,6.1,0c0-.011,0-.021,0-.032H22.589c0,.011,0,.021,0,.032a3.048,3.048,0,0,0,6.1,0c0-.011,0-.021,0-.032h1.573a.481.481,0,0,0,.481-.481V104.81A2.539,2.539,0,0,0,28.586,102.3Zm-6.062-5.227h3.626a1.06,1.06,0,0,1,1.059,1.059v.032H22.524Zm0,5.2V99.131H26.8l.786,3.144ZM8.7,112.543a2.086,2.086,0,1,1,2.086-2.086A2.088,2.088,0,0,1,8.7,112.543Zm16.941,0a2.086,2.086,0,1,1,2.086-2.086A2.088,2.088,0,0,1,25.636,112.543Zm4.139-6.16h-.545a.546.546,0,0,1-.545-.545v-.545h1.091v1.091Z" transform="translate(0 -94.062)" fill="#fff" stroke="#fff" stroke-width="0.5"/>
      </g>
    </g>
    <g id="Group_39398" data-name="Group 39398" transform="translate(7.7 15.401)">
      <g id="Group_39397" data-name="Group 39397" transform="translate(0 0)">
        <path id="Path_71145" data-name="Path 71145" d="M129.262,350.6a.995.995,0,1,0,.995.995A1,1,0,0,0,129.262,350.6Z" transform="translate(-128.267 -350.597)" fill="#fff" stroke="#fff" stroke-width="0.5"/>
      </g>
    </g>
    <g id="Group_39400" data-name="Group 39400" transform="translate(24.641 15.401)">
      <g id="Group_39399" data-name="Group 39399" transform="translate(0 0)">
        <path id="Path_71146" data-name="Path 71146" d="M411.45,350.6a.995.995,0,1,0,.995.995A1,1,0,0,0,411.45,350.6Z" transform="translate(-410.455 -350.597)" fill="#fff" stroke="#fff" stroke-width="0.5"/>
      </g>
    </g>
    <g id="Group_39402" data-name="Group 39402" transform="translate(12.321 13.347)">
      <g id="Group_39401" data-name="Group 39401" transform="translate(0 0)">
        <path id="Path_71147" data-name="Path 71147" d="M212.9,316.393h-7.187a.481.481,0,0,0,0,.963H212.9a.481.481,0,0,0,0-.963Z" transform="translate(-205.227 -316.393)" fill="#fff" stroke="#fff" stroke-width="0.5"/>
      </g>
    </g>
    <g id="Group_39404" data-name="Group 39404" transform="translate(1.027 11.294)">
      <g id="Group_39403" data-name="Group 39403">
        <path id="Path_71148" data-name="Path 71148" d="M23.744,282.188h-6.16a.481.481,0,1,0,0,.963h6.16a.481.481,0,0,0,0-.963Z" transform="translate(-17.102 -282.188)" fill="#fff" stroke="#fff" stroke-width="0.5"/>
      </g>
    </g>
    <g id="Group_39406" data-name="Group 39406" transform="translate(8.727 4.62)">
      <g id="Group_39405" data-name="Group 39405">
        <path id="Path_71149" data-name="Path 71149" d="M153.378,171.164a.481.481,0,0,0-.681,0l-4.28,4.28-2.226-2.226a.481.481,0,1,0-.681.681l2.567,2.567a.481.481,0,0,0,.681,0l4.62-4.62A.481.481,0,0,0,153.378,171.164Z" transform="translate(-145.37 -171.023)" fill="#fff" stroke="#fff" stroke-width="0.5"/>
      </g>
    </g>
  </g>
</svg>
