<svg id="shopping-cart" xmlns="http://www.w3.org/2000/svg" width="30" height="30" viewBox="0 0 30 30">
  <path id="Path_12" data-name="Path 12" d="M.263,6.819a1.172,1.172,0,0,1,.909-.433H22.4l.087-.8,0-.026A6.412,6.412,0,0,1,28.828,0a1.172,1.172,0,0,1,0,2.344,4.062,4.062,0,0,0-4.014,3.511l-1.393,12.8a3.521,3.521,0,0,1,2.067,3.2c0,.01,0,.02,0,.029s0,.02,0,.029a3.52,3.52,0,0,1-3.516,3.516H21.5a3.457,3.457,0,1,1-6.546,0H9.894a3.457,3.457,0,1,1-3.273-2.344H21.973a1.173,1.173,0,0,0,1.172-1.172c0-.01,0-.02,0-.029s0-.02,0-.029a1.173,1.173,0,0,0-1.172-1.172H7.012A5.366,5.366,0,0,1,2.148,17.4a1.172,1.172,0,0,1,2.146-.942A3.064,3.064,0,0,0,7.012,18.34H21.1L22.143,8.73H2.613l.573,2.749a1.172,1.172,0,1,1-2.294.479L.025,7.8A1.172,1.172,0,0,1,.263,6.819ZM6.621,25.43a1.113,1.113,0,1,0,1.113,1.113A1.115,1.115,0,0,0,6.621,25.43Zm11.6,0a1.113,1.113,0,1,0,1.113,1.113A1.115,1.115,0,0,0,18.223,25.43Z"/>
</svg>
