<svg xmlns="http://www.w3.org/2000/svg" xmlns:xlink="http://www.w3.org/1999/xlink" width="81.46" height="82.607" viewBox="0 0 81.46 82.607">
  <defs>
    <linearGradient id="linear-gradient" x1="0.307" y1="0.981" x2="0.695" y2="0.037" gradientUnits="objectBoundingBox">
      <stop offset="0.168" stop-color="#a4b3bd"/>
      <stop offset="0.731" stop-color="#eef1f3"/>
      <stop offset="0.85" stop-color="#fff"/>
    </linearGradient>
    <linearGradient id="linear-gradient-2" x1="0.289" y1="0.953" x2="0.711" y2="0.047" gradientUnits="objectBoundingBox">
      <stop offset="0" stop-color="#fdfdfd"/>
      <stop offset="0.301" stop-color="#f4f4f4"/>
      <stop offset="0.786" stop-color="#dcdcdc"/>
      <stop offset="1" stop-color="#d0d0d0"/>
    </linearGradient>
  </defs>
  <g id="Group_57415" data-name="Group 57415" transform="translate(-46.457 -81.481)">
    <g id="Group_2" data-name="Group 2" transform="translate(46.457 81.481)">
      <ellipse id="Ellipse_168" data-name="Ellipse 168" cx="40.134" cy="39.543" rx="40.134" ry="39.543" transform="matrix(0.03, -1, 1, 0.03, 0, 80.232)" fill="url(#linear-gradient)"/>
      <circle id="Ellipse_169" data-name="Ellipse 169" cx="38.804" cy="38.804" r="38.804" transform="translate(1.887 2.559)" fill="url(#linear-gradient-2)"/>
    </g>
    <g id="Group_5" data-name="Group 5" transform="translate(65.263 104.292)">
      <path id="Path_1" data-name="Path 1" d="M151.137,155.163a4.365,4.365,0,0,0-6.13-.732s-23.774,19.979-24.461,20.582l-9.362-8.255a5.473,5.473,0,0,0-6.977-.214c-2.384,1.855-2.472,4.612-.617,7l11.661,16.1c.053.068.123.155.179.221a6.586,6.586,0,0,0,9.284.752l26.1-30.366.079-.083A3.5,3.5,0,0,0,151.137,155.163Z" transform="translate(-102.097 -151.794)" fill="#c99820"/>
      <path id="Path_2" data-name="Path 2" d="M150.747,150.163a4.365,4.365,0,0,0-6.13-.732s-23.774,19.979-24.461,20.582l-9.362-8.255a5.47,5.47,0,0,0-7.934,7.462l12,15.422c.053.068.123.155.179.221a6.586,6.586,0,0,0,9.284.752l26.1-29.685.079-.083A4.367,4.367,0,0,0,150.747,150.163Z" transform="translate(-101.706 -148.496)" fill="#c99820"/>
      <path id="Path_3" data-name="Path 3" d="M103.82,164.266a5.473,5.473,0,0,1,6.977.214l7.547,8.657a1.712,1.712,0,0,0,2.425.157c5.162-4.572,23.85-21.141,23.85-21.141a4.362,4.362,0,0,1,6.845,2.07,4.365,4.365,0,0,0-6.845-4.793s-23.774,19.979-24.461,20.582l-9.362-8.255a5.47,5.47,0,0,0-8.913,5.473A5.442,5.442,0,0,1,103.82,164.266Z" transform="translate(-101.709 -148.496)" fill="#c99820" style="mix-blend-mode: multiply;isolation: isolate"/>
    </g>
  </g>
</svg>
