<svg xmlns="http://www.w3.org/2000/svg" width="14.504" height="14.504" viewBox="0 0 14.504 14.504">
  <path id="Path_203996" data-name="Path 203996" d="M140.291,140.3c-.016.016-.034.026-.05.041a7.3,7.3,0,0,1-1.015.833c-.042.029-.088.051-.131.08a7.2,7.2,0,0,1-1.1.588c-.046.02-.093.033-.139.051a7.215,7.215,0,0,1-1.219.369c-.026.005-.052.007-.077.012a7.039,7.039,0,0,1-2.716,0c-.026-.005-.052-.007-.077-.012a7.1,7.1,0,0,1-1.219-.369c-.046-.018-.093-.031-.139-.051a7.087,7.087,0,0,1-1.1-.588c-.043-.027-.089-.051-.131-.08a7.288,7.288,0,0,1-1.015-.833c-.016-.016-.034-.026-.05-.041s0-.008-.005-.01a7.2,7.2,0,1,1,10.188,0S140.293,140.3,140.291,140.3Zm-8.627-.415c.137.1.274.208.419.3.118.073.244.134.367.2a6.111,6.111,0,0,0,5.505,0c.123-.066.249-.126.367-.2.145-.089.282-.194.419-.3.1-.079.2-.162.3-.247a4.218,4.218,0,0,0-7.678,0C131.461,139.721,131.561,139.8,131.664,139.884Zm5.5-5.991a1.964,1.964,0,1,0-1.964,1.964A1.967,1.967,0,0,0,137.166,133.893Zm-1.964-4.583a5.872,5.872,0,0,0-4.777,9.316,5.591,5.591,0,0,1,2.6-2.3,3.274,3.274,0,1,1,4.345,0,5.59,5.59,0,0,1,2.6,2.3,5.836,5.836,0,0,0,1.116-3.422A5.9,5.9,0,0,0,135.2,129.309Z" transform="translate(-127.95 -127.95)" fill="#c99820" stroke="#c99820" stroke-width="0.1"/>
</svg>
