<svg id="user_copy" data-name="user copy" xmlns="http://www.w3.org/2000/svg" width="18.652" height="18.652" viewBox="0 0 18.652 18.652">
  <path id="Path_204090" data-name="Path 204090" d="M9.326,18.652a9.325,9.325,0,1,1,7.131-3.315,9.424,9.424,0,0,1-1.1,1.1,9.329,9.329,0,0,1-6.031,2.212Zm0-17.487a8.161,8.161,0,0,0-6.24,13.42,8.256,8.256,0,0,0,.964.966,8.161,8.161,0,0,0,10.553,0,8.256,8.256,0,0,0,.964-.966A8.161,8.161,0,0,0,9.326,1.166Z" transform="translate(0 0)" fill="#fff"/>
  <path id="Path_204091" data-name="Path 204091" d="M163.5,70.995a3.5,3.5,0,1,1,3.5-3.5A3.5,3.5,0,0,1,163.5,70.995Zm0-5.829a2.332,2.332,0,1,0,2.332,2.332A2.334,2.334,0,0,0,163.5,65.166Z" transform="translate(-154.171 -61.668)" fill="#fff"/>
  <path id="Path_204092" data-name="Path 204092" d="M92.066,232.418a.583.583,0,0,1-.566-.725,5.251,5.251,0,0,0-5.012-6.527h-.154a5.251,5.251,0,0,0-5.012,6.527.583.583,0,0,1-1.131.284A6.414,6.414,0,0,1,86.321,224H86.5a6.417,6.417,0,0,1,6.128,7.977A.583.583,0,0,1,92.066,232.418Z" transform="translate(-77.086 -215.84)" fill="#fff"/>
</svg>
