<svg id="_006-close-envelope" data-name="006-close-envelope" xmlns="http://www.w3.org/2000/svg" width="10.305" height="13.74" viewBox="0 0 10.305 13.74">
  <g id="lock" transform="translate(0 0)">
    <g id="Group_308" data-name="Group 308">
      <path id="Path_636" data-name="Path 636" d="M64.286,5.152h.859V4.007a4.007,4.007,0,1,1,8.015,0V5.152h.859a.286.286,0,0,1,.286.286v7.156A1.146,1.146,0,0,1,73.16,13.74H65.145A1.146,1.146,0,0,1,64,12.595V5.439A.286.286,0,0,1,64.286,5.152ZM68.3,11.132a.286.286,0,0,0,.285.318h1.145a.286.286,0,0,0,.285-.318l-.181-1.624a1.132,1.132,0,0,0,.468-.921,1.145,1.145,0,1,0-2.29,0,1.132,1.132,0,0,0,.468.921ZM66.862,5.152h4.58V4.007a2.29,2.29,0,0,0-4.58,0Z" transform="translate(-64)" fill="#c99820"/>
    </g>
  </g>
</svg>
