<svg xmlns="http://www.w3.org/2000/svg" width="14.405" height="14.096" viewBox="0 0 14.405 14.096">
  <path id="address" d="M.166,7.152a.563.563,0,0,0,.8,0L1.406,6.7V8.75a.563.563,0,1,0,1.125,0V5.569L6.811,1.261a.562.562,0,0,1,.73,0l4.332,4.323c0,.005,0,.011,0,.016v5.964a1.127,1.127,0,0,1-1.125,1.125h-.7a.563.563,0,1,0,0,1.125h.7A2.253,2.253,0,0,0,13,11.564V6.705l.447.446a.563.563,0,0,0,.8-.8L8.323.45,8.3.428a1.687,1.687,0,0,0-2.25,0L6.026.454.163,6.356A.563.563,0,0,0,.166,7.152ZM1.969,11a.563.563,0,0,1,.563.563,1.127,1.127,0,0,0,1.125,1.125h.7a.563.563,0,1,1,0,1.125h-.7a2.253,2.253,0,0,1-2.251-2.251A.563.563,0,0,1,1.969,11ZM3.657,8.943a4.964,4.964,0,0,0,1.764,3.412A10.442,10.442,0,0,1,6.63,13.834a.563.563,0,0,0,.476.262H7.3a.563.563,0,0,0,.476-.262,10.442,10.442,0,0,1,1.208-1.479,4.965,4.965,0,0,0,1.764-3.411,3.545,3.545,0,0,0-7.09,0Zm1.125,0a2.42,2.42,0,0,1,4.839,0c0,1.064-.647,1.762-1.465,2.646-.321.347-.649.7-.955,1.1-.305-.4-.634-.753-.955-1.1C5.429,10.707,4.783,10.008,4.782,8.943ZM7.227,7.4a1.547,1.547,0,1,1,0,3.095.563.563,0,0,1,0-1.125.422.422,0,1,0-.422-.422.563.563,0,1,1-1.125,0A1.549,1.549,0,0,1,7.227,7.4Zm0,0" transform="translate(0.001 0)" fill="#c99820"/>
</svg>
