<svg xmlns="http://www.w3.org/2000/svg" width="35.653" height="41.592" viewBox="0 0 35.653 41.592">
  <g id="svgexport-6_20_" data-name="svgexport-6 (20)" transform="translate(-36.438 0.316)">
    <g id="Group_57507" data-name="Group 57507" transform="translate(36.688 0)">
      <path id="Path_204809" data-name="Path 204809" d="M42.161,39.094a10.9,10.9,0,0,0,6.2,1.932h6.121a10.7,10.7,0,0,0,5.245-1.362c9.417-5.307,6.813-13.075,2.642-16.255a7.337,7.337,0,0,1-2.673-3.38,1.6,1.6,0,0,0,1.3-1.573v-.623a1.6,1.6,0,0,0-1.6-1.6H54.214V14.664a1.568,1.568,0,0,0,.886-1.952,1.567,1.567,0,0,0,.369-.087l.569-.211A1.576,1.576,0,0,0,57,10.479a1.585,1.585,0,0,0,.371-.087l.569-.211a1.575,1.575,0,0,0,.93-2.025l-.054-.146,4.234-1.568a.6.6,0,0,0-.418-1.127L58.395,6.884l-.47-1.27,11.8-4.369a.677.677,0,0,1,.47,1.269L65.262,4.34a.6.6,0,1,0,.418,1.127l4.928-1.825A1.879,1.879,0,0,0,69.3.118l-11.8,4.369-.054-.146a1.577,1.577,0,0,0-2.024-.93l-.569.211a1.583,1.583,0,0,0-.338.176,1.571,1.571,0,0,0-1.988-.845l-.569.211a1.581,1.581,0,0,0-.336.174,1.576,1.576,0,0,0-2-.884l-.569.211a1.576,1.576,0,0,0-.945,1.977,1.585,1.585,0,0,0-.369.087l-.569.211a1.571,1.571,0,0,0-.958,1.936,1.583,1.583,0,0,0-.371.087l-.569.211a1.577,1.577,0,0,0-.93,2.025l1.413,3.815.009.023v3.2H43.443a1.6,1.6,0,0,0-1.6,1.6v.623a1.6,1.6,0,0,0,1.3,1.572,7.332,7.332,0,0,1-2.673,3.38c-4.033,3.074-6.6,10.411,1.691,15.685ZM55.277,4.749l.569-.211a.373.373,0,0,1,.48.221l1.413,3.815a.373.373,0,0,1-.22.48l-.569.211a.374.374,0,0,1-.48-.22L55.056,5.229a.373.373,0,0,1,.221-.48Zm-2.9-.459.569-.211a.373.373,0,0,1,.48.221l2.411,6.508a.374.374,0,0,1-.22.48l-.569.211a.374.374,0,0,1-.48-.221L52.161,4.77A.373.373,0,0,1,52.382,4.291Zm-2.91-.5.569-.211a.374.374,0,0,1,.48.221l.514,1.387,2.924,7.895a.373.373,0,0,1-.22.48l-.569.211a.373.373,0,0,1-.48-.221l-.514-1.387h0L49.251,4.271a.374.374,0,0,1,.22-.48ZM53.012,15v1.232H46.967V14.018a1.592,1.592,0,0,0,.813-.075l.569-.211a1.691,1.691,0,0,0,.337-.173,1.58,1.58,0,0,0,1.989.843l.569-.211a1.674,1.674,0,0,0,.335-.172A1.589,1.589,0,0,0,53.012,15ZM47.588,6.066l.569-.211a.373.373,0,0,1,.48.22h0l2.411,6.508a.376.376,0,0,1-.22.48l-.569.211a.374.374,0,0,1-.48-.22L47.368,6.546a.373.373,0,0,1,.22-.48ZM45.47,8.78a.374.374,0,0,1,.22-.48l.569-.211a.373.373,0,0,1,.48.22l1.413,3.816a.374.374,0,0,1-.221.479l-.569.211a.378.378,0,0,1-.48-.221Zm-2.427,9.676v-.623a.4.4,0,0,1,.4-.4H59.39a.4.4,0,0,1,.4.4v.623a.4.4,0,0,1-.4.4H43.443A.4.4,0,0,1,43.043,18.456Zm6.947,2.449a1.811,1.811,0,0,0-1.8,1.643.6.6,0,0,0-.008.1.607.607,0,1,1-1.214,0V20.058h6.045v4.524a.607.607,0,1,1-1.214,0V22.714a1.811,1.811,0,0,0-1.809-1.809ZM38.3,28.375c1.889-.673,6.467-1.748,12.929.359a24.223,24.223,0,0,0,3.247.821.6.6,0,0,0,.211-1.183,23.01,23.01,0,0,1-3.085-.78,22.121,22.121,0,0,0-12.63-.681A8.913,8.913,0,0,1,41.2,24.365a8.106,8.106,0,0,0,3.189-4.307h1.378v2.585a1.809,1.809,0,0,0,3.61.166.6.6,0,0,0,.008-.1.607.607,0,0,1,1.214,0v1.868a1.809,1.809,0,0,0,3.618,0V20.058h4.231a8.106,8.106,0,0,0,3.189,4.307,8.936,8.936,0,0,1,2.511,3.077,14.624,14.624,0,0,1-6.737,1.224.6.6,0,1,0-.043,1.2A15.924,15.924,0,0,0,64.59,28.56c1.36,4.356-1.468,7.808-5.459,10.057a9.5,9.5,0,0,1-4.655,1.207H48.356A9.5,9.5,0,0,1,43.7,38.617C39.61,36.312,36.775,32.773,38.3,28.375Z" transform="translate(-36.688 0)" fill="#c99820" stroke="#c99820" stroke-width="0.5"/>
      <path id="Path_204810" data-name="Path 204810" d="M194.091,406.1a1.752,1.752,0,1,0-1.752-1.752A1.754,1.754,0,0,0,194.091,406.1Zm0-2.3a.55.55,0,1,1-.55.55A.551.551,0,0,1,194.091,403.8Z" transform="translate(-179.867 -370.338)" fill="#c99820" stroke="#c99820" stroke-width="0.5"/>
      <path id="Path_204811" data-name="Path 204811" d="M119.687,366.052a2.393,2.393,0,1,0-2.393-2.393A2.4,2.4,0,0,0,119.687,366.052Zm0-3.584a1.191,1.191,0,1,1-1.191,1.191A1.193,1.193,0,0,1,119.687,362.468Z" transform="translate(-110.835 -332.319)" fill="#c99820" stroke="#c99820" stroke-width="0.5"/>
      <path id="Path_204812" data-name="Path 204812" d="M196.844,371.552a.6.6,0,1,0-.6-.6A.6.6,0,0,0,196.844,371.552Z" transform="translate(-183.458 -340.675)" fill="#c99820" stroke="#c99820" stroke-width="0.5"/>
    </g>
  </g>
</svg>
