<svg xmlns="http://www.w3.org/2000/svg" width="34.001" height="33.828" viewBox="0 0 34.001 33.828">
  <g id="svgexport-6_18_" data-name="svgexport-6 (18)" transform="translate(0.415 0.288)">
    <g id="Group_57510" data-name="Group 57510" transform="translate(0 0.002)">
      <g id="Group_57509" data-name="Group 57509">
        <g id="Group_57508" data-name="Group 57508">
          <path id="Path_204813" data-name="Path 204813" d="M33.131,11.971,27.762,6.6a.537.537,0,0,0-.283-.148L21.572,5.38a.537.537,0,0,0-.624.432.531.531,0,0,0-.009.1,3.187,3.187,0,0,1-.046.509l-3.713-.928V5.317A2.685,2.685,0,1,0,13.96,2.687h1.074A1.611,1.611,0,1,1,16.644,4.3a.537.537,0,0,0-.537.537v.654l-3.713.928a3.187,3.187,0,0,1-.046-.509.537.537,0,0,0-.193-.412.524.524,0,0,0-.44-.115L5.81,6.454a.537.537,0,0,0-.283.148L.157,11.971a.537.537,0,0,0,0,.759l4.3,4.3a.537.537,0,0,0,.759,0l1.231-1.231v3.536H2.685a2.676,2.676,0,0,0-1.594,4.832,2.66,2.66,0,0,0,0,4.3A2.676,2.676,0,0,0,2.685,33.29H22.013a.537.537,0,0,0,.38-.157l4.3-4.3a.532.532,0,0,0,.152-.38h0V15.795l1.231,1.231a.537.537,0,0,0,.759,0l4.3-4.3A.537.537,0,0,0,33.131,11.971ZM16.644,6.461l3.9.976a4.381,4.381,0,0,1-3.9,2.162,4.381,4.381,0,0,1-3.9-2.162ZM1.074,22.015A1.611,1.611,0,0,1,2.685,20.4H14.5a1.611,1.611,0,1,1,0,3.221H2.685A1.611,1.611,0,0,1,1.074,22.015Zm0,4.3A1.611,1.611,0,0,1,2.685,24.7H14.5a1.611,1.611,0,0,1,0,3.221H2.685A1.611,1.611,0,0,1,1.074,26.31ZM14.5,32.216H2.685a1.611,1.611,0,1,1,0-3.221H14.5a1.611,1.611,0,1,1,0,3.221Zm8.054-.759V28.995h2.462Zm5.906-15.57-3.379-3.379-.759.759,1.453,1.453v13.2H22.013a.537.537,0,0,0-.537.537v3.758H16.63a2.648,2.648,0,0,0-.478-3.714l-.059-.044a2.66,2.66,0,0,0,0-4.3,2.676,2.676,0,0,0-1.6-4.832H7.517v-4.61L8.97,13.267l-.759-.759L4.832,15.887,1.3,12.351,6.167,7.48l5.154-.937a5.206,5.206,0,0,0,5.322,4.13,5.206,5.206,0,0,0,5.322-4.13l5.154.937,4.873,4.871Z" transform="translate(0 -0.002)" fill="#c99820" stroke="#c99820" stroke-width="0.5"/>
          <rect id="Rectangle_8485" data-name="Rectangle 8485" width="12.951" height="1.11" transform="translate(2.22 21.461)" fill="#c99820" stroke="#c99820" stroke-width="0.5"/>
          <rect id="Rectangle_8486" data-name="Rectangle 8486" width="12.211" height="1.11" transform="translate(2.22 25.901)" fill="#c99820" stroke="#c99820" stroke-width="0.5"/>
          <rect id="Rectangle_8487" data-name="Rectangle 8487" width="12.211" height="1.11" transform="translate(2.22 29.972)" fill="#c99820" stroke="#c99820" stroke-width="0.5"/>
        </g>
      </g>
    </g>
  </g>
</svg>
