<svg xmlns="http://www.w3.org/2000/svg" width="33.76" height="39.028" viewBox="0 0 33.76 39.028">
  <g id="svgexport-6_15_" data-name="svgexport-6 (15)" transform="translate(-34.75 0.25)">
    <g id="Group_57513" data-name="Group 57513" transform="translate(35)">
      <circle id="Ellipse_3187" data-name="Ellipse 3187" cx="0.564" cy="0.564" r="0.564" transform="translate(3.067 15.186)" fill="#c99820" stroke="#c99820" stroke-width="0.5"/>
      <circle id="Ellipse_3188" data-name="Ellipse 3188" cx="0.564" cy="0.564" r="0.564" transform="translate(27.147 16.691)" fill="#c99820" stroke="#c99820" stroke-width="0.5"/>
      <circle id="Ellipse_3189" data-name="Ellipse 3189" cx="0.564" cy="0.564" r="0.564" transform="translate(5.324 17.443)" fill="#c99820" stroke="#c99820" stroke-width="0.5"/>
      <path id="Path_204815" data-name="Path 204815" d="M169.288,363.889a.827.827,0,0,1-1.248,0,.564.564,0,0,0-.851.742,1.956,1.956,0,0,0,2.95,0,.564.564,0,0,0-.851-.742Z" transform="translate(-157.114 -336.327)" fill="#c99820" stroke="#c99820" stroke-width="0.5"/>
      <path id="Path_204816" data-name="Path 204816" d="M305.145,364.63a.564.564,0,0,0-.851-.742.827.827,0,0,1-1.248,0,.564.564,0,0,0-.851.742A1.956,1.956,0,0,0,305.145,364.63Z" transform="translate(-281.961 -336.327)" fill="#c99820" stroke="#c99820" stroke-width="0.5"/>
      <path id="Path_204817" data-name="Path 204817" d="M223.617,393.242a.564.564,0,0,0-.055.8,3.059,3.059,0,0,0,4.613,0,.564.564,0,1,0-.851-.742,1.929,1.929,0,0,1-2.911,0A.565.565,0,0,0,223.617,393.242Z" transform="translate(-209.244 -363.522)" fill="#c99820" stroke="#c99820" stroke-width="0.5"/>
      <circle id="Ellipse_3190" data-name="Ellipse 3190" cx="0.564" cy="0.564" r="0.564" transform="translate(15.061 27.986)" fill="#c99820" stroke="#c99820" stroke-width="0.5"/>
      <circle id="Ellipse_3191" data-name="Ellipse 3191" cx="0.564" cy="0.564" r="0.564" transform="translate(17.071 27.986)" fill="#c99820" stroke="#c99820" stroke-width="0.5"/>
      <path id="Path_204818" data-name="Path 204818" d="M68.26,22.161a2.825,2.825,0,0,0-2.822-2.822H58.228l4.552-4.552.019-.02a2.822,2.822,0,0,0-4.01-3.971l-1.758,1.758A9.11,9.11,0,0,0,54.2,6.307c-.7-1.006.178-2.929,2.084-2.929.472,0,.617.1.988.1a1.239,1.239,0,0,0,1.341-1.209c0-.817-.823-1.351-1.542-1.74A5.068,5.068,0,0,0,54.842,0a5.736,5.736,0,0,0-4.917,3.1.564.564,0,0,0,.988.547,4.672,4.672,0,0,1,3.93-2.515,3.142,3.142,0,0,1,2.637,1.159c-.082.149-.537-.039-1.191-.039-2.812,0-4.235,2.943-3.013,4.7.447.666,2.628,2.338,2.628,5.707a7.179,7.179,0,0,1-2.436,5.383,6.606,6.606,0,0,0-1.2,1.3h-1.5a9.215,9.215,0,0,1,1.536-2.654,5.644,5.644,0,0,0-.166-6.921,5.159,5.159,0,0,1-1.831-4.2.564.564,0,0,0-1.124-.108,6.216,6.216,0,0,0,2.1,5.043,4.413,4.413,0,0,1,1,2.838c0,1.876-.957,2.7-1.6,3.669l-7.81-7.809-.006-.006,0,0h0a2.822,2.822,0,0,0-3.975,4.006l6.148,6.148H37.823A2.826,2.826,0,0,0,35,22.161a2.793,2.793,0,0,0,2.028,2.7,7.885,7.885,0,0,0,1.339,8.3v3.293a2.071,2.071,0,0,0,2.084,2.072,2.036,2.036,0,0,0,1.467-.628l1.162-1.191a20.137,20.137,0,0,0,8.55,1.819,21.5,21.5,0,0,0,4.467-.463.564.564,0,1,0-.235-1.1,20.378,20.378,0,0,1-4.233.438c-9.533,0-16.4-6.288-13.416-12.416h8.148a.564.564,0,1,0,0-1.129H37.87a1.693,1.693,0,1,1-.047-3.386H65.438a1.693,1.693,0,1,1,0,3.386H57.021a.564.564,0,0,0,0,1.129h8.025c2.117,4.35-.693,9.223-7.072,11.4a.564.564,0,0,0,.364,1.068,17.708,17.708,0,0,0,1.968-.8L61.53,37.9A2.036,2.036,0,0,0,63,38.528a2.1,2.1,0,0,0,.794-.156,2.036,2.036,0,0,0,1.289-1.917V32.918a7.838,7.838,0,0,0,1.153-8.05,2.827,2.827,0,0,0,2.026-2.707ZM39.5,34.349a13.238,13.238,0,0,0,1.442,1.138q.527.36,1.094.681l-.922.945a.941.941,0,0,1-1.614-.657Zm10.089-15.01H46.629l-6.946-6.946a1.693,1.693,0,0,1,2.389-2.4l1.834,1.834-1.2,1.2a.565.565,0,0,0,.8.8l1.2-1.2L50.1,18.017A8.15,8.15,0,0,0,49.586,19.339Zm7.046,0H53.724a8.843,8.843,0,0,0,3.137-5.019l.1-.1,1.2,1.2a.565.565,0,1,0,.8-.8l-1.2-1.2,1.829-1.829a1.693,1.693,0,0,1,2.407,2.381l-.017.018-5.345,5.345Zm7.321,17.116a.941.941,0,0,1-1.614.657l-.99-1.015a13.546,13.546,0,0,0,2.6-1.927Z" transform="translate(-35)" fill="#c99820" stroke="#c99820" stroke-width="0.5"/>
    </g>
  </g>
</svg>
