<svg id="Group_57557" data-name="Group 57557" xmlns="http://www.w3.org/2000/svg" xmlns:xlink="http://www.w3.org/1999/xlink" width="661" height="195.267" viewBox="0 0 661 195.267">
  <defs>
    <linearGradient id="linear-gradient" x1="0.5" x2="0.5" y2="1" gradientUnits="objectBoundingBox">
      <stop offset="0" stop-color="#efc64c"/>
      <stop offset="0.586" stop-color="#7c4707"/>
      <stop offset="0.772" stop-color="#e9bb42"/>
      <stop offset="1" stop-color="#efc64c"/>
    </linearGradient>
  </defs>
  <path id="Path_204863" data-name="Path 204863" d="M814.238,401.582H737.316a10.567,10.567,0,0,1-10.556-10.556V269.691a10.568,10.568,0,0,1,10.556-10.556h76.922a10.568,10.568,0,0,1,10.556,10.556V391.027A10.567,10.567,0,0,1,814.238,401.582Z" transform="translate(-529.694 -229.051)" fill="#e6e6e6"/>
  <path id="Path_204864" data-name="Path 204864" d="M828.487,276.933H750.144a3.308,3.308,0,0,0-3.3,3.3V403.155a3.31,3.31,0,0,0,3.3,3.3h78.343a3.309,3.309,0,0,0,3.3-3.3V280.237a3.308,3.308,0,0,0-3.3-3.3Z" transform="translate(-542.667 -240.549)" fill="#fff"/>
  <path id="Path_204865" data-name="Path 204865" d="M761.9,257.661a.808.808,0,0,1,.808-.808H768.2a.808.808,0,0,1,0,1.615h-5.491a.809.809,0,0,1-.808-.807Z" transform="translate(-552.396 -227.577)" fill="#e6e6e6"/>
  <path id="Path_204866" data-name="Path 204866" d="M787.454,257.661a.808.808,0,0,1,.807-.808h5.491a.808.808,0,1,1,0,1.615h-5.491a.808.808,0,0,1-.808-.807Z" transform="translate(-568.907 -227.577)" fill="#e6e6e6"/>
  <path id="Path_204867" data-name="Path 204867" d="M940.785,257.661a.808.808,0,0,1,.808-.808h5.491a.808.808,0,0,1,0,1.615h-5.491A.808.808,0,0,1,940.785,257.661Z" transform="translate(-667.973 -227.577)" fill="#e6e6e6"/>
  <path id="Path_204868" data-name="Path 204868" d="M800.172,521.408c0,.849-.016,1.7-.055,2.532H750.144a3.309,3.309,0,0,1-3.3-3.3V458.767A63.452,63.452,0,0,1,800.172,521.408Z" transform="translate(-542.667 -358.031)" fill="#f2f2f2"/>
  <rect id="Rectangle_8513" data-name="Rectangle 8513" width="21.708" height="4.987" rx="2.494" transform="translate(235.635 67.971)" fill="#c99820"/>
  <rect id="Rectangle_8514" data-name="Rectangle 8514" width="45.399" height="4.987" rx="2.494" transform="translate(223.79 77.946)" fill="#e6e6e6"/>
  <rect id="Rectangle_8515" data-name="Rectangle 8515" width="45.399" height="4.987" rx="2.494" transform="translate(223.79 87.92)" fill="#e6e6e6"/>
  <path id="Path_204869" data-name="Path 204869" d="M854.021,541.348a1.185,1.185,0,0,1-.859-2.054l.081-.323-.032-.078a3.182,3.182,0,0,0-5.869.022c-.96,2.312-2.182,4.628-2.483,7.073a9.414,9.414,0,0,0,.165,3.237,37.739,37.739,0,0,1-3.433-15.674,36.42,36.42,0,0,1,.226-4.064q.187-1.659.519-3.295a38.176,38.176,0,0,1,7.571-16.18,10.16,10.16,0,0,0,4.225-4.384,7.749,7.749,0,0,0,.7-2.118c-.206.027-.415.044-.62.057l-.2.01H854a1.174,1.174,0,0,1-.964-1.913l.267-.328c.135-.169.273-.334.408-.5a.586.586,0,0,0,.044-.051c.155-.192.31-.381.465-.573a3.4,3.4,0,0,0-1.113-1.076,3.913,3.913,0,0,0-4.822,1.126,6.134,6.134,0,0,0-.948,5.136,13.6,13.6,0,0,0,1.882,4.2c-.084.108-.172.213-.256.32a38.423,38.423,0,0,0-4.01,6.353,15.973,15.973,0,0,0-.954-7.419c-.913-2.2-2.624-4.056-4.13-5.96a3.278,3.278,0,0,0-5.839,1.61c0,.028-.006.056-.009.084q.336.189.657.4a1.607,1.607,0,0,1-.648,2.925l-.033.005a15.993,15.993,0,0,0,.422,2.391,16.465,16.465,0,0,0,8.2,10.319c.131.067.26.135.391.2a39.217,39.217,0,0,0-2.111,9.935,37.2,37.2,0,0,0,.027,6.006l-.01-.071a9.829,9.829,0,0,0-3.355-5.676c-2.582-2.121-6.23-2.9-9.016-4.607a1.845,1.845,0,0,0-2.825,1.794l.011.074a10.8,10.8,0,0,1,1.211.583q.336.189.657.4a1.607,1.607,0,0,1-.648,2.925l-.033.005-.067.01a16.005,16.005,0,0,0,2.944,4.61,16.479,16.479,0,0,0,11.951,5.244h0a39.211,39.211,0,0,0,2.634,7.689h9.409c.034-.1.064-.213.094-.317a10.693,10.693,0,0,1-2.6-.155c.7-.857,1.4-1.72,2.094-2.576a.575.575,0,0,0,.044-.051c.354-.438.712-.873,1.066-1.312h0a15.659,15.659,0,0,0-.459-3.989Zm-10.774-21.195.005-.007-.005.013Zm-2.084,18.787-.081-.182c0-.132,0-.263,0-.4,0-.037-.007-.074-.007-.111.03.233.057.465.091.7Z" transform="translate(-593.615 -383.838)" fill="#ccc"/>
  <path id="Path_204870" data-name="Path 204870" d="M836.686,305.465H766.176a.584.584,0,1,1,0-1.167h70.511a.584.584,0,1,1,0,1.167Z" transform="translate(-554.782 -258.23)" fill="#cacaca"/>
  <ellipse id="Ellipse_3192" data-name="Ellipse 3192" cx="1.715" cy="1.753" rx="1.715" ry="1.753" transform="translate(213.44 40.874)" fill="#3f3d56"/>
  <ellipse id="Ellipse_3193" data-name="Ellipse 3193" cx="1.715" cy="1.753" rx="1.715" ry="1.753" transform="translate(219.365 40.874)" fill="#3f3d56"/>
  <ellipse id="Ellipse_3194" data-name="Ellipse 3194" cx="1.715" cy="1.753" rx="1.715" ry="1.753" transform="translate(225.29 40.874)" fill="#3f3d56"/>
  <path id="Path_204871" data-name="Path 204871" d="M951.149,291.535h-3.838a.291.291,0,1,0,0,.581h3.838a.291.291,0,1,0,0-.581Z" transform="translate(-672.001 -249.984)" fill="#3f3d56"/>
  <path id="Path_204872" data-name="Path 204872" d="M951.149,294.618h-3.838a.291.291,0,1,0,0,.581h3.838a.291.291,0,1,0,0-.581Z" transform="translate(-672.001 -251.976)" fill="#3f3d56"/>
  <path id="Path_204873" data-name="Path 204873" d="M951.149,297.7h-3.838a.291.291,0,0,0,0,.581h3.838a.291.291,0,1,0,0-.581Z" transform="translate(-672.001 -253.965)" fill="#3f3d56"/>
  <path id="Path_204874" data-name="Path 204874" d="M556.827,458.9h-40.88a2.181,2.181,0,0,0-2.178,2.184v64.579h45.242V461.081a2.182,2.182,0,0,0-2.183-2.184Zm-20.3,36.693a4.85,4.85,0,0,1-4.827-4.827v-7.449a4.827,4.827,0,0,1,9.655,0v7.449A4.85,4.85,0,0,1,536.524,495.59Z" transform="translate(-392.082 -358.115)" fill="#e6e6e6"/>
  <path id="Path_204875" data-name="Path 204875" d="M513.372,641.7v6.231a1.221,1.221,0,0,0,1.218,1.218h43.086a1.224,1.224,0,0,0,1.218-1.218V641.7Z" transform="translate(-391.826 -476.223)" fill="#ccc"/>
  <path id="Path_204876" data-name="Path 204876" d="M497.354,174.129H322.607a5.673,5.673,0,0,0-5.664,5.664v117.92a5.669,5.669,0,0,0,5.664,5.664H497.354a5.669,5.669,0,0,0,5.664-5.664V179.793A5.673,5.673,0,0,0,497.354,174.129Z" transform="translate(-264.916 -174.129)" fill="#e6e6e6"/>
  <path id="Path_204877" data-name="Path 204877" d="M503.371,185.688H331.543a3.035,3.035,0,0,0-3.029,3.035v115a3.034,3.034,0,0,0,3.029,3.029H503.371a3.034,3.034,0,0,0,3.029-3.029v-115a3.035,3.035,0,0,0-3.029-3.035Z" transform="translate(-272.391 -181.597)" fill="#fff"/>
  <path id="Path_204878" data-name="Path 204878" d="M671.64,188.723v115a3.034,3.034,0,0,1-3.029,3.029h-60.59A74.354,74.354,0,0,1,591.8,284.924q-.4-.793-.756-1.606a73.695,73.695,0,0,1-6.549-25.207c-.044-.535-.082-1.071-.107-1.612-.082-1.385-.12-2.79-.12-4.2a74.012,74.012,0,0,1,5.22-27.4c.208-.542.428-1.077.655-1.612a74.556,74.556,0,0,1,35.484-37.6h42.984A3.036,3.036,0,0,1,671.64,188.723Z" transform="translate(-437.631 -181.597)" fill="#c99820"/>
  <path id="Path_204879" data-name="Path 204879" d="M503.5,228.122H342.719a.639.639,0,1,1,0-1.279H503.5a.639.639,0,1,1,0,1.279Z" transform="translate(-281.156 -208.187)" fill="#cacaca"/>
  <ellipse id="Ellipse_3195" data-name="Ellipse 3195" cx="3.747" cy="3.831" rx="3.747" ry="3.831" transform="translate(68.761 7.73)" fill="#3f3d56"/>
  <ellipse id="Ellipse_3196" data-name="Ellipse 3196" cx="3.747" cy="3.831" rx="3.747" ry="3.831" transform="translate(81.705 7.73)" fill="#3f3d56"/>
  <ellipse id="Ellipse_3197" data-name="Ellipse 3197" cx="3.747" cy="3.831" rx="3.747" ry="3.831" transform="translate(94.649 7.73)" fill="#3f3d56"/>
  <path id="Path_204880" data-name="Path 204880" d="M758.1,198.655h-9.2a.7.7,0,0,0,0,1.393h9.2a.7.7,0,0,0,0-1.393Z" transform="translate(-543.552 -189.975)" fill="#3f3d56"/>
  <path id="Path_204881" data-name="Path 204881" d="M758.1,206.039h-9.2a.7.7,0,1,0,0,1.393h9.2a.7.7,0,1,0,0-1.393Z" transform="translate(-543.552 -194.746)" fill="#3f3d56"/>
  <path id="Path_204882" data-name="Path 204882" d="M758.1,213.414h-9.2a.7.7,0,1,0,0,1.393h9.2a.7.7,0,1,0,0-1.393Z" transform="translate(-543.552 -199.511)" fill="#3f3d56"/>
  <rect id="Rectangle_8516" data-name="Rectangle 8516" width="25.555" height="5.465" rx="2.732" transform="translate(86.773 57.288)" fill="#c99820"/>
  <rect id="Rectangle_8517" data-name="Rectangle 8517" width="51.512" height="5.465" rx="2.732" transform="translate(73.795 68.217)" fill="#e6e6e6"/>
  <rect id="Rectangle_8518" data-name="Rectangle 8518" width="51.512" height="5.465" rx="2.732" transform="translate(73.795 79.146)" fill="#e6e6e6"/>
  <path id="Path_204883" data-name="Path 204883" d="M350.39,474.639a18.775,18.775,0,0,1-1.184,6.593H331.543a3.034,3.034,0,0,1-3.029-3.029V455.987a18.654,18.654,0,0,1,2.985-.239A18.89,18.89,0,0,1,350.39,474.64Z" transform="translate(-272.391 -356.08)" fill="#6c63ff"/>
  <path id="Path_204884" data-name="Path 204884" d="M672.016,259.433v-1.612H645V239.138h-1.606v18.683H612.42V239.138h-1.606v18.683H590.362c-.227.535-.447,1.071-.655,1.612h21.108v31.6H584.606c.025.542.063,1.077.107,1.612h26.1v25.207H591.262q.359.812.756,1.606h18.8v21.19h1.606v-21.19h30.969v21.19h1.606v-21.19h27.021v-1.606H645A25.207,25.207,0,0,1,670.2,292.644h1.814v-1.612H645v-31.6Zm-28.627,58.418H612.42V292.644h30.969Zm0-26.819H612.42v-.63a30.969,30.969,0,0,1,30.969-30.969h0Z" transform="translate(-437.849 -216.131)" opacity="0.2"/>
  <path id="Path_204885" data-name="Path 204885" d="M696.666,383.5a1.683,1.683,0,0,1-1.22-2.917l.115-.458-.046-.11a4.519,4.519,0,0,0-8.336.031c-1.363,3.284-3.1,6.573-3.526,10.044a13.37,13.37,0,0,0,.235,4.6,53.6,53.6,0,0,1-4.876-22.261,51.708,51.708,0,0,1,.321-5.771q.266-2.356.737-4.679A54.22,54.22,0,0,1,690.823,339a14.43,14.43,0,0,0,6-6.226,11.005,11.005,0,0,0,1-3.008c-.292.038-.589.062-.881.081l-.278.014-.034,0a1.667,1.667,0,0,1-1.369-2.716l.379-.465c.192-.24.388-.474.58-.714a.841.841,0,0,0,.062-.072c.22-.273.441-.541.661-.814a4.821,4.821,0,0,0-1.581-1.528c-2.208-1.293-5.254-.4-6.849,1.6a8.712,8.712,0,0,0-1.346,7.294,19.322,19.322,0,0,0,2.672,5.958c-.12.153-.244.3-.364.455a54.571,54.571,0,0,0-5.7,9.023,22.685,22.685,0,0,0-1.354-10.537c-1.3-3.127-3.726-5.761-5.866-8.464a4.656,4.656,0,0,0-8.293,2.286q-.007.06-.013.12.477.269.933.571a2.283,2.283,0,0,1-.92,4.154l-.047.007a22.708,22.708,0,0,0,.6,3.4,23.383,23.383,0,0,0,11.643,14.655c.187.1.369.192.556.283a55.7,55.7,0,0,0-3,14.109,52.829,52.829,0,0,0,.038,8.53l-.014-.1a13.959,13.959,0,0,0-4.765-8.06c-3.667-3.013-8.848-4.122-12.8-6.543a2.62,2.62,0,0,0-4.012,2.549l.016.106a15.336,15.336,0,0,1,1.719.829q.477.269.933.571a2.283,2.283,0,0,1-.92,4.154l-.047.007-.1.014a22.731,22.731,0,0,0,4.181,6.547,23.4,23.4,0,0,0,16.973,7.447h0a55.681,55.681,0,0,0,3.74,10.92h13.362c.048-.148.091-.3.134-.45a15.183,15.183,0,0,1-3.7-.22c.991-1.217,1.983-2.443,2.974-3.659a.824.824,0,0,0,.062-.072c.5-.623,1.011-1.24,1.513-1.863h0a22.233,22.233,0,0,0-.652-5.665Zm-15.3-30.1.007-.009-.007.019Zm-2.96,26.681-.115-.259c0-.187,0-.374,0-.565,0-.053-.01-.105-.01-.158.043.33.081.661.129.991Z" transform="translate(-484.256 -270.28)" fill="#775200"/>
  <path id="Path_204886" data-name="Path 204886" d="M326.5,353.982h0V336.023a10.394,10.394,0,0,0-10.394-10.394H278.06a10.394,10.394,0,0,0-10.394,10.394v98.522a10.394,10.394,0,0,0,10.394,10.394h38.048A10.394,10.394,0,0,0,326.5,434.545v-67.78h0a.656.656,0,0,0,.656-.656V354.637A.656.656,0,0,0,326.5,353.982Z" transform="translate(-233.078 -272.012)" fill="#e6e6e6"/>
  <path id="Path_204887" data-name="Path 204887" d="M329.526,341.031v98.38a7.757,7.757,0,0,1-7.677,7.758.678.678,0,0,1-.084,0H283.532a7.762,7.762,0,0,1-7.761-7.761V341.031a7.762,7.762,0,0,1,7.761-7.761h4.64a3.69,3.69,0,0,0,3.415,5.082h21.8a3.693,3.693,0,0,0,3.412-5.082h4.969a7.762,7.762,0,0,1,7.761,7.761Z" transform="translate(-238.314 -276.948)" fill="#fff"/>
  <path id="Path_204888" data-name="Path 204888" d="M321.945,557.866q0,1.529-.1,3.033a.681.681,0,0,1-.085,0H283.532a7.762,7.762,0,0,1-7.761-7.76V509.3A48.623,48.623,0,0,1,321.945,557.866Z" transform="translate(-238.314 -390.679)" fill="#f2f2f2"/>
  <path id="Path_204889" data-name="Path 204889" d="M266.645,419.915a.886.886,0,0,1-.885-.885v-6.016a.885.885,0,0,1,1.77,0v6.016A.886.886,0,0,1,266.645,419.915Z" transform="translate(-231.847 -327.898)" fill="#e6e6e6"/>
  <rect id="Rectangle_8519" data-name="Rectangle 8519" width="12.46" height="5.465" rx="2.732" transform="translate(58.104 87.213)" fill="#c99820"/>
  <rect id="Rectangle_8520" data-name="Rectangle 8520" width="38.417" height="5.465" rx="2.732" transform="translate(45.126 98.142)" fill="#e6e6e6"/>
  <rect id="Rectangle_8521" data-name="Rectangle 8521" width="38.417" height="5.465" rx="2.732" transform="translate(45.126 109.071)" fill="#e6e6e6"/>
  <path id="Path_204890" data-name="Path 204890" d="M343.16,587.416a.79.79,0,0,1-.572-1.369l.054-.215-.021-.052a2.121,2.121,0,0,0-3.912.015,18.833,18.833,0,0,0-1.655,4.714,6.274,6.274,0,0,0,.11,2.158,25.151,25.151,0,0,1-2.288-10.446,24.274,24.274,0,0,1,.151-2.708q.125-1.106.346-2.2a25.443,25.443,0,0,1,5.046-10.783,6.771,6.771,0,0,0,2.816-2.922,5.163,5.163,0,0,0,.47-1.411c-.137.018-.276.029-.414.038l-.13.007h-.016a.782.782,0,0,1-.643-1.275l.178-.218c.09-.112.182-.223.272-.335a.418.418,0,0,0,.029-.034l.31-.382a2.262,2.262,0,0,0-.742-.717,2.608,2.608,0,0,0-3.214.751,4.089,4.089,0,0,0-.632,3.423,9.067,9.067,0,0,0,1.254,2.8c-.056.072-.115.142-.171.214a25.608,25.608,0,0,0-2.673,4.234,10.644,10.644,0,0,0-.636-4.944,17.832,17.832,0,0,0-2.753-3.972,2.185,2.185,0,0,0-3.892,1.073l-.006.056q.224.126.438.268a1.071,1.071,0,0,1-.432,1.949l-.022,0a10.661,10.661,0,0,0,.281,1.594,10.974,10.974,0,0,0,5.464,6.877c.088.045.173.09.261.133a26.136,26.136,0,0,0-1.407,6.621,24.79,24.79,0,0,0,.018,4l-.007-.047a6.551,6.551,0,0,0-2.236-3.782c-1.721-1.414-4.152-1.934-6.009-3.071a1.229,1.229,0,0,0-1.883,1.2l.008.05a7.207,7.207,0,0,1,.807.389q.224.126.438.268a1.071,1.071,0,0,1-.432,1.949l-.022,0-.045.007a10.666,10.666,0,0,0,1.962,3.072,10.983,10.983,0,0,0,7.965,3.495h0a26.131,26.131,0,0,0,1.755,5.124H343c.022-.07.043-.142.063-.211a7.123,7.123,0,0,1-1.735-.1c.465-.571.93-1.146,1.4-1.717a.392.392,0,0,0,.029-.034c.236-.292.474-.582.71-.874h0a10.432,10.432,0,0,0-.306-2.658ZM335.98,573.29l0,0,0,.009Zm-1.389,12.521-.054-.121c0-.088,0-.175,0-.265,0-.025,0-.049,0-.074.02.155.038.31.061.465Z" transform="translate(-269.658 -422.79)" fill="#ccc"/>
  <path id="Path_204891" data-name="Path 204891" d="M266.145,386.915a.886.886,0,0,1-.885-.885v-6.016a.885.885,0,1,1,1.77,0v6.016a.886.886,0,0,1-.885.885Z" transform="translate(-231.524 -306.577)" fill="#e6e6e6"/>
  <path id="Path_204892" data-name="Path 204892" d="M334.261,334.514a.886.886,0,0,1,.885-.885h6.017a.885.885,0,1,1,0,1.77h-6.017A.886.886,0,0,1,334.261,334.514Z" transform="translate(-276.104 -277.18)" fill="#fff"/>
  <path id="Path_204893" data-name="Path 204893" d="M266.645,448.915a.886.886,0,0,1-.885-.885v-6.016a.885.885,0,1,1,1.77,0v6.016a.886.886,0,0,1-.885.885Z" transform="translate(-231.847 -346.635)" fill="#e6e6e6"/>
  <circle id="Ellipse_3198" data-name="Ellipse 3198" cx="0.885" cy="0.885" r="0.885" transform="translate(67.535 56.449)" fill="#fff"/>
  <path id="Path_204894" data-name="Path 204894" d="M830.02,661.2l-659.17.109c-.505,0-.915-.189-.915-.421s.41-.421.915-.421l659.17-.109c.505,0,.915.189.915.421S830.525,661.2,830.02,661.2Z" transform="translate(-169.934 -488.278)" fill="#cacaca"/>
  <path id="Path_204895" data-name="Path 204895" d="M498.929,372.859l-1.6.342a9.193,9.193,0,0,0-.248-1.983,5.953,5.953,0,0,1-.9,2.227l-9.158,1.956-8.792-9.279c-.013-4.639,2.563-8.165,7.182-8.165.278,0,.567.013.859.04a9.769,9.769,0,0,1,11.184,7.679C500.734,368.9,499.546,370.8,498.929,372.859Z" transform="translate(-369.124 -292.838)" fill="#2f2e41"/>
  <path id="Path_204896" data-name="Path 204896" d="M379.494,509.319h3.322l1.581-12.813h-4.9Z" transform="translate(-245.186 -320.787)" fill="#ffb6b6"/>
  <path id="Path_204897" data-name="Path 204897" d="M545.893,701.638l5.251-.313v2.25l4.992,3.448a1.405,1.405,0,0,1-.8,2.562h-6.252l-1.078-2.225-.421,2.225h-2.357Z" transform="translate(-412.409 -514.745)" fill="#2f2e41"/>
  <path id="Path_204898" data-name="Path 204898" d="M269.531,502.149l2.889,1.639,7.7-10.364-4.264-2.419Z" transform="translate(-174.141 -317.233)" fill="#ffb6b6"/>
  <path id="Path_204899" data-name="Path 204899" d="M431.516,691.448l4.722,2.319-1.11,1.957,2.641,5.463a1.405,1.405,0,0,1-1.959,1.834l-5.437-3.085.161-2.467-1.464,1.728-2.05-1.163Z" transform="translate(-336.034 -508.363)" fill="#2f2e41"/>
  <path id="Path_204900" data-name="Path 204900" d="M570.516,406.517a2.942,2.942,0,0,0-2.371,3.838l-5.083,4.4,1.92,3.741,7.091-6.314a2.958,2.958,0,0,0-1.557-5.664Z" transform="translate(-423.929 -324.251)" fill="#ffb6b6"/>
  <path id="Path_204901" data-name="Path 204901" d="M528.361,429.777c-1.7,2.568-5.5,5.048-11.136,7.247a2.421,2.421,0,0,1-1.946-.064c-2.128-.969-3.493-4.57-3.621-4.919l-4.122-5.561c-.073-.081-2-2.269-1.78-4.42a3.142,3.142,0,0,1,1.353-2.252c3.121-2.313,10.114,5.721,11.022,6.789l4.564-2.781,3.326-1.484,2.685-3.267,3.78,3.865-3.4,5.409A6.514,6.514,0,0,1,528.361,429.777Z" transform="translate(-386.894 -332.381)" fill="#2f2e41"/>
  <path id="Path_204902" data-name="Path 204902" d="M531.38,477.169s9.767,15.558,8,17.328a9.447,9.447,0,0,1-4.523,2.234l-6.094-7.9Z" transform="translate(-401.768 -369.92)" fill="#2f2e41"/>
  <path id="Path_204903" data-name="Path 204903" d="M511.761,417.129l4.6,3.114a11.874,11.874,0,0,1,4.626,13.546l-1.3,3.939Z" transform="translate(-390.785 -331.129)" fill="#2f2e41"/>
  <path id="Path_204904" data-name="Path 204904" d="M294.715,329.816l-.615,2.144L292,357.81l-10.492,19.554,5.007,3.577,14.308-18.6,5.659-18.468,8.887,40.883,6.677-.477-4.637-56.684-8.8-15.955Z" transform="translate(-181.879 -201.347)" fill="#2f2e41"/>
  <path id="Path_204905" data-name="Path 204905" d="M503.54,419.342l6.407,5.236a8.726,8.726,0,0,1,2.9,4.46h0a8.727,8.727,0,0,1,.306,2.442l-.191,11.37,5.874,15.7s-15.926,6.016-18.049.708S503.54,419.342,503.54,419.342Z" transform="translate(-383.347 -332.559)" fill="url(#linear-gradient)"/>
  <path id="Path_204906" data-name="Path 204906" d="M496.44,452.3c-7.956,0-9.895.06-10.021.034l-.126-.025v-4.785l1.935-8.6c-.226-2.669-.756-6.188-.708-9.2.173-10.892-.362-21.531-.362-21.531l4.211-3.887,1.913,1.245,3.548,3.548c4.125,10.151,7.4,19.707,7.418,20.321l.259,10.567-1.062,4.247C498.644,447.628,503.032,452.3,496.44,452.3Z" transform="translate(-374.331 -322.846)" fill="#2f2e41"/>
  <path id="Path_204907" data-name="Path 204907" d="M322.08,267.973l-.967,6.037,6.548,2.7Z" transform="translate(-207.468 -173.135)" opacity="0.2"/>
  <circle id="Ellipse_3199" data-name="Ellipse 3199" cx="6.411" cy="6.411" r="6.411" transform="translate(114.798 67.509)" fill="#ffb6b6"/>
  <path id="Path_204908" data-name="Path 204908" d="M482.067,474.9h0A11.775,11.775,0,0,0,496.2,477.76l1.4-.69Z" transform="translate(-371.6 -368.456)" opacity="0.2"/>
  <path id="Path_204909" data-name="Path 204909" d="M521.283,467.664a2.942,2.942,0,0,0-4.509.136l-6.473-1.817-2.064,3.664,9.177,2.438a2.958,2.958,0,0,0,3.869-4.421Z" transform="translate(-388.508 -362.693)" fill="#ffb6b6"/>
  <path id="Path_204910" data-name="Path 204910" d="M477.278,439.392c-3.077,0-7.241-1.8-12.184-5.3a2.42,2.42,0,0,1-1.019-1.659c-.365-2.31,1.888-5.433,2.109-5.732l2.369-6.5c.027-.106.791-2.92,2.707-3.921a3.142,3.142,0,0,1,2.624-.112c3.65,1.329.8,11.593.409,12.939l4.836,2.276,3.071,1.958,4.206.44-1.142,5.284-6.387.144A6.519,6.519,0,0,1,477.278,439.392Z" transform="translate(-359.949 -330.355)" fill="#2f2e41"/>
  <path id="Path_204911" data-name="Path 204911" d="M494.31,360.779c-.513.668-2.281,1.258-4.381,1.734,0-.044,0-.087,0-.131a9.192,9.192,0,0,0-.248-1.983,5.953,5.953,0,0,1-.9,2.227c-.034.05-.067.1-.1.151-1.8.356-3.707.631-5.2.815,1.026,3.7,4.961,6.729,4.535,8.977l-11.53,2.355a9.038,9.038,0,0,0-.221-2.784,5.993,5.993,0,0,1-1.671,3.17l-.98.2-.292-1.439c-2.529-6.075,1-12.294,6.773-15.511a7.022,7.022,0,0,1,4.448-2.986l1.439-.3A7.055,7.055,0,0,1,494.31,360.779Z" transform="translate(-365.414 -291.076)" fill="#2f2e41"/>
  <path id="Path_204912" data-name="Path 204912" d="M600.387,689.8l.17-3.833a12.38,12.38,0,0,1,5.775-1.462c-2.774,2.268-2.427,6.639-4.307,9.688a7.447,7.447,0,0,1-5.461,3.441l-2.321,1.421a12.479,12.479,0,0,1,2.63-10.112,12.053,12.053,0,0,1,2.215-2.058C599.644,688.349,600.387,689.8,600.387,689.8Z" transform="translate(-443.949 -503.877)" fill="#f2f2f2"/>
  <path id="Path_204913" data-name="Path 204913" d="M479.536,724.332H398.71a.421.421,0,1,1,0-.843h80.827a.421.421,0,0,1,0,.843Z" transform="translate(-317.471 -529.065)" fill="#cacaca"/>
</svg>
