<svg xmlns="http://www.w3.org/2000/svg" width="8.419" height="10.365" viewBox="0 0 8.419 10.365">
  <g id="delete" transform="translate(0.003 0.001)">
    <path id="Path_204321" data-name="Path 204321" d="M222.641,154.7a.243.243,0,0,0-.243.243v4.588a.243.243,0,1,0,.485,0v-4.588A.243.243,0,0,0,222.641,154.7Zm0,0" transform="translate(-217.003 -150.949)"/>
    <path id="Path_204322" data-name="Path 204322" d="M104.641,154.7a.243.243,0,0,0-.243.243v4.588a.243.243,0,0,0,.486,0v-4.588A.243.243,0,0,0,104.641,154.7Zm0,0" transform="translate(-101.867 -150.949)"/>
    <path id="Path_204323" data-name="Path 204323" d="M.686,3.085V9.065a1.339,1.339,0,0,0,.356.924,1.2,1.2,0,0,0,.867.375H6.5a1.2,1.2,0,0,0,.867-.375,1.339,1.339,0,0,0,.356-.924V3.085a.927.927,0,0,0-.238-1.824H6.245v-.3A.954.954,0,0,0,5.284,0H3.128a.954.954,0,0,0-.961.959v.3H.924A.927.927,0,0,0,.686,3.085ZM6.5,9.879H1.91a.769.769,0,0,1-.738-.813V3.106H7.24V9.065A.769.769,0,0,1,6.5,9.879ZM2.653.958A.468.468,0,0,1,3.128.484H5.284A.468.468,0,0,1,5.76.958v.3H2.653ZM.924,1.746H7.488a.437.437,0,0,1,0,.874H.924a.437.437,0,0,1,0-.874Zm0,0" transform="translate(0 0)"/>
    <path id="Path_204324" data-name="Path 204324" d="M163.641,154.7a.243.243,0,0,0-.243.243v4.588a.243.243,0,1,0,.485,0v-4.588A.243.243,0,0,0,163.641,154.7Zm0,0" transform="translate(-159.435 -150.949)"/>
  </g>
</svg>
