<svg id="delete" xmlns="http://www.w3.org/2000/svg" width="14.733" height="18.14" viewBox="0 0 14.733 18.14">
  <path id="Path_66927" data-name="Path 66927" d="M222.823,154.7a.425.425,0,0,0-.425.425v8.029a.425.425,0,0,0,.85,0v-8.029A.425.425,0,0,0,222.823,154.7Zm0,0" transform="translate(-212.95 -148.131)" fill="#e84141"/>
  <path id="Path_66928" data-name="Path 66928" d="M104.823,154.7a.425.425,0,0,0-.425.425v8.029a.425.425,0,0,0,.85,0v-8.029A.425.425,0,0,0,104.823,154.7Zm0,0" transform="translate(-99.963 -148.131)" fill="#e84141"/>
  <path id="Path_66929" data-name="Path 66929" d="M1.2,5.4V15.866a2.344,2.344,0,0,0,.623,1.617,2.092,2.092,0,0,0,1.518.656h8.038a2.092,2.092,0,0,0,1.518-.656,2.344,2.344,0,0,0,.623-1.617V5.4a1.623,1.623,0,0,0-.416-3.191H10.932V1.677A1.669,1.669,0,0,0,9.25,0H5.477A1.669,1.669,0,0,0,3.795,1.677v.531H1.62A1.623,1.623,0,0,0,1.2,5.4Zm10.179,11.89H3.344a1.345,1.345,0,0,1-1.291-1.423V5.437H12.674v10.43A1.345,1.345,0,0,1,11.382,17.289ZM4.645,1.677A.818.818,0,0,1,5.477.848H9.25a.818.818,0,0,1,.833.828v.531H4.645ZM1.62,3.058H13.107a.765.765,0,1,1,0,1.529H1.62a.765.765,0,1,1,0-1.529Zm0,0" transform="translate(0.003 0.001)" fill="#e84141"/>
  <path id="Path_66930" data-name="Path 66930" d="M163.823,154.7a.425.425,0,0,0-.425.425v8.029a.425.425,0,0,0,.85,0v-8.029A.425.425,0,0,0,163.823,154.7Zm0,0" transform="translate(-156.457 -148.131)" fill="#e84141"/>
</svg>
