<svg xmlns="http://www.w3.org/2000/svg" xmlns:xlink="http://www.w3.org/1999/xlink" width="358.218" height="327.338" viewBox="0 0 358.218 327.338">
  <defs>
    <linearGradient id="linear-gradient" x1="1.253" y1="1.466" x2="0.238" y2="1.466" gradientUnits="objectBoundingBox">
      <stop offset="0" stop-color="#a8acf3"/>
      <stop offset="0.807" stop-color="#a9a9f0"/>
      <stop offset="1" stop-color="#b2b1f0"/>
    </linearGradient>
  </defs>
  <g id="Group_57558" data-name="Group 57558" transform="translate(-168 -366.303)">
    <g id="Group_33" data-name="Group 33" transform="translate(239.77 584.65)">
      <g id="Group_32" data-name="Group 32">
        <path id="Path_10" data-name="Path 10" d="M560.671,393.387c.053,2.458,4.186,5.249,9.29,8.312.143.086.285.173.433.255,3.006,1.8,6.313,3.691,9.308,5.668l.416.274c1.167.782,2.278,1.578,3.3,2.382.1.08.193.159.292.239,3.078,2.477,5.264,5.072,5.478,7.77.41,5.194,5.4,10.581,10.911,9.331.1-.026.212-.051.321-.085,5.251-1.434,10.886-9,13.411-28.555l.237-.746c.035-.115.075-.243.114-.384.794-2.57,2.769-9.205,4.455-16.63.042-.185.084-.374.125-.564a123.322,123.322,0,0,0,2.32-13.267l.039-.394c.7-6.893.252-12.562-2.706-13.995a7.871,7.871,0,0,0-1.372-.517,3.183,3.183,0,0,0-.326-.076c-3.954-.862-6.814,2.391-9.634,5.66-.033.036-.063.067-.092.1-.093.1-.181.207-.274.311-2.493,2.881-4.993,5.641-8.22,5.459-2.088-.116-3.916-3.493-5.7-8.281l-.116-.324c-2.361-6.425-4.643-15.265-7.329-22.252-.042-.1-.081-.2-.119-.3-2.467-6.33-5.276-11.062-8.795-10.96-.114,0-.223.012-.336.025h-.017c-7.023.843-8.037,12.737-6.794,26.842.013.13.022.261.035.391.653,7.214,1.89,14.98,3.2,22.131.091.5.173.982.246,1.451.022.139.044.279.062.413a23.14,23.14,0,0,1-.11,9.04c-.032.11-.062.221-.09.327-2.3,7.829-10.692,5.5-11.906,10.373a2.127,2.127,0,0,0-.044.242A1.617,1.617,0,0,0,560.671,393.387Z" transform="translate(-560.67 -321.821)" fill="#ededed"/>
        <path id="Path_11" data-name="Path 11" d="M579.767,396.2a14.82,14.82,0,0,1-9.456,5.5c.143.086.285.173.433.255a15.037,15.037,0,0,0,9.349-5.646c2.289.744,4.5,1.555,6.543,2.367a.514.514,0,0,1,.032.06l.056-.027c6.29,2.5,10.962,4.955,11.358,5.164.647,4.2,1.131,8.272,1.488,11.926a43.072,43.072,0,0,0-4.579-2.924c-.837-1.212-5.141-6.6-14.94-5.251l.416.274c8.272-1,12.434,2.9,13.834,4.613-3.221-1.69-7.434-3.11-10.532-2.231.1.08.193.159.292.239,3.172-.895,7.457.85,10.726,2.644.046.068.074.115.078.119l.069-.041a43.606,43.606,0,0,1,4.682,3c.457,4.782.7,8.806.835,11.38.1-.026.212-.051.321-.085-.184-3.721-.618-10.383-1.568-17.984l.1.045c.042-.075,3.974-7.734,15.119-11.362.035-.115.075-.243.114-.384a31.028,31.028,0,0,0-8.483,4.166c1.124-8.887,9.305-17.408,12.938-20.8.042-.185.084-.374.125-.564-3.491,3.2-12.411,12.227-13.431,21.621a23.726,23.726,0,0,0-6.527,6.9,150.242,150.242,0,0,0-4.27-21.976l.019.025a105.239,105.239,0,0,0,9.324-9.581l.066.011s.007-.049.014-.105a86.562,86.562,0,0,0,6.011-7.826l-.007.166c.017,0,.4.013,1.031-.009a23.668,23.668,0,0,0,10.09-2.5l.039-.394c-4.482,2.574-10.223,2.586-11.049,2.576,3.617-5.389,6.549-11.4,6.97-17.087a3.18,3.18,0,0,0-.326-.076c-.6,8.51-6.917,17.757-12.68,24.553.383-2.853,1.915-14.153,3.046-18.893-.033.036-.063.067-.092.1-.093.1-.181.207-.274.311-1.215,5.105-2.848,17.243-3.071,18.937a106.039,106.039,0,0,1-9.206,9.469c-.638-2.185-1.339-4.289-2.115-6.263-1.331-3.389-2.772-6.8-4.169-10.1q-.827-1.958-1.655-3.933c-.12-4.915,3.892-8.955,6.294-10.929l-.116-.324c-2.317,1.884-6.213,5.736-6.492,10.5-3.223-7.759-6.289-15.733-8.117-24.353.165-.665,1.94-7.289,7.281-8.4-.042-.1-.081-.2-.119-.3-4.72,1-6.724,6.146-7.307,8.01a74.974,74.974,0,0,1-1.488-18.97c-.114,0-.223.012-.336.025-.573,11.476,1.619,21.643,4.833,31.181a51.149,51.149,0,0,1-11.645-4.338c.013.13.022.261.035.391a52.354,52.354,0,0,0,11.732,4.314c1.544,4.535,3.312,8.931,5.12,13.261,0,.035,0,.065,0,.1h.043q.815,1.95,1.637,3.894c.794,1.873,1.6,3.785,2.393,5.712-1.643,0-11.551-.182-17.473-3.7.021.139.044.279.062.413,6.217,3.541,16.4,3.612,17.544,3.612.557,1.348,1.11,2.706,1.638,4.056,2.632,6.7,4.43,14.91,5.649,22.729-1.05-.55-5.43-2.781-11.154-5.054-.8-1.48-6.843-12.284-13.788-16.3-.032.11-.062.221-.09.327,6.443,3.777,12.106,13.463,13.4,15.786-7.724-3.039-17.75-6.06-25.349-5.171a1.613,1.613,0,0,0-.019.328C566.575,392.722,573.454,394.181,579.767,396.2Z" transform="translate(-561.021 -321.821)" opacity="0.5" fill="url(#linear-gradient)" style="mix-blend-mode: screen;isolation: isolate"/>
      </g>
      <path id="Path_12" data-name="Path 12" d="M596.869,382.638a7.206,7.206,0,0,1,4.578-4.067C600.761,381.97,596.869,382.638,596.869,382.638Zm7.2,3.34c-2.577.109-3.2-2.751-3.2-2.751A4.166,4.166,0,0,1,604.065,385.978Zm-10.154-8.227a8.377,8.377,0,0,1,5.522-6.436C599.659,376.5,593.911,377.751,593.911,377.751Zm22.277-3.489a5.921,5.921,0,0,1,5.942.793C619.148,377.186,616.188,374.263,616.188,374.263Zm-10.358-1.689a5.922,5.922,0,0,1,2.445,5.474C604.9,376.627,605.831,372.573,605.831,372.573Zm-3.619,4.916c3.146,1.459,2.891,5.4,2.891,5.4A7.2,7.2,0,0,1,602.212,377.489Zm9.627-6.93a4.169,4.169,0,0,1,.516,4.187C610.375,373.093,611.839,370.559,611.839,370.559Zm-36.562-18.544c1.632,2-.284,4.209-.284,4.209A4.168,4.168,0,0,1,575.277,352.015Zm-7.5,2.024a5.923,5.923,0,0,1,5.611,2.112C570,357.553,567.775,354.039,567.775,354.039Zm11.072-1.869c1.875,2.917-.454,6.106-.454,6.106A7.2,7.2,0,0,1,578.847,352.17Zm11.314,19.8a8.378,8.378,0,0,1,4.26-7.333C595.585,369.69,590.161,371.971,590.161,371.971Zm-3.85-5.561a7.205,7.205,0,0,1,4.577-4.067C590.2,365.742,586.311,366.409,586.311,366.409Zm-5.7-5.542a7.205,7.205,0,0,1,3.148-5.252C584.125,359.064,580.613,360.868,580.613,360.868Zm2.886,3.09a8.378,8.378,0,0,1,4.26-7.332C588.922,361.678,583.5,363.957,583.5,363.957Zm4.947,23.29a7.2,7.2,0,0,1,5.965-1.386C592.183,388.52,588.445,387.247,588.445,387.247Zm1.973-6.667c-2.25,2.893-5.921.937-5.921.937A5.923,5.923,0,0,1,590.418,380.58Zm-10.57-15.474c-2.227,2.658-5.965,1.386-5.965,1.386A7.206,7.206,0,0,1,579.848,365.107Zm7.844,9.715c-2.613,4.478-8.126,2.422-8.126,2.422A8.378,8.378,0,0,1,587.692,374.822Zm-3.716-5.558c-2.614,4.478-8.126,2.422-8.126,2.422A8.378,8.378,0,0,1,583.977,369.263Zm28.949,8.936a5.922,5.922,0,0,1,5.585,2.18C615.107,381.741,612.925,378.2,612.925,378.2ZM572.67,358.866c-2.1,1.5-4.181-.561-4.181-.561A4.167,4.167,0,0,1,572.67,358.866Zm3.536,2.425c-.6,2.509-3.521,2.325-3.521,2.325A4.168,4.168,0,0,1,576.206,361.291Zm37.385,26.883c-3.4,1.362-5.585-2.18-5.585-2.18A5.922,5.922,0,0,1,613.591,388.174Zm-16.561,2.99c-3.61,3.721-8.47.407-8.47.407A8.378,8.378,0,0,1,597.03,391.164Zm16.175.267c-2.748,2.426-5.993-.176-5.993-.176A5.924,5.924,0,0,1,613.206,391.431Zm-2.829-9.8a4.168,4.168,0,0,1,4.118.918C612.273,383.862,610.376,381.633,610.376,381.633Zm-3.6,15.7a8.378,8.378,0,0,1,7.813-3.3C612.476,398.768,606.772,397.328,606.772,397.328ZM574.535,358.2l.314-.4c14.509,11.3,23.257,28.064,28.04,40.133.618,1.559,1.186,3.08,1.71,4.554a56.241,56.241,0,0,1,.347-10.713c1.217-8.916,4.8-14.883,10.371-17.252l.2.469c-12.582,5.355-10.45,27.561-10.246,29.432a122.716,122.716,0,0,1,4.594,17.227l-.5.083a122.019,122.019,0,0,0-4.565-17.122l-.017,0-.01-.082c-.692-2.038-1.472-4.187-2.354-6.411C597.654,386.112,588.954,369.437,574.535,358.2Z" transform="translate(-567.278 -326.978)" fill="#c99820"/>
    </g>
    <g id="Group_35" data-name="Group 35" transform="translate(200.135 396.667)">
      <g id="Group_34" data-name="Group 34">
        <path id="Path_13" data-name="Path 13" d="M627.56,175.767c20.5,8.6,20.468,23.056,26.3,20.846a3.662,3.662,0,0,0,.8-.4c4.028-2.728-2.512-11.9,4.767-31.851,4.6-12.626,13.761-35.737,5.473-41.239-7.1-4.7-11.294,15.331-21.689,9.379-7.557-4.326,8.457-15.156,2.319-20.61-6.8-6.042-12.15,9.362-17.335,2.721s-2.445-20.87-9.836-19.383c-.116.022-.227.055-.329.082-6.962,1.75-4.305,12.632-2.213,19.679,2.124,7.158,3.241,9.184.99,9.66s-12.143-4.859-13.911,2.048,16.393,12.157,19.37,21.229-12.939-.639-12.2,8.741C610.493,162.058,617.375,171.5,627.56,175.767Z" transform="translate(-602.773 -95.119)" fill="#ededed"/>
        <path id="Path_14" data-name="Path 14" d="M618.836,162.175l22.05,6.315-8.452-23.614-.013.025-16.354-9.215,15.65,7.186-9.87-27.578,6.564,15.861,8.576-7.88-7.959,9.372,10.015,24.2,18.94-15.9-18.355,17.316,12.5,30.522-2.894,1.116L641.5,170.214Z" transform="translate(-603.539 -98.565)" fill="#252437"/>
      </g>
    </g>
    <path id="Path_15" data-name="Path 15" d="M610.339,161.324c-3.247-.266-21.336-2.057-18.518-8.783,2.7-6.449,15.162,4.966,18.272,7.959-1.411-4.859-2.572-9.448-3.527-13.792-4.575-.43-20.455-2.386-17.8-8.719,2.509-5.988,13.43,3.424,17.469,7.2-.906-4.285-1.6-8.316-2.123-12.108-3.6-1.668-18.937-9.2-14.146-14.412,4.339-4.724,11.3,7.477,13.894,12.514a129.379,129.379,0,0,1-1-13.611c-3.42-2.26-17.272-11.9-11.793-16.315,4.9-3.95,9.869,8.576,11.775,14.122a88.511,88.511,0,0,1,1.2-14.819c-2.954-3.211-13.747-15.588-7.452-18.536,5.452-2.553,7.375,9.565,7.993,15.732.17-.794.347-1.56.532-2.289a55.439,55.439,0,0,1,2.916-8.6c-1.918-3.35-10.165-18.51-3.2-19.991,6.2-1.32,4.906,12.332,4.1,18.059,3.033-6.153,6.164-8.925,6.784-9.432.786-5.343,3.442-19.406,9.339-16.643,5.954,2.79-4.229,13.543-8.058,17.3a.736.736,0,0,1-.264.438c-.047.036-3.346,2.676-6.527,9.159,4.119-3.671,14.971-12.538,17.705-6.7,3.028,6.469-14.586,7.966-18.418,8.213A53.286,53.286,0,0,0,606.514,96c-.279,1.117-.543,2.317-.785,3.59,3.854-3.371,15.452-12.8,18.175-6.735,2.886,6.429-14.245,7.7-18.389,7.914a88.279,88.279,0,0,0-1.18,15.883c3.436-3.054,15.7-13.329,18.516-7.069,2.928,6.5-14.617,7.749-18.507,7.946a128.673,128.673,0,0,0,1.1,14.316c3.074-3.348,14.291-14.884,17.737-8.924,3.57,6.174-13.794,9.186-17.624,9.769.561,4.124,1.337,8.541,2.364,13.263,2.634-3.2,13.631-15.906,17.445-10.006,3.935,6.086-13.889,9.987-17.3,10.671.946,4.273,2.091,8.785,3.481,13.563,2.683-3.252,13.618-15.854,17.42-9.975,3.906,6.042-13.629,9.93-17.217,10.655q1.368,4.653,3.036,9.625a.744.744,0,0,1-.351.892.7.7,0,0,1-.116.051.743.743,0,0,1-.943-.467Q611.7,165.978,610.339,161.324Z" transform="translate(-352.068 307.803)" fill="#c99820"/>
    <g id="Group_36" data-name="Group 36" transform="translate(235.584 406.387)">
      <path id="Path_16" data-name="Path 16" d="M507.856,336.523c.1-.92.25-1.829.436-2.73a30.145,30.145,0,0,1,25.961-23.66,29.543,29.543,0,0,1,26.529,10.883,30.573,30.573,0,0,1,5.831,26.045,28.815,28.815,0,0,1-21.82,21.821C523.687,373.553,505.571,356.756,507.856,336.523ZM538.042,106.84c41.645,0,71.339,22.526,71.683,69.631H566.372c1.708-19.8-9.212-31.06-28.33-31.06-13.306,0-26.965,5.8-26.965,23.891,0,24.235,48.814,22.526,48.814,72.37v50.856h-43.7V241.672c0-23.557-48.47-32.09-48.47-72.37C467.724,126.292,502.888,106.84,538.042,106.84Z" transform="translate(-467.724 -106.84)" fill="#775200"/>
    </g>
    <g id="Group_37" data-name="Group 37" transform="translate(242.08 406.387)">
      <path id="Path_17" data-name="Path 17" d="M530.215,106.84c41.643,0,71.337,22.53,71.677,69.629H558.541c1.708-19.793-9.213-31.054-28.326-31.054-13.309,0-26.966,5.8-26.966,23.889,0,15.34,19.561,20.282,33.915,34.487,8.325,8.234,14.9,19.586,14.9,37.878v50.864h-43.7V241.669c0-23.55-48.476-32.09-48.476-72.365C459.89,126.293,495.057,106.84,530.215,106.84ZM500.024,336.522c.108-.92.249-1.832.439-2.728a30.171,30.171,0,0,1,23.74-23.317c.73-.141,1.468-.257,2.222-.34a29.929,29.929,0,0,1,10.763.713,29.5,29.5,0,0,1,15.763,10.166,30.571,30.571,0,0,1,5.829,26.045,28.816,28.816,0,0,1-21.816,21.825C515.853,373.555,497.743,356.755,500.024,336.522Z" transform="translate(-459.89 -106.84)" fill="#c38c11"/>
    </g>
    <g id="Group_40" data-name="Group 40" transform="translate(403.533 493.847)">
      <rect id="Rectangle_3" data-name="Rectangle 3" width="84.378" height="48.482" transform="translate(0)" fill="#ededed"/>
      <g id="Group_39" data-name="Group 39" transform="translate(23.392 20.522)">
        <ellipse id="Ellipse_1" data-name="Ellipse 1" cx="3.719" cy="3.719" rx="3.719" ry="3.719" transform="translate(0)" fill="#f9fbfc"/>
        <ellipse id="Ellipse_2" data-name="Ellipse 2" cx="3.719" cy="3.719" rx="3.719" ry="3.719" transform="translate(15.078)" fill="#f9fbfc"/>
        <ellipse id="Ellipse_3" data-name="Ellipse 3" cx="3.719" cy="3.719" rx="3.719" ry="3.719" transform="translate(30.156)" fill="#f9fbfc"/>
      </g>
      <path id="Path_18" data-name="Path 18" d="M415.631,270.334v15.073l17.249-17.249Z" transform="translate(-415.631 -221.852)" fill="#ededed"/>
    </g>
    <rect id="Rectangle_4" data-name="Rectangle 4" width="307.629" height="25.058" transform="translate(193.295 668.584)" fill="#f9fbfc"/>
    <rect id="Rectangle_5" data-name="Rectangle 5" width="358.218" height="7.725" rx="3.863" transform="translate(168 668.584)" fill="#f2f2f2"/>
    <g id="Group_42" data-name="Group 42" transform="translate(389.081 486.783)">
      <path id="Path_71116" data-name="Path 71116" d="M15.875,0A15.875,15.875,0,1,1,0,15.875,15.875,15.875,0,0,1,15.875,0Z" transform="translate(0 0)" fill="#252437"/>
      <g id="Group_41" data-name="Group 41" transform="translate(6.526 10.485)">
        <path id="Path_19" data-name="Path 19" d="M427.745,227.22a1.137,1.137,0,0,1-1.059-.724l-3.165-8.109a1.137,1.137,0,1,1,2.119-.827l2.691,6.892,14.088-7.868a1.137,1.137,0,1,1,1.109,1.986l-15.228,8.5A1.139,1.139,0,0,1,427.745,227.22Z" transform="translate(-423.443 -216.441)" fill="#fff"/>
      </g>
    </g>
    <path id="Path_20" data-name="Path 20" d="M667.056,211.842l-2.215,6.028-6.028,2.215,6.028,2.215,2.215,6.028,2.214-6.028,6.028-2.215-6.028-2.215Z" transform="translate(-456.165 281.613)" fill="#ededed"/>
    <path id="Path_21" data-name="Path 21" d="M492.661,71.186l-2.215,6.028-6.028,2.215,6.028,2.215,2.215,6.028,2.215-6.028,6.028-2.215-6.028-2.215Z" transform="translate(-137.16 305.637)" fill="#ededed"/>
    <g id="Group_52" data-name="Group 52" transform="translate(322.206 530.731)">
      <g id="Group_43" data-name="Group 43" transform="translate(27.414 30.325)">
        <path id="Path_22" data-name="Path 22" d="M428.25,333.468a3.316,3.316,0,0,1,2.313-.444c6.637,1.182,40.1,7.322,41,11.164,1,4.265-43.586-2.037-44.567-4.147C426.092,338.1,424.318,335.889,428.25,333.468Z" transform="translate(-408.852 -300.131)" fill="#c99820"/>
        <path id="Path_23" data-name="Path 23" d="M477.491,294.848a4.923,4.923,0,0,0-1.322,5.088c2.34,8.147,10.633,35.324,16.772,34.044,7.217-1.505-1.577-25.18-4.992-31.714C485.1,296.821,480.932,291.851,477.491,294.848Z" transform="translate(-474.567 -293.465)" fill="#c99820"/>
        <path id="Path_24" data-name="Path 24" d="M451.417,301.582a31.709,31.709,0,0,0,1.7,4.327s8.682,25.962,13.39,28.024,25.015,3.974,25.015,3.974l.176-1.151,1.078-6.936-20.01-4.708s-5.2-17.085-7.215-21.923c-2.655-6.388-7.131-10.232-11.839-9.786C449.848,293.763,450.368,298.109,451.417,301.582Z" transform="translate(-450.659 -293.367)" fill="#c99820"/>
        <path id="Path_25" data-name="Path 25" d="M451.959,302.432a31.7,31.7,0,0,0,1.7,4.327s8.682,25.963,13.39,28.024,25.015,3.974,25.015,3.974l.176-1.151-.056-.028a72.732,72.732,0,0,0-12.925-3.742c-4.615-.91-6.286-2.478-8.877-9.7-3.454-9.629-9.276-25.785-9.276-25.785Z" transform="translate(-451.201 -294.217)" fill="#c99820" opacity="0.3" style="mix-blend-mode: multiply;isolation: isolate"/>
      </g>
      <path id="Path_26" data-name="Path 26" d="M434.5,404.666c-.949,4.213,2.1,8.479,6.586,9.294a52.926,52.926,0,0,0,14.59.405c15.451-1.505,33.849.793,36.641-4.664s-6.664-10.874-21.809-12.2c-13.689-1.195-29.731-6.141-32.555-2.536C436.52,396.794,435.326,400.98,434.5,404.666Z" transform="translate(-409.726 -280.174)" fill="#f2bc97"/>
      <path id="Path_27" data-name="Path 27" d="M434.461,390.724c2.31,3.648,7.481,4.508,11.229,1.911a52.967,52.967,0,0,0,10.6-10.035c9.856-11.994,24.486-23.384,22.6-29.216s-12.51-3.556-24.151,6.223c-10.522,8.839-25.251,17.274-24.7,21.82C430.323,383.73,432.44,387.532,434.461,390.724Z" transform="translate(-392.417 -272.75)" fill="#f2bc97"/>
      <g id="Group_45" data-name="Group 45" transform="translate(9.003)">
        <g id="Group_44" data-name="Group 44" transform="translate(0.967 3.704)">
          <path id="Path_28" data-name="Path 28" d="M496.023,271.858c.076,5.1,5.188,13.448,5.188,13.448l-1.512,5.289,1.362,5.012,8.185,3.98,2.2-8.225.074-1.708.159-3.619s4.788-.76,5.208-4.671c.4-3.929,4.536-18.151-6.659-19.841S495.922,266.764,496.023,271.858Z" transform="translate(-496.02 -261.263)" fill="#f2bc97"/>
        </g>
        <path id="Path_29" data-name="Path 29" d="M503.6,291a5.411,5.411,0,0,1,3.29,3.732l.159-3.619S506.362,291.157,503.6,291Z" transform="translate(-490.417 -262.638)" fill="#f2bc97" opacity="0.5" style="mix-blend-mode: multiply;isolation: isolate"/>
        <path id="Path_30" data-name="Path 30" d="M514.692,270.333s-11.518-1.872-12.3,1.365.239,5.833-.633,6.113-3-4.88-4.652-3.033,1.727,6.028.519,9.136c-.444,1.143-5.973-9.213-5.877-14.254s3.408-10.7,11.359-11.007c3.022-.118,11.706-3.014,13.818-1.333C520.374,260.061,515.88,268.147,514.692,270.333Z" transform="translate(-491.75 -256.796)"/>
      </g>
      <g id="Group_46" data-name="Group 46" transform="translate(79.637 76.813)">
        <path id="Path_31" data-name="Path 31" d="M372.187,349.5c-13.954,2.643,35.943,48.826,49.317,57.308s-1.24-9.9-17.647-28.654S377.677,348.457,372.187,349.5Z" transform="translate(-369.749 -349.43)" fill="#f2bc97"/>
        <path id="Path_32" data-name="Path 32" d="M381.071,412.431l-6-6.512-4.912,6.563,5.683,4.847" transform="translate(-324.425 -359.078)" fill="#f2bc97"/>
        <path id="Path_33" data-name="Path 33" d="M354.628,413.277a32.219,32.219,0,0,0,9.544-.473c6.2-1.03,6.5-2.549,7.613-1.659S357.668,426.4,357.668,426.4l-8.272-8.229S354.4,413.071,354.628,413.277Z" transform="translate(-297.981 -359.924)"/>
      </g>
      <g id="Group_47" data-name="Group 47" transform="translate(77.702 120.355)">
        <path id="Path_34" data-name="Path 34" d="M345.088,407.019c-9.286,10.745,58.247,14.956,74,13.286s-6.863-6.036-31.376-10.528S348.742,402.792,345.088,407.019Z" transform="translate(-344.215 -402.437)" fill="#f2bc97"/>
        <path id="Path_35" data-name="Path 35" d="M358.913,423.879l-8.494-.368,1.485-8.256,7.932,1.517" transform="translate(-284.887 -404.215)" fill="#f2bc97"/>
        <path id="Path_36" data-name="Path 36" d="M336.5,414.5a32.213,32.213,0,0,0,7.064-6.435c4.131-4.74,3.4-6.1,4.82-6.122s-1.189,20.753-1.189,20.753L335.575,421.6S336.194,414.481,336.5,414.5Z" transform="translate(-261.55 -401.941)"/>
      </g>
      <path id="Path_37" data-name="Path 37" d="M375.2,382.729,406.822,396.6l6.5-7.1L431.667,369.5s11.864,11.651,19.359,17.858c1.024.852,2.11,1.714,3.225,2.566,8.437,6.5,18.578,12.757,18.578,12.757l8.873-6.054s-35.949-48.737-50.572-49.173c-9.036-.264-28.72,17.107-28.72,17.107l-22.847,15.262-.547.365Z" transform="translate(-349.603 -272.278)" fill="#252437"/>
      <path id="Path_38" data-name="Path 38" d="M408.308,383.738l.213.132,20.677,12.3,13.63-2.982,18.345-20.007s11.864,11.651,19.359,17.858c1.024.852,2.109,1.714,3.225,2.566-12.362-11.094-20.961-24.146-23.2-24.551-2.911-.527-10.192,9.259-18.253,14.146s-13.66-2.64-13.66-2.64l-19.572,2.945Z" transform="translate(-379.108 -275.966)" fill="#ea5e75" opacity="0.5" style="mix-blend-mode: multiply;isolation: isolate"/>
      <path id="Path_39" data-name="Path 39" d="M378.071,418.642c19.248,1.724,38.556-1.46,39.205-1.46,2.646,0,12.1,1.541,28.465,2.992,26.427,2.342,37.683.78,37.683.78l.01-.254.091-2.291.284-7.271L372.757,389.923l-10.921,8.285-5.882,4.452S355.366,416.613,378.071,418.642Z" transform="translate(-335.749 -279.533)" fill="#252437"/>
      <path id="Path_40" data-name="Path 40" d="M378.524,420.348c19.248,1.724,38.556-1.46,39.2-1.46,2.646,0,12.1,1.541,28.465,2.992,26.427,2.342,37.683.78,37.683.78l.01-.254c-40.5.254-60.723-6.52-66.575-7.28-5.892-.781-32.927,1.785-41.892-.893-8.974-2.7-6.023-11.672-6.023-11.672l-7.109-2.647-5.882,4.452S355.819,418.32,378.524,420.348Z" transform="translate(-336.202 -281.239)" fill="#ea5e75" opacity="0.5" style="mix-blend-mode: multiply;isolation: isolate"/>
      <g id="Group_49" data-name="Group 49" transform="translate(0.881 30.075)">
        <g id="Group_48" data-name="Group 48">
          <path id="Path_41" data-name="Path 41" d="M473.685,337.019l.055.149c1.8,6.323,3.436,11.644,4.141,13.909a52.765,52.765,0,0,1,1.6,7c.613,3.612.966,7.29,1.4,10.855.483,3.779.575,7.307.7,8.57.084.947-.065,8.58,1.179,8.626a56.712,56.712,0,0,0,9.638-.715,10.985,10.985,0,0,0,5.581-2.275c3.008-2.748,2.888-7.855,5.98-10.483,2.173-1.82,5.265-1.9,7.9-2.9a23.683,23.683,0,0,0,6.825-4.67,14.026,14.026,0,0,0,1.392-1.273c.576-.6,1.5-1.624,1.411-2.469l-.083-.325c-.093-.195-.455-.436-.595-.595a18.333,18.333,0,0,1-2.015-2.692,37.383,37.383,0,0,1-3.621-7.753c-.668-1.876-1.217-3.789-1.7-5.693-.381-1.476-.78-2.98-1.161-4.541-.009-.056-.028-.1-.037-.158-.075-.288-.148-.585-.223-.882l-.511-1.9c-.269-1.068-.556-2.126-.826-3.185-.343-1.356-.706-2.73-1.068-4.076-.056-.25-.121-.492-.177-.734-.288-1.142-.6-2.284-.9-3.389-.631-2.377-1.244-4.726-1.848-6.955-2.368-8.849-4.662-16.008-5.7-18.691-1.068-2.749-2.516-4.513-4.336-5.469a2.346,2.346,0,0,0-.362-.158,11.111,11.111,0,0,0-3.8-1c-.315-.036-.613-.065-.882-.074a11.113,11.113,0,0,0-1.736.074,10.242,10.242,0,0,0-1.829.307s.5,4.057-3.184,5.061c-4.188,1.16-8.692-2.488-8.692-2.488s-2.144.779-4.661,2c-1.272.595-7.363,3.482-8,6.528C462.486,309.637,469.766,323.3,473.685,337.019Z" transform="translate(-463.44 -293.066)" fill="#d3a936"/>
        </g>
      </g>
      <path id="Path_42" data-name="Path 42" d="M471.062,327.417s9.081,20.613,15.079,22.526c4.866,1.551,23.233,1.356,31.311,5.906-.668-1.876-1.216-3.789-1.7-5.692-.381-1.476-.78-2.98-1.161-4.541-.009-.056-.028-.1-.037-.158l-23.966-4.513Z" transform="translate(-464.84 -268.858)" fill="#275291" opacity="0.3" style="mix-blend-mode: multiply;isolation: isolate"/>
      <path id="Path_43" data-name="Path 43" d="M463.44,371.468c.609,3.61.964,7.291,1.4,10.85.487,3.783.578,7.312.7,8.579.081.944-.071,8.58,1.176,8.62a56.841,56.841,0,0,0,9.644-.71,11.024,11.024,0,0,0,5.577-2.282c3.012-2.748,2.891-7.849,5.983-10.475,2.171-1.825,5.264-1.906,7.9-2.9a23.613,23.613,0,0,0,6.825-4.675,13.7,13.7,0,0,0,1.389-1.267c.578-.609,1.5-1.623,1.41-2.474l-.081-.325S473.085,388.24,463.44,371.468Z" transform="translate(-446.518 -276.381)" fill="#275291" opacity="0.3" style="mix-blend-mode: multiply;isolation: isolate"/>
      <path id="Path_44" data-name="Path 44" d="M510.151,405.293" transform="translate(-489.952 -282.158)" fill="#f2bc97"/>
      <path id="Path_45" data-name="Path 45" d="M502.776,305.463a5.064,5.064,0,0,0-.92,5.5c4.035,8.407,18.023,36.364,24.447,33.847,7.552-2.958-6.336-27.024-11.24-33.484C510.976,305.942,505.959,301.58,502.776,305.463Z" transform="translate(-501.053 -264.854)" fill="#f2bc97"/>
      <g id="Group_51" data-name="Group 51" transform="translate(55.597 52.745)">
        <path id="Path_46" data-name="Path 46" d="M439.16,320.407l-8.913,23.263s-24.266,1.929-24.43,2.124l9.6-24.906S439.52,320.375,439.16,320.407Z" transform="translate(-388.048 -320.405)" fill="#c99820"/>
        <g id="Group_50" data-name="Group 50" transform="translate(0 21.071)">
          <path id="Path_47" data-name="Path 47" d="M444.473,349.057l17.831.991.576-1.495.656-1.7-18.877-1.041-.1,1.626Z" transform="translate(-444.473 -345.816)" fill="#252437"/>
        </g>
        <path id="Path_48" data-name="Path 48" d="M444.745,320.987l-.9.078-9.391,24.707.745.032Z" transform="translate(-417.376 -320.505)" fill="#dbaa1b"/>
        <path id="Path_49" data-name="Path 49" d="M425.8,335.066a1.616,1.616,0,1,1-.816-2.372A1.794,1.794,0,0,1,425.8,335.066Z" transform="translate(-388.822 -322.491)" fill="#dbaa1b"/>
      </g>
      <path id="Path_50" data-name="Path 50" d="M453.292,348.364a5.247,5.247,0,0,0,.863,1.5c.343.427.7.845,1.012,1.244.743.966,13.1.473,24.867-.779,1.485-.158,2.961-.325,4.4-.5l.446-.056c3.807-.483,7.354-1.059,10.186-1.672l.269-.056a23.687,23.687,0,0,0,3.082-.845h.019c1.476-.539,1.82-1.077,1.485-1.755-.779-1.643-6.731-2.59-15.386-2.757-.278,0-.547-.01-.826-.01-1.411-.018-2.851-.027-4.3-.036-9.388-.019-18.923.362-22.219.52a3.485,3.485,0,0,0-2.266.984c-.084.093-.176.177-.26.279C453.1,346.033,452.92,347.287,453.292,348.364Z" transform="translate(-432.556 -271.457)" fill="#f2bc97"/>
      <path id="Path_51" data-name="Path 51" d="M457.786,317.506s14.225,26.677,20.01,27.754,29.23-1.272,29.23-1.272l-.065-.595.446-.056c3.807-.483,7.354-1.059,10.186-1.672l.269-.056a23.67,23.67,0,0,0,3.082-.845c-.752.074-6.778.659-14.114,1.281-11.839.975-27.094,2.024-29.22,1.068a7.486,7.486,0,0,1-1.792-1.179c-3.306-2.758-7.531-9.267-13.52-19.3-6.128-10.279-6.045-16.194-5.9-17.633C452.771,308.452,457.786,317.506,457.786,317.506Z" transform="translate(-455.083 -265.029)" fill="#f2bc97" opacity="0.5" style="mix-blend-mode: multiply;isolation: isolate"/>
      <path id="Path_52" data-name="Path 52" d="M474.565,317.24s14.225,26.677,20.01,27.754,29.23-1.272,29.23-1.272l-.066-.595-.13-1.347-.594-5.8-.093-.881s-22.656,0-23.055-.1S490.852,317.24,488,313.024c-2.368-3.519-6.872-9.518-11.4-9.582a5.1,5.1,0,0,0-2.72.752,3.637,3.637,0,0,0-.7.538,2.91,2.91,0,0,0-.53.65C470.108,309.2,474.565,317.24,474.565,317.24Z" transform="translate(-471.863 -264.763)" fill="#c99820"/>
      <path id="Path_53" data-name="Path 53" d="M445.276,345.087a6.178,6.178,0,0,1,4.373-3.294c3.007-.372,4.935.765,5.68,1.676.636.779.849,2.478.068,2.177s-2.872-1.6-3.783-.366a3.978,3.978,0,0,1-4.877,1.305Z" transform="translate(-381.906 -271.3)" fill="#f2bc97"/>
      <path id="Path_54" data-name="Path 54" d="M472.882,305.061a2.82,2.82,0,0,1,.3-.328,3.637,3.637,0,0,1,.7-.538,5.1,5.1,0,0,1,2.72-.752c-3.9,1.142-2.423,7.029-2.423,7.029l-.022-.008a54.965,54.965,0,0,0,5.414,11.525c1.7,2.856,5.31,5.55,6.692,7.872,3.474,5.843,3.974,9.836,6.339,11.81a7.486,7.486,0,0,0,1.792,1.179c2.126.956,17.382-.093,29.22-1.068l.13,1.347.065.595s-23.446,2.358-29.23,1.272-20.01-27.754-20.01-27.754S469.854,308.725,472.882,305.061Z" transform="translate(-471.867 -264.763)" fill="#6e86ff" opacity="0.3" style="mix-blend-mode: multiply;isolation: isolate"/>
      <path id="Path_55" data-name="Path 55" d="M489.507,298.349" transform="translate(-452.19 -263.893)" fill="#dce8ef"/>
    </g>
    <path id="Path_56" data-name="Path 56" d="M603.064,277.721h34.717a2.626,2.626,0,0,0,2.626-2.626h0a2.626,2.626,0,0,0-2.626-2.625H603.064a2.626,2.626,0,0,0-2.625,2.625h0A2.626,2.626,0,0,0,603.064,277.721Z" transform="translate(-372.869 271.259)" fill="#ededed"/>
    <path id="Path_57" data-name="Path 57" d="M397.559,149.773h34.716a2.626,2.626,0,0,0,2.625-2.626h0a2.625,2.625,0,0,0-2.625-2.625H397.559a2.625,2.625,0,0,0-2.625,2.625h0A2.625,2.625,0,0,0,397.559,149.773Z" transform="translate(3.043 293.111)" fill="#ededed"/>
    <path id="Path_58" data-name="Path 58" d="M540.142,351.97c-.755.083-1.493.2-2.222.34,4.179.224,8.574.34,12.985.373A29.931,29.931,0,0,0,540.142,351.97Z" transform="translate(-231.526 257.714)" fill="#dce8ef" opacity="0.5" style="mix-blend-mode: multiply;isolation: isolate"/>
  </g>
</svg>
