<svg id="headphones" xmlns="http://www.w3.org/2000/svg" width="22.961" height="26.125" viewBox="0 0 22.961 26.125">
  <g id="Group_39383" data-name="Group 39383" transform="translate(3.061 10.715)">
    <g id="Group_39382" data-name="Group 39382" transform="translate(0)">
      <path id="Path_71132" data-name="Path 71132" d="M93.3,210a2.3,2.3,0,0,0-2.3,2.3v6.225a2.3,2.3,0,1,0,4.592,0V212.3A2.3,2.3,0,0,0,93.3,210Z" transform="translate(-91 -210)" fill="#fff"/>
    </g>
  </g>
  <g id="Group_39385" data-name="Group 39385" transform="translate(0 12.367)">
    <g id="Group_39384" data-name="Group 39384">
      <path id="Path_71133" data-name="Path 71133" d="M32.531,243.011a3.8,3.8,0,0,1,.065-.645,2.292,2.292,0,0,0-1.6,2.175V247.7a2.292,2.292,0,0,0,1.6,2.175,3.8,3.8,0,0,1-.065-.645Z" transform="translate(-31 -242.366)" fill="#fff"/>
    </g>
  </g>
  <g id="Group_39387" data-name="Group 39387" transform="translate(9.184 10.715)">
    <g id="Group_39386" data-name="Group 39386">
      <path id="Path_71134" data-name="Path 71134" d="M219.419,210a2.3,2.3,0,0,0-2.3,2.3v6.225a2.3,2.3,0,0,0,2.3,2.3,2.265,2.265,0,0,0,.658-.108,2.291,2.291,0,0,1-2.189,1.638h-2.437a2.3,2.3,0,1,0,0,1.531h2.437a3.831,3.831,0,0,0,3.827-3.827V212.3A2.3,2.3,0,0,0,219.419,210Z" transform="translate(-211 -210)" fill="#fff"/>
    </g>
  </g>
  <g id="Group_39389" data-name="Group 39389" transform="translate(21.365 12.367)">
    <g id="Group_39388" data-name="Group 39388">
      <path id="Path_71135" data-name="Path 71135" d="M449.722,242.366a3.8,3.8,0,0,1,.065.645v6.225a3.8,3.8,0,0,1-.065.645,2.292,2.292,0,0,0,1.6-2.175v-3.164A2.292,2.292,0,0,0,449.722,242.366Z" transform="translate(-449.722 -242.366)" fill="#fff"/>
    </g>
  </g>
  <g id="Group_39391" data-name="Group 39391">
    <g id="Group_39390" data-name="Group 39390">
      <path id="Path_71136" data-name="Path 71136" d="M42.481,0A11.493,11.493,0,0,0,31,11.481v.02a3.79,3.79,0,0,1,1.566-.711,9.938,9.938,0,0,1,19.83,0,3.791,3.791,0,0,1,1.566.711v-.019A11.493,11.493,0,0,0,42.481,0Z" transform="translate(-31)" fill="#fff"/>
    </g>
  </g>
</svg>
