<svg xmlns="http://www.w3.org/2000/svg" width="12.469" height="15.139" viewBox="0 0 12.469 15.139">
  <g id="history" transform="translate(-45.138 0.15)">
    <path id="Path_204334" data-name="Path 204334" d="M57.457,3.777v9.635a1.429,1.429,0,0,1-1.427,1.427H49.517a1.429,1.429,0,0,1-1.427-1.427V7.147a3.511,3.511,0,0,0,1.071.027v6.238a.357.357,0,0,0,.357.357H56.03a.357.357,0,0,0,.357-.357V3.777a.357.357,0,0,0-.357-.357H52.5a3.775,3.775,0,0,0-.156-1.071H56.03A1.429,1.429,0,0,1,57.457,3.777Zm-8.8,2.956a3.367,3.367,0,1,1,3.367-3.367A3.37,3.37,0,0,1,48.655,6.733Zm0-.714A2.653,2.653,0,1,0,46,3.367,2.656,2.656,0,0,0,48.655,6.019Zm2.019-2.3a.357.357,0,1,0,0-.714H49.011v-1.4a.357.357,0,0,0-.714,0V3.367a.357.357,0,0,0,.357.357Zm4.119,2.893H50.927a.357.357,0,0,0,0,.714h3.866a.357.357,0,1,0,0-.714ZM54.8,8.782H50.933a.357.357,0,0,0,0,.714H54.8a.357.357,0,0,0,0-.714Zm0,2.254H50.933a.357.357,0,1,0,0,.714H54.8a.357.357,0,0,0,0-.714Z" fill="#c99820" stroke="#c99820" stroke-width="0.3"/>
  </g>
</svg>
