<svg xmlns="http://www.w3.org/2000/svg" width="14.584" height="18.09" viewBox="0 0 14.584 18.09">
  <path id="pin-add" d="M10.825,18.625l-.533.465-.533-.465C5.278,14.712,3,11.3,3,8.292A7.184,7.184,0,0,1,10.292,1a7.184,7.184,0,0,1,7.292,7.292C17.584,11.3,15.306,14.712,10.825,18.625ZM4.62,8.292c0,2.309,1.869,5.213,5.672,8.64,3.8-3.427,5.672-6.331,5.672-8.64A5.567,5.567,0,0,0,10.292,2.62,5.567,5.567,0,0,0,4.62,8.292Zm4.861-.81V5.051H11.1V7.482h2.431V9.1H11.1v2.431H9.482V9.1H7.051V7.482Z" transform="translate(-3 -1)" fill="#fff" fill-rule="evenodd"/>
</svg>
