<svg xmlns="http://www.w3.org/2000/svg" width="17.984" height="18.16" viewBox="0 0 17.984 18.16">
  <path id="shopping-cart-2" d="M17.554,3.446a1.765,1.765,0,0,0-1.351-.6H3.277l-.13-.975A1.973,1.973,0,0,0,1.482,0H.532a.532.532,0,0,0,0,1.064h.95c.171,0,.532.361.611.95L3.615,13.437a2.151,2.151,0,0,0,.728,1.327,2.2,2.2,0,0,0,1.021.508,1.957,1.957,0,1,0,3.461.039h2.788a1.957,1.957,0,1,0,3.481,0h1.394a.532.532,0,0,0,0-1.064H5.756A1.142,1.142,0,0,1,4.67,13.3l-.111-.835h10.5a2.209,2.209,0,0,0,2.14-1.874l.763-5.723A1.765,1.765,0,0,0,17.554,3.446ZM7.978,16.2a.893.893,0,1,1-.893-.893A.894.894,0,0,1,7.978,16.2Zm6.268,0a.893.893,0,1,1-.893-.893A.894.894,0,0,1,14.246,16.2ZM16.753,4.147a.715.715,0,0,1,.158.576l-.32,2.4h-3.62l.214-3.21H16.2A.716.716,0,0,1,16.753,4.147ZM9.2,11.4l-.214-3.21h2.851l-.214,3.21ZM8.913,7.123,8.7,3.913h3.42l-.214,3.21Zm-1.28-3.21.214,3.21h-4l-.428-3.21ZM3.989,8.187H7.918l.214,3.21H4.417ZM15.063,11.4H12.687l.214-3.21H16.45l-.3,2.259A1.142,1.142,0,0,1,15.063,11.4Zm0,0" fill="#775200"/>
</svg>
