<svg id="undraw_empty_cart_co35" xmlns="http://www.w3.org/2000/svg" width="214.92" height="179.314" viewBox="0 0 214.92 179.314">
  <path id="Path_204230" data-name="Path 204230" d="M187.733,750.339c2.979,5.525,9.3,7.9,9.3,7.9s1.493-6.586-1.487-12.111-9.3-7.9-9.3-7.9S184.754,744.814,187.733,750.339Z" transform="translate(-177.753 -579.489)" fill="#2f2e41"/>
  <path id="Path_204231" data-name="Path 204231" d="M164.028,773.984c5.379,3.236,7.45,9.664,7.45,9.664s-6.649,1.181-12.028-2.055S152,771.93,152,771.93,158.649,770.749,164.028,773.984Z" transform="translate(-152 -604.952)" fill="#c99820"/>
  <rect id="Rectangle_8414" data-name="Rectangle 8414" width="33.559" height="0.479" transform="translate(99.06 8.607)" fill="#f2f2f2"/>
  <rect id="Rectangle_8415" data-name="Rectangle 8415" width="0.479" height="4.435" transform="translate(123.031 8.967)" fill="#f2f2f2"/>
  <rect id="Rectangle_8416" data-name="Rectangle 8416" width="0.479" height="4.435" transform="translate(108.408 8.967)" fill="#f2f2f2"/>
  <rect id="Rectangle_8417" data-name="Rectangle 8417" width="33.559" height="0.479" transform="translate(116.079 31.62)" fill="#f2f2f2"/>
  <rect id="Rectangle_8418" data-name="Rectangle 8418" width="0.479" height="4.435" transform="translate(125.188 27.305)" fill="#f2f2f2"/>
  <rect id="Rectangle_8419" data-name="Rectangle 8419" width="0.479" height="4.435" transform="translate(139.81 27.305)" fill="#f2f2f2"/>
  <rect id="Rectangle_8420" data-name="Rectangle 8420" width="33.559" height="0.479" transform="translate(160.665 42.407)" fill="#f2f2f2"/>
  <rect id="Rectangle_8421" data-name="Rectangle 8421" width="0.479" height="4.435" transform="translate(169.774 38.092)" fill="#f2f2f2"/>
  <rect id="Rectangle_8422" data-name="Rectangle 8422" width="0.479" height="4.435" transform="translate(184.396 38.092)" fill="#f2f2f2"/>
  <rect id="Rectangle_8423" data-name="Rectangle 8423" width="33.559" height="0.479" transform="translate(157.309 153.632)" fill="#f2f2f2"/>
  <rect id="Rectangle_8424" data-name="Rectangle 8424" width="0.479" height="4.435" transform="translate(166.418 149.317)" fill="#f2f2f2"/>
  <rect id="Rectangle_8425" data-name="Rectangle 8425" width="0.479" height="4.435" transform="translate(181.04 149.317)" fill="#f2f2f2"/>
  <rect id="Rectangle_8426" data-name="Rectangle 8426" width="33.559" height="0.479" transform="translate(100.019 76.685)" fill="#f2f2f2"/>
  <rect id="Rectangle_8427" data-name="Rectangle 8427" width="0.479" height="4.435" transform="translate(109.127 72.37)" fill="#f2f2f2"/>
  <rect id="Rectangle_8428" data-name="Rectangle 8428" width="0.479" height="4.435" transform="translate(123.75 72.37)" fill="#f2f2f2"/>
  <rect id="Rectangle_8429" data-name="Rectangle 8429" width="33.559" height="0.479" transform="translate(110.566 134.455)" fill="#f2f2f2"/>
  <rect id="Rectangle_8430" data-name="Rectangle 8430" width="0.479" height="4.435" transform="translate(119.675 130.14)" fill="#f2f2f2"/>
  <rect id="Rectangle_8431" data-name="Rectangle 8431" width="0.479" height="4.435" transform="translate(134.297 130.14)" fill="#f2f2f2"/>
  <rect id="Rectangle_8432" data-name="Rectangle 8432" width="33.559" height="0.479" transform="translate(164.261 116.956)" fill="#f2f2f2"/>
  <rect id="Rectangle_8433" data-name="Rectangle 8433" width="0.479" height="4.435" transform="translate(173.37 112.641)" fill="#f2f2f2"/>
  <rect id="Rectangle_8434" data-name="Rectangle 8434" width="0.479" height="4.435" transform="translate(187.992 112.641)" fill="#f2f2f2"/>
  <path id="Path_204232" data-name="Path 204232" d="M182.034,620.957h-56.76v-.408h56.351v-19.8h-51.58l-2.506-5.22.368-.177,2.394,4.988h51.731Z" transform="translate(-95.245 -452.637)" fill="#2f2e41"/>
  <circle id="Ellipse_3169" data-name="Ellipse 3169" cx="4.288" cy="4.288" r="4.288" transform="translate(33.296 169.75)" fill="#3f3d56"/>
  <circle id="Ellipse_3170" data-name="Ellipse 3170" cx="4.288" cy="4.288" r="4.288" transform="translate(75.56 169.75)" fill="#3f3d56"/>
  <circle id="Ellipse_3171" data-name="Ellipse 3171" cx="2.654" cy="2.654" r="2.654" transform="translate(127.011 80.322)" fill="#3f3d56"/>
  <path id="Path_204233" data-name="Path 204233" d="M293.251,522.653h-63.8l-13.8-45.122h91.819l-.084.266Zm-63.5-.408h63.2l13.959-44.305H216.2Z" transform="translate(-200.391 -381.284)" fill="#2f2e41"/>
  <path id="Path_204234" data-name="Path 204234" d="M150.421,453.033H94.385L82.26,413.015h80.648l-.073.236Z" transform="translate(-62.541 -314.011)" fill="#f2f2f2"/>
  <path id="Path_204235" data-name="Path 204235" d="M450.213,352.155l-.395-.1,2.695-10.156h15.674v.408h-15.36Z" transform="translate(-341.992 -259.939)" fill="#2f2e41"/>
  <rect id="Rectangle_8435" data-name="Rectangle 8435" width="82.77" height="0.408" transform="translate(19.718 109.927)" fill="#2f2e41"/>
  <rect id="Rectangle_8436" data-name="Rectangle 8436" width="73.428" height="0.408" transform="translate(24.321 124.971)" fill="#2f2e41"/>
  <rect id="Rectangle_8437" data-name="Rectangle 8437" width="0.408" height="44.714" transform="translate(60.961 96.452)" fill="#2f2e41"/>
  <rect id="Rectangle_8438" data-name="Rectangle 8438" width="44.809" height="0.408" transform="matrix(0.065, -0.998, 0.998, 0.065, 76.721, 141.152)" fill="#2f2e41"/>
  <rect id="Rectangle_8439" data-name="Rectangle 8439" width="0.408" height="44.809" transform="translate(42.28 96.464) rotate(-3.729)" fill="#2f2e41"/>
  <rect id="Rectangle_8440" data-name="Rectangle 8440" width="214.92" height="0.645" transform="translate(0 178.669)" fill="#2f2e41"/>
  <path id="Path_204236" data-name="Path 204236" d="M747.411,135.727s3.5,9.973,1.348,11.508,7.278,14.065,7.278,14.065l11.321-3.069-6.2-10.485s-.809-10.485-.809-12.019S747.411,135.727,747.411,135.727Z" transform="translate(-604.685 -120.895)" fill="#a0616a"/>
  <path id="Path_204237" data-name="Path 204237" d="M747.411,135.727s3.5,9.973,1.348,11.508,7.278,14.065,7.278,14.065l11.321-3.069-6.2-10.485s-.809-10.485-.809-12.019S747.411,135.727,747.411,135.727Z" transform="translate(-604.685 -120.895)" opacity="0.1"/>
  <path id="Path_204238" data-name="Path 204238" d="M721.432,410.543s-1.023,12.786,0,19.435,2.557,25.061,2.557,25.061,0,34.779,5.626,35.291,9.718,1.023,10.229-1.023-2.557-3.069-1.023-4.092,2.046-4.6,0-8.695,0-45.52,0-45.52l9.718,26.084s1.023,21.481,2.046,24.55-1.023,8.695,2.557,9.206,7.672-2.557,9.718-3.58-3.069-1.023-2.046-1.534,4.092-2.046,3.069-2.557-2.046-25.061-2.046-25.061-2.813-52.424-6.393-54.47-5.882,1.478-5.882,1.478Z" transform="translate(-584.588 -324.618)" fill="#2f2e41"/>
  <path id="Path_204239" data-name="Path 204239" d="M754.791,758.784v4.092s-4.6,11.122,0,11.122,8.183,1.153,8.183-.382V759.807Z" transform="translate(-608.74 -595.117)" fill="#2f2e41"/>
  <path id="Path_204240" data-name="Path 204240" d="M861.21,758.754v4.092s4.6,11.122,0,11.122-8.183,1.153-8.183-.382V759.776Z" transform="translate(-684.984 -595.094)" fill="#2f2e41"/>
  <circle id="Ellipse_3172" data-name="Ellipse 3172" cx="9.206" cy="9.206" r="9.206" transform="translate(140.68 3.836)" fill="#a0616a"/>
  <path id="Path_204241" data-name="Path 204241" d="M762.3,201.9s2.557,7.672,6.649,6.137l4.092-1.534,7.16,49.1s-5.626,8.183-13.809,3.069S762.3,201.9,762.3,201.9Z" transform="translate(-615.229 -171.724)" fill="#c99820"/>
  <path id="Path_204242" data-name="Path 204242" d="M795.418,180.088l2.3-4.859s13.554,6.393,15.6,8.439a7.988,7.988,0,0,1,2.046,5.115l-3.58,12.786s1.023,28.13,1.023,29.153,3.58,6.649,1.023,4.6-3.069-4.092-5.115-1.023-6.649,6.649-6.649,6.649Z" transform="translate(-641.184 -151.446)" fill="#3f3d56"/>
  <path id="Path_204243" data-name="Path 204243" d="M841.578,349.122l-1.534,14.321s-9.206,8.183-7.16,8.695a2.831,2.831,0,0,0,3.069-1.534s3.58,3.58,5.626,1.534,7.16-21.481,7.16-21.481Z" transform="translate(-669.443 -283.656)" fill="#a0616a"/>
  <path id="Path_204244" data-name="Path 204244" d="M744.224,76.045c-2.041-.073-4.225-.109-5.946.991a8.7,8.7,0,0,0-2.055,2.012c-1.676,2.119-3.124,4.784-2.5,7.413l.723-.282a4.734,4.734,0,0,1-.457,2.028c.1-.3.443.183.351.482l-.8,2.613a2.46,2.46,0,0,1,3.137,1.872c.091-3.035.406-6.515,2.868-8.292a9.92,9.92,0,0,1,4.325-1.413,8.7,8.7,0,0,1,4.193.021,3.016,3.016,0,0,1,2.171,3.205,1.428,1.428,0,0,1,1.609.793,4.166,4.166,0,0,1,.33,1.907c.657.464,1.4-.457,1.671-1.216a10.974,10.974,0,0,0,.848-5.531c-.338-1.857-1.851-3.631-3.739-3.637a1.31,1.31,0,0,0,.341-.923l-1.556-.131a1.719,1.719,0,0,0,1.027-.542C750.144,78.1,745.234,76.082,744.224,76.045Z" transform="translate(-594.142 -76.014)" fill="#2f2e41"/>
  <path id="Path_204245" data-name="Path 204245" d="M709.656,176.915s-4.164-4.08-5.662-3.83-3.544,3.83-3.544,3.83-12.275,4.092-11.763,8.183,6.137,24.039,6.137,24.039,4.6,24.039.511,26.6,19.435,9.206,19.947,6.137,1.534-33.756,0-38.359S709.656,176.915,709.656,176.915Z" transform="translate(-560.025 -149.808)" fill="#3f3d56"/>
  <path id="Path_204246" data-name="Path 204246" d="M850.893,223.236h6.324s4.416,19.435,4.928,21.481,1.534,11.764,1.023,11.764-10.741-2.046-10.741-.511Z" transform="translate(-683.362 -187.946)" fill="#3f3d56"/>
  <path id="Path_204247" data-name="Path 204247" d="M767.353,324.416H743.143c-2.363-10.868-2.56-21.369,0-31.4h24.211C763.446,302.867,763.2,313.3,767.353,324.416Z" transform="translate(-600.036 -240.997)" fill="#f2f2f2"/>
  <path id="Path_204248" data-name="Path 204248" d="M707.938,353.924l7.16,3.069s13.809,2.046,13.809-3.58-13.809-2.557-13.809-2.557l-4.6-1.472Z" transform="translate(-574.674 -283.854)" fill="#a0616a"/>
  <path id="Path_204249" data-name="Path 204249" d="M678.825,210.435l-6.138,1.534-4.6,27.107s-1.534,7.16,1.023,7.672,9.718,4.6,9.718,4.6,1.023-7.672,3.069-7.672l-5.115-4.092,3.069-17.9Z" transform="translate(-544.027 -178.213)" fill="#3f3d56"/>
  <rect id="Rectangle_8441" data-name="Rectangle 8441" width="33.559" height="0.479" transform="translate(14.442 84.595)" fill="#f2f2f2"/>
  <rect id="Rectangle_8442" data-name="Rectangle 8442" width="0.479" height="4.435" transform="translate(23.551 80.281)" fill="#f2f2f2"/>
  <rect id="Rectangle_8443" data-name="Rectangle 8443" width="0.479" height="4.435" transform="translate(38.173 80.281)" fill="#f2f2f2"/>
  <rect id="Rectangle_8444" data-name="Rectangle 8444" width="33.559" height="0.479" transform="translate(26.188 13.641)" fill="#f2f2f2"/>
  <rect id="Rectangle_8445" data-name="Rectangle 8445" width="0.479" height="4.435" transform="translate(50.159 14.001)" fill="#f2f2f2"/>
  <rect id="Rectangle_8446" data-name="Rectangle 8446" width="0.479" height="4.435" transform="translate(35.537 14.001)" fill="#f2f2f2"/>
  <rect id="Rectangle_8447" data-name="Rectangle 8447" width="33.559" height="0.479" transform="translate(59.987 60.864)" fill="#f2f2f2"/>
  <rect id="Rectangle_8448" data-name="Rectangle 8448" width="0.479" height="4.435" transform="translate(83.958 61.224)" fill="#f2f2f2"/>
  <rect id="Rectangle_8449" data-name="Rectangle 8449" width="0.479" height="4.435" transform="translate(69.336 61.224)" fill="#f2f2f2"/>
  <rect id="Rectangle_8450" data-name="Rectangle 8450" width="33.559" height="0.479" transform="translate(2.936 60.624)" fill="#f2f2f2"/>
  <rect id="Rectangle_8451" data-name="Rectangle 8451" width="0.479" height="4.435" transform="translate(26.907 60.984)" fill="#f2f2f2"/>
  <rect id="Rectangle_8452" data-name="Rectangle 8452" width="0.479" height="4.435" transform="translate(12.285 60.984)" fill="#f2f2f2"/>
  <rect id="Rectangle_8453" data-name="Rectangle 8453" width="33.559" height="0.479" transform="translate(43.207 36.653)" fill="#f2f2f2"/>
  <rect id="Rectangle_8454" data-name="Rectangle 8454" width="0.479" height="4.435" transform="translate(52.316 32.339)" fill="#f2f2f2"/>
  <rect id="Rectangle_8455" data-name="Rectangle 8455" width="0.479" height="4.435" transform="translate(66.939 32.339)" fill="#f2f2f2"/>
</svg>
